<?xml version="1.0" encoding="utf-8"?>
<!-- Generator: Adobe Illustrator 16.0.0, SVG Export Plug-In . SVG Version: 6.00 Build 0)  -->
<!DOCTYPE svg PUBLIC "-//W3C//DTD SVG 1.1//EN" "http://www.w3.org/Graphics/SVG/1.1/DTD/svg11.dtd">
<svg version="1.1" id="Layer_1" xmlns="http://www.w3.org/2000/svg" xmlns:xlink="http://www.w3.org/1999/xlink" x="0px" y="0px"
	 width="89.506px" height="137.334px" viewBox="0 0 89.506 137.334" enable-background="new 0 0 89.506 137.334"
	 xml:space="preserve">
<g>
	<path id="Left_Arm_2_" fill="#9B9B9B" d="M38.148,59.039l-3.279,3.943c0,0-10.659-12.806-11.713-17.843
		c0.039-5.154,5.115-18.234,5.115-18.234s0.36-3.629-1.093-4.958c-1.453-1.329-4.1-5.232-1.484-9.021
		c0.273,5.271,3.241,5.935,3.241,5.935s-3.28-7.145,4.256-10.073c-2.772,4.607-1.055,9.995-1.055,9.995s1.093-11.205,7.965-8.901
		c-6.432,4.526-3.174,11.895-3.174,11.895s2.51,0.912,6.493-3.833c-0.235,3.749-3.046,6.56-7.444,7.801
		c-1.818,0.513-3.566,1.746-3.566,1.746c-1.679,3.514-2.265,12.377-4.491,17.648C29.129,48.223,38.148,59.039,38.148,59.039z"/>
	<path id="Right_Arm_2_" fill="#9B9B9B" d="M49.628,59.039l-1.234,5.771c0,0,14.14,10.238,22.631,10.979
		c7.73-5.974,9.645-15.852,9.645-15.852s3.014-2.594,4.041-4.275c1.325-2.167,1.934-5.505,0.294-10.601
		c-0.997,5.33-3.517,7.379-3.517,7.379s2.52-7.555-1.932-11.289c1.055,5.374-1.348,9.767-1.348,9.767s1.875-8.023-5.213-9.767
		c4.979,7.111,1.348,12.168,1.348,12.168s-2.636-0.176-4.896-6.56c-1.559,4.217,1.441,9.254,3.843,10.074
		c1.788,0.61,3.573,2.206,3.573,2.206c0.408,2.772-4.325,5.894-6.291,10.125C64.867,68.7,49.628,59.039,49.628,59.039z"/>
	<g id="Left_Leg_9_">
		<path id="Left_Leg_10_" fill="#727272" d="M33.053,120.733l-5.27-0.475c1.229-5.389-0.488-9.214,0.292-15
			c3.628-10.949,7.497-13.697,7.497-13.697l2.576,2.459c0,0-2.464,3.306-6.013,12.142C31.355,115.003,33.053,120.733,33.053,120.733
			z"/>
		<path fill="#727272" d="M33.993,121.075c0,0.912-1.061,1.664-4.35,1.664c-3.288,0-5.954-0.698-5.954-1.664
			c0-1.868,2.666-3.383,5.954-3.383C32.932,117.692,33.993,119.207,33.993,121.075z"/>
	</g>
	<g id="Right_Leg_2_">
		<g>
			<path id="Left_Leg_17_" fill="#9B9B9B" d="M55.074,106.379l6.091,0.47c-2.635-5.33,1.348-16.81-0.121-21.729
				c-2.924-1.055-14.211,9.488-14.211,9.488v3.865c0,0,7.363-7.088,10.291-6.912C58.296,93.495,55.074,106.379,55.074,106.379z"/>
			<path fill="#9B9B9B" d="M54.302,107.021c0,0.914,1.061,1.666,4.35,1.666s5.953-0.698,5.953-1.666
				c0-1.867-2.664-3.383-5.953-3.383C55.362,103.64,54.302,105.153,54.302,107.021z"/>
		</g>
		<g>
			<path id="Left_Leg_16_" fill="#727272" d="M55.074,106.379l6.091,0.47c-2.635-5.33,1.348-16.81-0.121-21.729
				c-2.924-1.055-14.211,9.488-14.211,9.488v3.865c0,0,7.363-7.088,10.291-6.912C58.296,93.495,55.074,106.379,55.074,106.379z"/>
			<path fill="#727272" d="M54.302,107.021c0,0.914,1.061,1.666,4.35,1.666s5.953-0.698,5.953-1.666
				c0-1.867-2.664-3.383-5.953-3.383C55.362,103.64,54.302,105.153,54.302,107.021z"/>
		</g>
	</g>
	<ellipse id="Body_2_" fill="#9B9B9B" cx="44.942" cy="77.936" rx="12.807" ry="22.802"/>
	<path id="Tail_3_" fill="#9B9B9B" d="M46.978,122.994l3.463-0.229l-2.328,8.584l-8.667-7.73l4.338-0.413
		c-5.196-13.565-0.355-17.47-2.619-27.152l7.667-2.136C45.66,101.179,42.646,111.827,46.978,122.994z"/>
	<g id="Head_12_">
		<ellipse id="Head_14_" fill="#B5B5B5" cx="44.943" cy="51.854" rx="21.787" ry="13.119"/>
		<g>
			<g>
				<defs>
					<ellipse id="SVGID_1_" cx="44.943" cy="51.854" rx="21.787" ry="13.119"/>
				</defs>
				<clipPath id="SVGID_2_">
					<use xlink:href="#SVGID_1_"  overflow="visible"/>
				</clipPath>
				<path clip-path="url(#SVGID_2_)" fill="#FFFFFF" d="M31.396,38.423l10.019,0.484c0,0-5.375,2.951-8.42,7.559
					C30.34,43.655,31.396,38.423,31.396,38.423z"/>
			</g>
			<g>
				<defs>
					<ellipse id="SVGID_3_" cx="44.943" cy="51.854" rx="21.787" ry="13.119"/>
				</defs>
				<clipPath id="SVGID_4_">
					<use xlink:href="#SVGID_3_"  overflow="visible"/>
				</clipPath>
				<circle clip-path="url(#SVGID_4_)" cx="35.455" cy="39.829" r="2.108"/>
			</g>
			<g>
				<defs>
					<ellipse id="SVGID_5_" cx="44.943" cy="51.854" rx="21.787" ry="13.119"/>
				</defs>
				<clipPath id="SVGID_6_">
					<use xlink:href="#SVGID_5_"  overflow="visible"/>
				</clipPath>
				<path clip-path="url(#SVGID_6_)" fill="#FFFFFF" d="M58.487,38.423L48.47,38.908c0,0,5.375,2.951,8.42,7.559
					C59.545,43.655,58.487,38.423,58.487,38.423z"/>
			</g>
			<g>
				<defs>
					<ellipse id="SVGID_7_" cx="44.943" cy="51.854" rx="21.787" ry="13.119"/>
				</defs>
				<clipPath id="SVGID_8_">
					<use xlink:href="#SVGID_7_"  overflow="visible"/>
				</clipPath>
				<circle clip-path="url(#SVGID_8_)" cx="54.431" cy="39.829" r="2.108"/>
			</g>
		</g>
	</g>
	<path id="Left_Horn_2_" fill="#606060" d="M31.189,48.262c-4.715,0-16.975,9.644-1.943,21.553
		c-2.212-10.488,3.358-13.236,6.403-14.292C36.001,52.362,33.62,49.161,31.189,48.262z"/>
	<path fill="#606060" d="M58.696,48.262c4.714,0,16.975,9.644,1.941,21.553c2.213-10.488-3.357-13.236-6.402-14.292
		C53.884,52.362,56.265,49.161,58.696,48.262z"/>
</g>
</svg>
