<?xml version="1.0" encoding="utf-8"?>
<!-- Generator: Adobe Illustrator 16.0.0, SVG Export Plug-In . SVG Version: 6.00 Build 0)  -->
<!DOCTYPE svg PUBLIC "-//W3C//DTD SVG 1.1//EN" "http://www.w3.org/Graphics/SVG/1.1/DTD/svg11.dtd">
<svg version="1.1" id="Sprites_Sized_Down" xmlns="http://www.w3.org/2000/svg" xmlns:xlink="http://www.w3.org/1999/xlink" x="0px"
	 y="0px" width="1000px" height="500px" viewBox="0 0 1000 500" enable-background="new 0 0 1000 500" xml:space="preserve">
<g>
	<path id="Left_Arm_1_" fill="#9B9B9B" d="M492.206,418.829l-3.279,3.943c0,0-10.659-12.807-11.714-17.844
		c0.039-5.154,5.115-18.234,5.115-18.234s0.36-3.629-1.094-4.957c-1.453-1.33-4.1-5.232-1.483-9.02
		c0.273,5.27,3.241,5.934,3.241,5.934s-3.28-7.145,4.256-10.072c-2.771,4.605-1.055,9.994-1.055,9.994s1.094-11.205,7.965-8.9
		c-6.432,4.525-3.174,11.895-3.174,11.895s2.51,0.91,6.493-3.834c-0.235,3.75-3.046,6.561-7.444,7.801
		c-1.818,0.514-3.566,1.746-3.566,1.746c-1.679,3.514-2.265,12.377-4.49,17.648C483.188,408.013,492.206,418.829,492.206,418.829z"
		/>
	<path id="Right_Arm_1_" fill="#9B9B9B" d="M503.686,418.829l-1.234,5.77c0,0,14.139,10.238,22.631,10.98
		c7.73-5.975,9.644-15.854,9.644-15.854s3.014-2.594,4.041-4.275c1.325-2.166,1.933-5.504,0.294-10.6
		c-0.997,5.33-3.516,7.379-3.516,7.379s2.519-7.555-1.933-11.289c1.055,5.375-1.347,9.768-1.347,9.768s1.875-8.023-5.213-9.768
		c4.979,7.111,1.348,12.168,1.348,12.168s-2.636-0.176-4.897-6.561c-1.558,4.219,1.442,9.254,3.843,10.074
		c1.788,0.611,3.573,2.207,3.573,2.207c0.409,2.771-4.325,5.893-6.29,10.125C518.925,428.489,503.686,418.829,503.686,418.829z"/>
	<g id="Left_Leg_4_">
		<path id="Left_Leg_5_" fill="#727272" d="M487.11,480.524l-5.271-0.475c1.23-5.389-0.488-9.215,0.293-15
			c3.629-10.951,7.497-13.697,7.497-13.697l2.576,2.459c0,0-2.464,3.305-6.013,12.141
			C485.412,474.794,487.11,480.524,487.11,480.524z"/>
		<path fill="#727272" d="M488.051,480.864c0,0.914-1.061,1.664-4.35,1.664s-5.954-0.697-5.954-1.664
			c0-1.867,2.665-3.383,5.954-3.383S488.051,478.997,488.051,480.864z"/>
	</g>
	<g id="Right_Leg_1_">
		<g>
			<path id="Left_Leg_10_" fill="#9B9B9B" d="M509.132,466.169l6.091,0.469c-2.635-5.33,1.348-16.809-0.121-21.729
				c-2.924-1.053-14.211,9.488-14.211,9.488v3.865c0,0,7.363-7.086,10.291-6.91C512.354,453.284,509.132,466.169,509.132,466.169z"
				/>
			<path fill="#9B9B9B" d="M508.359,466.812c0,0.914,1.061,1.664,4.35,1.664c3.288,0,5.953-0.697,5.953-1.664
				c0-1.869-2.665-3.383-5.953-3.383C509.42,463.429,508.359,464.942,508.359,466.812z"/>
		</g>
		<g>
			<path id="Left_Leg_9_" fill="#727272" d="M509.132,466.169l6.091,0.469c-2.635-5.33,1.348-16.809-0.121-21.729
				c-2.924-1.053-14.211,9.488-14.211,9.488v3.865c0,0,7.363-7.086,10.291-6.91C512.354,453.284,509.132,466.169,509.132,466.169z"
				/>
			<path fill="#727272" d="M508.359,466.812c0,0.914,1.061,1.664,4.35,1.664c3.288,0,5.953-0.697,5.953-1.664
				c0-1.869-2.665-3.383-5.953-3.383C509.42,463.429,508.359,464.942,508.359,466.812z"/>
		</g>
	</g>
	<ellipse id="Body_1_" fill="#9B9B9B" cx="499" cy="437.726" rx="12.807" ry="22.803"/>
	<path id="Tail_2_" fill="#9B9B9B" d="M501.034,482.784l3.464-0.23l-2.328,8.586l-8.668-7.732l4.338-0.412
		c-5.196-13.564-0.355-17.469-2.619-27.152l7.667-2.137C499.718,460.97,496.704,471.616,501.034,482.784z"/>
	<g id="Head_7_">
		<ellipse id="Head_9_" fill="#B5B5B5" cx="499" cy="411.644" rx="21.787" ry="13.119"/>
		<g>
			<defs>
				<ellipse id="Head_8_" cx="499" cy="411.644" rx="21.787" ry="13.119"/>
			</defs>
			<clipPath id="Head_1_">
				<use xlink:href="#Head_8_"  overflow="visible"/>
			</clipPath>
			<path clip-path="url(#Head_1_)" fill="#FFFFFF" d="M485.454,398.214l10.019,0.484c0,0-5.375,2.951-8.42,7.559
				C484.397,403.444,485.454,398.214,485.454,398.214z"/>
			<circle clip-path="url(#Head_1_)" cx="489.513" cy="399.618" r="2.108"/>
			<path clip-path="url(#Head_1_)" fill="#FFFFFF" d="M512.546,398.214l-10.019,0.484c0,0,5.375,2.951,8.42,7.559
				C513.603,403.444,512.546,398.214,512.546,398.214z"/>
			<circle clip-path="url(#Head_1_)" cx="508.488" cy="399.618" r="2.108"/>
		</g>
	</g>
	<path id="Left_Horn_1_" fill="#606060" d="M485.247,408.052c-4.715,0-16.975,9.645-1.942,21.553
		c-2.213-10.488,3.357-13.236,6.402-14.291C490.059,412.151,487.678,408.95,485.247,408.052z"/>
	<path fill="#606060" d="M512.754,408.052c4.714,0,16.975,9.645,1.941,21.553c2.213-10.488-3.357-13.236-6.402-14.291
		C507.941,412.151,510.322,408.95,512.754,408.052z"/>
</g>
</svg>
