<svg id="4ee7aaf3-f92b-4a0f-b84f-3d3ba6e9d969" data-name="Layer 3" xmlns="http://www.w3.org/2000/svg" width="1000" height="500" viewBox="0 0 1000 500"><defs><style>.\31 c2ade7c-0da7-41eb-8ee1-aa8bafdf9edf{fill:#ef4b53;}.\32 ba084cf-6929-451e-9908-b9f3488ccdc5{fill:#f47682;}</style></defs><title>heart-2</title><g id="0ace516e-ca0d-4fdb-bc39-82b0d093be95" data-name="Icons"><g id="ecff82ab-1896-421d-a3b8-7143fa0642d3" data-name="Icons"><path class="1c2ade7c-0da7-41eb-8ee1-aa8bafdf9edf" d="M109.73,25.74l.84-.83a8.35,8.35,0,0,0,0-11.73,8.33,8.33,0,0,0-11.74,0L98,14l-.84-.83A8.29,8.29,0,0,0,85.44,24.93l.83.83L97.59,37.05a.59.59,0,0,0,.85,0l11.29-11.31"/></g><path class="2ba084cf-6929-451e-9908-b9f3488ccdc5" d="M91.79,12.25s-6.93-.55-7.64,7.31A7.57,7.57,0,0,1,92,14.07s1.6.16,1.59-.84S91.79,12.25,91.79,12.25Z"/></g></svg>