<svg id="df96b328-dcc7-4199-8f9f-ba15b4319d9b" data-name="Layer 2" xmlns="http://www.w3.org/2000/svg" width="1000" height="500" viewBox="0 0 1000 500"><defs><style>.\37 99352d4-4fa3-4c80-ad50-10b0bc95231b{fill:#ef4b53;}.ac0c1cf8-20c5-454a-a3f4-ab7c8852ca4c{fill:#f47682;}</style></defs><title>heart-1</title><g id="a4409f1c-b7b8-4f67-b9db-7f252ede1fbe" data-name="Icons"><g id="14e21d8c-d935-475b-ad48-1b292b714dff" data-name="Icons"><path class="799352d4-4fa3-4c80-ad50-10b0bc95231b" d="M76.73,25.74l.84-.83a8.35,8.35,0,0,0,0-11.73,8.33,8.33,0,0,0-11.74,0L65,14l-.84-.83A8.29,8.29,0,0,0,52.44,24.93l.83.83L64.59,37.05a.59.59,0,0,0,.85,0L76.73,25.74"/></g><path class="ac0c1cf8-20c5-454a-a3f4-ab7c8852ca4c" d="M58.79,12.25s-6.93-.55-7.64,7.31A7.57,7.57,0,0,1,59,14.07s1.6.16,1.59-.84S58.79,12.25,58.79,12.25Z"/></g></svg>