<svg id="9c870c40-f73b-4534-a194-adc7f8550718" data-name="Layer 1" xmlns="http://www.w3.org/2000/svg" width="1000" height="500" viewBox="0 0 1000 500"><defs><style>.ba871852-b2ab-4d5b-bfac-75913908d559{fill:#ef4b53;}.cb0735ff-f1f8-4b4f-86a3-9c61f8e8a90e{fill:#f47682;}</style></defs><title>heart-0</title><g id="d0ab7f04-dd9a-487c-aaa4-f50d5892aa62" data-name="Icons"><g id="57cab285-75ae-45b7-b8ef-12d6f5b4e74a" data-name="Icons"><path class="ba871852-b2ab-4d5b-bfac-75913908d559" d="M43.73,25.75l.84-.83A8.3,8.3,0,1,0,32.83,13.19L32,14l-.83-.83a8.31,8.31,0,0,0-11.73,0,8.32,8.32,0,0,0,0,11.73l.83.83,11.31,11.3a.59.59,0,0,0,.85,0l11.3-11.3"/></g><path class="cb0735ff-f1f8-4b4f-86a3-9c61f8e8a90e" d="M25.8,12.24s-6.93-.55-7.65,7.31A7.58,7.58,0,0,1,26,14.06s1.59.16,1.59-.83S25.8,12.24,25.8,12.24Z"/></g></svg>