<?xml version="1.0" encoding="utf-8"?>
<!-- Generator: Adobe Illustrator 16.0.0, SVG Export Plug-In . SVG Version: 6.00 Build 0)  -->
<!DOCTYPE svg PUBLIC "-//W3C//DTD SVG 1.1//EN" "http://www.w3.org/Graphics/SVG/1.1/DTD/svg11.dtd">
<svg version="1.1" id="Layer_1" xmlns="http://www.w3.org/2000/svg" xmlns:xlink="http://www.w3.org/1999/xlink" x="0px" y="0px"
	 width="62.561px" height="380.475px" viewBox="0 0 62.561 380.475" enable-background="new 0 0 62.561 380.475"
	 xml:space="preserve">
<g>
	<rect x="5.628" y="216.743" fill="#4C2605" stroke="#000000" stroke-miterlimit="10" width="51.305" height="8.596"/>
	<rect x="5.628" y="236.838" fill="#4C2605" stroke="#000000" stroke-miterlimit="10" width="51.305" height="8.596"/>
	<rect x="5.628" y="256.933" fill="#4C2605" stroke="#000000" stroke-miterlimit="10" width="51.305" height="8.597"/>
	<rect x="5.628" y="277.026" fill="#4C2605" stroke="#000000" stroke-miterlimit="10" width="51.305" height="8.598"/>
	<rect x="5.628" y="297.122" fill="#4C2605" stroke="#000000" stroke-miterlimit="10" width="51.305" height="8.596"/>
	<rect x="5.628" y="317.216" fill="#4C2605" stroke="#000000" stroke-miterlimit="10" width="51.305" height="8.597"/>
	<rect x="5.628" y="337.311" fill="#4C2605" stroke="#000000" stroke-miterlimit="10" width="51.305" height="8.598"/>
	<rect x="5.628" y="357.405" fill="#4C2605" stroke="#000000" stroke-miterlimit="10" width="51.305" height="8.598"/>
	<rect x="5.629" y="196.647" fill="#4C2605" stroke="#000000" stroke-miterlimit="10" width="51.304" height="8.597"/>
	<rect x="5.629" y="176.553" fill="#4C2605" stroke="#000000" stroke-miterlimit="10" width="51.304" height="8.596"/>
	<rect x="5.629" y="156.458" fill="#4C2605" stroke="#000000" stroke-miterlimit="10" width="51.304" height="8.596"/>
	<rect x="5.629" y="136.364" fill="#4C2605" stroke="#000000" stroke-miterlimit="10" width="51.304" height="8.597"/>
	<rect x="5.629" y="116.269" fill="#4C2605" stroke="#000000" stroke-miterlimit="10" width="51.304" height="8.597"/>
	<rect x="5.629" y="96.174" fill="#4C2605" stroke="#000000" stroke-miterlimit="10" width="51.304" height="8.596"/>
	<rect x="5.629" y="76.08" fill="#4C2605" stroke="#000000" stroke-miterlimit="10" width="51.304" height="8.596"/>
	<rect x="5.629" y="55.985" fill="#4C2605" stroke="#000000" stroke-miterlimit="10" width="51.304" height="8.597"/>
	<rect x="5.629" y="35.891" fill="#4C2605" stroke="#000000" stroke-miterlimit="10" width="51.304" height="8.596"/>
	<rect x="5.629" y="15.796" fill="#4C2605" stroke="#000000" stroke-miterlimit="10" width="51.304" height="8.597"/>
	<rect x="5.629" y="15.796" fill="#4C2605" stroke="#000000" stroke-miterlimit="10" width="51.304" height="8.597"/>
	<g>
		<path fill="#4C2605" d="M56.933,379.975c-2.828,0-5.129-2.445-5.129-5.45V5.95c0-3.006,2.301-5.45,5.129-5.45
			c2.827,0,5.128,2.444,5.128,5.45v368.574C62.061,377.53,59.76,379.975,56.933,379.975z"/>
		<path d="M56.933,1c2.552,0,4.628,2.221,4.628,4.95v368.574c0,2.729-2.076,4.95-4.628,4.95c-2.553,0-4.629-2.221-4.629-4.95V5.95
			C52.304,3.221,54.38,1,56.933,1 M56.933,0c-3.107,0-5.629,2.663-5.629,5.95v368.574c0,3.284,2.521,5.95,5.629,5.95
			s5.628-2.666,5.628-5.95V5.95C62.561,2.663,60.04,0,56.933,0L56.933,0z"/>
	</g>
	<g>
		<path fill="#4C2605" d="M5.628,379.975c-2.827,0-5.128-2.445-5.128-5.45V5.95c0-3.006,2.301-5.45,5.128-5.45
			s5.128,2.444,5.128,5.45v368.574C10.756,377.53,8.455,379.975,5.628,379.975z"/>
		<path d="M5.628,1c2.552,0,4.628,2.221,4.628,4.95v368.574c0,2.729-2.076,4.95-4.628,4.95S1,377.254,1,374.525V5.95
			C1,3.221,3.076,1,5.628,1 M5.628,0C2.52,0,0,2.663,0,5.95v368.574c0,3.284,2.52,5.95,5.628,5.95c3.107,0,5.628-2.666,5.628-5.95
			V5.95C11.256,2.663,8.736,0,5.628,0L5.628,0z"/>
	</g>
</g>
</svg>
