<?xml version="1.0" encoding="utf-8"?>
<!-- Generator: Adobe Illustrator 16.0.0, SVG Export Plug-In . SVG Version: 6.00 Build 0)  -->
<!DOCTYPE svg PUBLIC "-//W3C//DTD SVG 1.1//EN" "http://www.w3.org/Graphics/SVG/1.1/DTD/svg11.dtd">
<svg version="1.1" id="Sprites_Sized_Down" xmlns="http://www.w3.org/2000/svg" xmlns:xlink="http://www.w3.org/1999/xlink" x="0px"
	 y="0px" width="1000px" height="500px" viewBox="0 0 1000 500" enable-background="new 0 0 1000 500" xml:space="preserve">
<g>
	<rect x="474.349" y="381.076" fill="#4C2605" stroke="#000000" stroke-miterlimit="10" width="51.305" height="8.596"/>
	<rect x="474.349" y="401.17" fill="#4C2605" stroke="#000000" stroke-miterlimit="10" width="51.305" height="8.596"/>
	<rect x="474.349" y="421.266" fill="#4C2605" stroke="#000000" stroke-miterlimit="10" width="51.305" height="8.594"/>
	<rect x="474.349" y="441.357" fill="#4C2605" stroke="#000000" stroke-miterlimit="10" width="51.305" height="8.598"/>
	<rect x="474.349" y="461.453" fill="#4C2605" stroke="#000000" stroke-miterlimit="10" width="51.305" height="8.598"/>
	<rect x="474.35" y="360.98" fill="#4C2605" stroke="#000000" stroke-miterlimit="10" width="51.304" height="8.596"/>
	<rect x="474.35" y="340.885" fill="#4C2605" stroke="#000000" stroke-miterlimit="10" width="51.304" height="8.596"/>
	<rect x="474.35" y="320.791" fill="#4C2605" stroke="#000000" stroke-miterlimit="10" width="51.304" height="8.596"/>
	<rect x="474.35" y="300.695" fill="#4C2605" stroke="#000000" stroke-miterlimit="10" width="51.304" height="8.596"/>
	<rect x="474.35" y="280.601" fill="#4C2605" stroke="#000000" stroke-miterlimit="10" width="51.304" height="8.597"/>
	<rect x="474.35" y="260.506" fill="#4C2605" stroke="#000000" stroke-miterlimit="10" width="51.304" height="8.596"/>
	<rect x="474.35" y="240.413" fill="#4C2605" stroke="#000000" stroke-miterlimit="10" width="51.304" height="8.595"/>
	<rect x="474.35" y="220.317" fill="#4C2605" stroke="#000000" stroke-miterlimit="10" width="51.304" height="8.597"/>
	<rect x="474.35" y="200.223" fill="#4C2605" stroke="#000000" stroke-miterlimit="10" width="51.304" height="8.596"/>
	<rect x="474.35" y="180.128" fill="#4C2605" stroke="#000000" stroke-miterlimit="10" width="51.304" height="8.597"/>
	<rect x="474.35" y="180.128" fill="#4C2605" stroke="#000000" stroke-miterlimit="10" width="51.304" height="8.597"/>
	<path fill="#4C2605" stroke="#000000" stroke-miterlimit="10" d="M531.281,475.598c0,3.285-2.521,5.951-5.628,5.951l0,0
		c-3.108,0-5.629-2.666-5.629-5.951V170.282c0-3.287,2.521-5.95,5.629-5.95l0,0c3.107,0,5.628,2.663,5.628,5.95V475.598z"/>
	<path fill="#4C2605" stroke="#000000" stroke-miterlimit="10" d="M479.977,475.598c0,3.285-2.52,5.951-5.628,5.951l0,0
		c-3.108,0-5.628-2.666-5.628-5.951V170.282c0-3.287,2.52-5.95,5.628-5.95l0,0c3.108,0,5.628,2.663,5.628,5.95V475.598z"/>
</g>
</svg>
