<?xml version="1.0" encoding="utf-8"?>
<!-- Generator: Adobe Illustrator 16.0.0, SVG Export Plug-In . SVG Version: 6.00 Build 0)  -->
<!DOCTYPE svg PUBLIC "-//W3C//DTD SVG 1.1//EN" "http://www.w3.org/Graphics/SVG/1.1/DTD/svg11.dtd">
<svg version="1.1" id="Sprites_Sized_Down" xmlns="http://www.w3.org/2000/svg" xmlns:xlink="http://www.w3.org/1999/xlink" x="0px"
	 y="0px" width="1000px" height="500px" viewBox="0 0 1000 500" enable-background="new 0 0 1000 500" xml:space="preserve">
<g>
	<g>
		
			<rect x="514.894" y="31.354" transform="matrix(0.9966 -0.0826 0.0826 0.9966 -3.7698 42.9388)" fill="#513F30" width="3.811" height="71.305"/>
		<path d="M526.502,60.905l-20.565,1.818c-6.387,0.531-11.994-4.217-12.525-10.603c-0.53-6.387,4.218-11.995,10.604-12.526
			l20.566-1.818L526.502,60.905z"/>
		<circle fill="#383838" cx="525.541" cy="49.339" r="11.604"/>
	</g>
	<g>
		
			<line fill="none" stroke="#000000" stroke-width="2" stroke-linecap="round" stroke-miterlimit="10" x1="500.233" y1="69.052" x2="500.233" y2="119.394"/>
		<polyline fill="none" stroke="#000000" stroke-width="2" stroke-linecap="round" stroke-miterlimit="10" points="509.937,152.268 
			505.739,119.394 494.516,119.394 491.816,152.268 		"/>
		<polyline fill="none" stroke="#000000" stroke-width="2" stroke-linecap="round" stroke-miterlimit="10" points="523.102,71.433 
			527.231,92.714 508.88,86.204 491.181,86.204 496.422,103.99 514.685,96.049 		"/>
		<ellipse id="Right_Hand_2_" fill="#FFFFFF" cx="520.402" cy="96.049" rx="5.717" ry="3.335"/>
		<ellipse id="Left_Hand_2_" fill="#FFFFFF" cx="517.861" cy="71.433" rx="5.241" ry="2.382"/>
		<ellipse fill="#FFFFFF" cx="485.755" cy="152.798" rx="7.385" ry="1.905"/>
		<ellipse fill="#FFFFFF" cx="516.104" cy="152.798" rx="7.384" ry="1.905"/>
		<circle id="Head_6_" fill="#FFFFFF" cx="500.233" cy="69.052" r="14.77"/>
	</g>
</g>
</svg>
