<svg xmlns="http://www.w3.org/2000/svg" xmlns:xlink="http://www.w3.org/1999/xlink" width="1000" height="500" viewBox="0 0 1000 500"><defs><style>.\32 2164010-a095-448d-8d73-1e294cd7473f,.\36 ea1b327-b6d1-47db-b64b-56f4a187981d{fill:none;}.\34 5eb028a-3bbe-4141-9c12-d1b3f54f255f,.\38 51b05d6-5298-43a6-bd3a-1dbb2f892610{fill:#4c2605;}.\34 5eb028a-3bbe-4141-9c12-d1b3f54f255f,.\36 ea1b327-b6d1-47db-b64b-56f4a187981d,.d853734a-49a3-48c9-9a57-5fb2ad2b966c{stroke:#000;}.\34 5eb028a-3bbe-4141-9c12-d1b3f54f255f,.\36 ea1b327-b6d1-47db-b64b-56f4a187981d,.d853734a-49a3-48c9-9a57-5fb2ad2b966c,.f07682d4-44f2-44b7-aba3-5e1b79bf2c82{stroke-miterlimit:10;}.\37 5accf3f-5093-4251-b4ec-4261505f1bf9{fill:#9b9b9b;}.\36 03ef4a0-0b44-47e6-9a77-40439e12e28e{fill:#727272;}.\38 f0409b6-5131-4d43-9376-e673e1ca7333{fill:#b5b5b5;}.\34 9ad9be7-a178-467d-af1e-86aad5f34006{clip-path:url(#83552437-e2bd-43e9-b2db-933f5511e1a5);}.d853734a-49a3-48c9-9a57-5fb2ad2b966c,.f5746160-a437-4a7d-9468-0aa458354504{fill:#fff;}.\39 222ed36-2ce4-44a6-b7c6-ec738954eb8e{fill:#606060;}.\36 ea1b327-b6d1-47db-b64b-56f4a187981d{stroke-linecap:round;stroke-width:2px;}.b964c84a-04ca-48db-85cf-e492bad48fb3{fill:#513f30;}.f07682d4-44f2-44b7-aba3-5e1b79bf2c82{stroke:#b70000;stroke-width:3px;fill:url(#9491d19d-9c79-4ea9-9f94-fe70c0fc0424);}.bd38f021-dc36-45b8-9b5e-5c18f89ed6c0{font-size:15px;}.\37 26009bb-02a9-42a2-8e8e-467e07bad487,.bd38f021-dc36-45b8-9b5e-5c18f89ed6c0{fill:#666;font-family:LondrinaSolid-Regular, Londrina Solid;}.d3a7be36-7dc0-4cd8-95d1-9688ef45ece5{font-size:20px;}.\37 26009bb-02a9-42a2-8e8e-467e07bad487{font-size:17px;}.e872055f-52a5-45e6-ae7d-4a9dcc11fa7e{letter-spacing:-0.01em;}.\33 d5a75ad-5d2f-4110-b83b-c8bfa7ed306b{letter-spacing:0em;}.\30 8578f98-1097-4e21-8b74-74eb6fd19b52{letter-spacing:-0.01em;}.e7035c89-560c-4cf5-871b-e643e77e99dd{letter-spacing:-0.01em;}.cb252650-133f-4706-bffa-832f4d5dc194{letter-spacing:-0.05em;}.\37 5542c0e-97f8-47b1-a1e3-5abf7f57b6af{letter-spacing:-0.01em;}.\38 9a49580-02ef-4856-bd97-75d77e502050{letter-spacing:0em;}.b1a1808b-646b-4b58-8c11-4a0240c17961{letter-spacing:-0.01em;}.\38 3c429c2-dbbb-47f9-8bb4-10a93ad478a7{letter-spacing:0em;}.\34 377c171-8239-4ecc-8fc0-c9d2ec007c95{letter-spacing:-0.02em;}.ba907b76-9170-4e7e-bffd-d6dd8dd075c6{letter-spacing:-0.01em;}.d78720e9-4faf-4fb2-8726-6b333080b865{letter-spacing:-0.02em;}</style><clipPath id="83552437-e2bd-43e9-b2db-933f5511e1a5"><ellipse class="22164010-a095-448d-8d73-1e294cd7473f" cx="726.67" cy="318.61" rx="7.08" ry="3.84"/></clipPath><radialGradient id="9491d19d-9c79-4ea9-9f94-fe70c0fc0424" cx="408.49" cy="-772.21" r="10.6" gradientTransform="matrix(0.04, 1.29, -1.31, 0.03, -299.65, -222.11)" gradientUnits="userSpaceOnUse"><stop offset="0" stop-color="#fff"/><stop offset="0.4" stop-color="#ff9300"/><stop offset="0.68" stop-color="red"/></radialGradient></defs><title>inst4</title><g id="71017d22-62ee-4bf7-8dd7-21281fd24b97" data-name="Layer 8"><rect class="45eb028a-3bbe-4141-9c12-d1b3f54f255f" x="722.55" y="320.16" width="11.76" height="1.97"/><rect class="45eb028a-3bbe-4141-9c12-d1b3f54f255f" x="722.55" y="324.77" width="11.76" height="1.97"/><rect class="45eb028a-3bbe-4141-9c12-d1b3f54f255f" x="722.55" y="329.37" width="11.76" height="1.97"/><rect class="45eb028a-3bbe-4141-9c12-d1b3f54f255f" x="722.55" y="333.98" width="11.76" height="1.97"/><rect class="45eb028a-3bbe-4141-9c12-d1b3f54f255f" x="722.55" y="338.59" width="11.76" height="1.97"/><rect class="45eb028a-3bbe-4141-9c12-d1b3f54f255f" x="722.55" y="343.19" width="11.76" height="1.97"/><rect class="45eb028a-3bbe-4141-9c12-d1b3f54f255f" x="722.55" y="347.8" width="11.76" height="1.97"/><rect class="45eb028a-3bbe-4141-9c12-d1b3f54f255f" x="722.55" y="352.41" width="11.76" height="1.97"/><rect class="45eb028a-3bbe-4141-9c12-d1b3f54f255f" x="722.55" y="315.55" width="11.76" height="1.97"/><rect class="45eb028a-3bbe-4141-9c12-d1b3f54f255f" x="722.55" y="310.95" width="11.76" height="1.97"/><rect class="45eb028a-3bbe-4141-9c12-d1b3f54f255f" x="722.55" y="306.34" width="11.76" height="1.97"/><rect class="45eb028a-3bbe-4141-9c12-d1b3f54f255f" x="722.55" y="301.73" width="11.76" height="1.97"/><rect class="45eb028a-3bbe-4141-9c12-d1b3f54f255f" x="722.55" y="297.12" width="11.76" height="1.97"/><rect class="45eb028a-3bbe-4141-9c12-d1b3f54f255f" x="722.55" y="292.52" width="11.76" height="1.97"/><rect class="45eb028a-3bbe-4141-9c12-d1b3f54f255f" x="722.55" y="287.91" width="11.76" height="1.97"/><rect class="45eb028a-3bbe-4141-9c12-d1b3f54f255f" x="722.55" y="283.3" width="11.76" height="1.97"/><rect class="45eb028a-3bbe-4141-9c12-d1b3f54f255f" x="722.55" y="278.7" width="11.76" height="1.97"/><rect class="45eb028a-3bbe-4141-9c12-d1b3f54f255f" x="722.55" y="274.09" width="11.76" height="1.97"/><rect class="45eb028a-3bbe-4141-9c12-d1b3f54f255f" x="722.55" y="274.09" width="11.76" height="1.97"/><path class="851b05d6-5298-43a6-bd3a-1dbb2f892610" d="M734.31,357.58a1.22,1.22,0,0,1-1.17-1.25v-84.5a1.18,1.18,0,1,1,2.35,0v84.5A1.22,1.22,0,0,1,734.31,357.58Z"/><path d="M734.31,270.7a1.1,1.1,0,0,1,1.06,1.13v84.5a1.06,1.06,0,1,1-2.12,0v-84.5a1.1,1.1,0,0,1,1.06-1.13m0-.23a1.33,1.33,0,0,0-1.29,1.36v84.5a1.29,1.29,0,1,0,2.58,0v-84.5a1.32,1.32,0,0,0-1.29-1.36Z"/><path class="851b05d6-5298-43a6-bd3a-1dbb2f892610" d="M722.55,357.58a1.21,1.21,0,0,1-1.17-1.25v-84.5a1.18,1.18,0,1,1,2.35,0v84.5A1.22,1.22,0,0,1,722.55,357.58Z"/><path d="M722.55,270.7a1.1,1.1,0,0,1,1.06,1.13v84.5a1.06,1.06,0,1,1-2.12,0v-84.5a1.1,1.1,0,0,1,1.06-1.13m0-.23a1.33,1.33,0,0,0-1.29,1.36v84.5a1.29,1.29,0,1,0,2.58,0v-84.5a1.33,1.33,0,0,0-1.29-1.36Z"/><rect class="851b05d6-5298-43a6-bd3a-1dbb2f892610" x="694.04" y="265.97" width="68.57" height="6.5"/><path d="M762.57,266.15v6.14H694.08v-6.14h68.49m.08-.36H694v6.85h68.65v-6.85Z"/><path id="64279322-09da-489b-b4a7-bd127bd10aac" data-name="Left Arm" class="75accf3f-5093-4251-b4ec-4261505f1bf9" d="M724.46,320.72l-1.07,1.15s-3.46-3.75-3.8-5.22c0-1.51,1.66-5.34,1.66-5.34s.12-1.06-.36-1.45a1.93,1.93,0,0,1-.48-2.64c.09,1.54,1.06,1.74,1.06,1.74a2,2,0,0,1,1.38-2.95,3.55,3.55,0,0,0-.34,2.92s.35-3.28,2.58-2.6a2.69,2.69,0,0,0-1,3.48s.82.27,2.11-1.12c-.07,1.09-1,1.92-2.42,2.28a4.53,4.53,0,0,0-1.15.51c-.55,1-.74,3.62-1.46,5.17A33.91,33.91,0,0,0,724.46,320.72Z"/><path id="84330961-fa1e-4ad2-af1a-90f4cd61cdc6" data-name="Right Arm" class="75accf3f-5093-4251-b4ec-4261505f1bf9" d="M728.19,320.72l-.4,1.69s4.6,3,7.36,3.21a8.36,8.36,0,0,0,3.13-4.64,8.16,8.16,0,0,0,1.31-1.25,3.31,3.31,0,0,0,.1-3.11,3.61,3.61,0,0,1-1.14,2.16s.82-2.21-.63-3.3a4.27,4.27,0,0,1-.44,2.86,2.26,2.26,0,0,0-1.69-2.86c1.62,2.08.43,3.56.43,3.56s-.85-.05-1.59-1.92a2.46,2.46,0,0,0,1.25,2.95,4.17,4.17,0,0,1,1.16.65c.14.81-1.4,1.72-2,3C733.14,323.54,728.19,320.72,728.19,320.72Z"/><g id="1a653975-5f8e-429a-99ce-08274b4a767b" data-name="Left Leg"><path id="0eccd9d2-3c57-45e7-a105-7d85a002d8e5" data-name="Left Leg" class="603ef4a0-0b44-47e6-9a77-40439e12e28e" d="M722.8,338.77l-1.71-.13c.4-1.58-.16-2.7.1-4.4,1.18-3.2,2.43-4,2.43-4l.84.72a16.7,16.7,0,0,0-2,3.55A11.25,11.25,0,0,0,722.8,338.77Z"/><path class="603ef4a0-0b44-47e6-9a77-40439e12e28e" d="M723.11,338.87c0,.27-.35.49-1.41.49s-1.94-.2-1.94-.49c0-.54.87-1,1.94-1S723.11,338.33,723.11,338.87Z"/></g><g id="fcdba33b-b7e6-46f7-9f02-e6a830115dea" data-name="Right Leg"><path id="c71c26d6-c23f-48de-8289-bef1257e7193" data-name="Left Leg" class="75accf3f-5093-4251-b4ec-4261505f1bf9" d="M730,334.57l2,.14c-.85-1.56.44-4.92,0-6.36-.95-.31-4.62,2.78-4.62,2.78v1.13s2.4-2.08,3.35-2C731,330.8,730,334.57,730,334.57Z"/><path class="75accf3f-5093-4251-b4ec-4261505f1bf9" d="M729.71,334.76c0,.27.35.49,1.41.49s1.94-.21,1.94-.49c0-.55-.87-1-1.94-1S729.71,334.21,729.71,334.76Z"/><path id="62fa1c7a-a7ef-4007-966b-40db56354f05" data-name="Left Leg" class="603ef4a0-0b44-47e6-9a77-40439e12e28e" d="M730,334.57l2,.14c-.85-1.56.44-4.92,0-6.36-.95-.31-4.62,2.78-4.62,2.78v1.13s2.4-2.08,3.35-2C731,330.8,730,334.57,730,334.57Z"/><path class="603ef4a0-0b44-47e6-9a77-40439e12e28e" d="M729.71,334.76c0,.27.35.49,1.41.49s1.94-.21,1.94-.49c0-.55-.87-1-1.94-1S729.71,334.21,729.71,334.76Z"/></g><ellipse id="34c45095-bbe1-4c91-b016-ecc0594507cd" data-name="Body" class="75accf3f-5093-4251-b4ec-4261505f1bf9" cx="726.67" cy="326.25" rx="4.16" ry="6.67"/><path id="925d36bd-fd1f-44a5-a62c-84c77bc7b468" data-name="Tail" class="75accf3f-5093-4251-b4ec-4261505f1bf9" d="M727.33,339.44l1.13-.07-.76,2.51-2.82-2.26,1.41-.12c-1.69-4-.11-5.12-.85-7.95l2.49-.62A10.05,10.05,0,0,0,727.33,339.44Z"/><g id="884b2d42-5da3-46a9-8a3a-7b72b221a476" data-name="Head"><ellipse id="63cef715-37ca-4957-91ae-b3d3030613cd" data-name="Head" class="8f0409b6-5131-4d43-9376-e673e1ca7333" cx="726.67" cy="318.61" rx="7.08" ry="3.84"/><g class="49ad9be7-a178-467d-af1e-86aad5f34006"><path class="f5746160-a437-4a7d-9468-0aa458354504" d="M722.27,314.68l3.25.14a8.58,8.58,0,0,0-2.73,2.22A2.77,2.77,0,0,1,722.27,314.68Z"/></g><g class="49ad9be7-a178-467d-af1e-86aad5f34006"><ellipse cx="723.58" cy="315.09" rx="0.69" ry="0.62"/></g><g class="49ad9be7-a178-467d-af1e-86aad5f34006"><path class="f5746160-a437-4a7d-9468-0aa458354504" d="M731.07,314.68l-3.25.14a8.7,8.7,0,0,1,2.73,2.22A2.77,2.77,0,0,0,731.07,314.68Z"/></g><g class="49ad9be7-a178-467d-af1e-86aad5f34006"><ellipse cx="729.75" cy="315.09" rx="0.69" ry="0.62"/></g></g><path id="7ec0cc2d-e973-4d21-b054-b61b4cf5ac59" data-name="Left Horn" class="9222ed36-2ce4-44a6-b7c6-ec738954eb8e" d="M722.2,317.56c-1.53,0-5.52,2.82-.63,6.31-.72-3.07,1.09-3.87,2.08-4.18A2.18,2.18,0,0,0,722.2,317.56Z"/><path class="9222ed36-2ce4-44a6-b7c6-ec738954eb8e" d="M731.14,317.56c1.53,0,5.52,2.82.63,6.31.72-3.07-1.09-3.87-2.08-4.18A2.17,2.17,0,0,1,731.14,317.56Z"/><line class="6ea1b327-b6d1-47db-b64b-56f4a187981d" x1="728.11" y1="233.67" x2="728.11" y2="248.69"/><polyline class="6ea1b327-b6d1-47db-b64b-56f4a187981d" points="740.14 253.85 730.55 248.69 725.67 248.69 716.02 253.35"/><polyline class="6ea1b327-b6d1-47db-b64b-56f4a187981d" points="728.11 258.83 731.61 248.23 733.61 240.25 723.42 240.25 724.49 248.17 728.11 258.83"/><ellipse class="d853734a-49a3-48c9-9a57-5fb2ad2b966c" cx="714.17" cy="251.9" rx="0.73" ry="2.83" transform="translate(30.05 576.67) rotate(-44.82)"/><ellipse class="d853734a-49a3-48c9-9a57-5fb2ad2b966c" cx="741.87" cy="252.33" rx="2.83" ry="0.73" transform="translate(39.98 600.74) rotate(-45.18)"/><ellipse id="19a5941f-bb5a-4cf5-951e-a2505cb89227" data-name="Head" class="d853734a-49a3-48c9-9a57-5fb2ad2b966c" cx="728.11" cy="233.67" rx="5.63" ry="5.67"/><rect x="723.68" y="251.26" width="8.86" height="15.15"/><ellipse class="b964c84a-04ca-48db-85cf-e492bad48fb3" cx="728.11" cy="258.83" rx="0.73" ry="0.73"/><path class="f07682d4-44f2-44b7-aba3-5e1b79bf2c82" d="M736.64,270.58c-2.42,9.81-6.42,12.68-9.07,12.68s-5.06-4.29-8.06-13.75l3.7,3.38.62-3.56,1.85,3.3.75-4.07,1.14,3.82,1.37-3.82.52,3.17,2.43-2.87v3.69l2.64-2.74-.75,3.12Z"/></g><g id="76e7bebc-26bc-42a2-bf28-448e5d04d934" data-name="space bar"><text class="bd38f021-dc36-45b8-9b5e-5c18f89ed6c0" transform="translate(429 374.78)">.<tspan class="d3a7be36-7dc0-4cd8-95d1-9688ef45ece5" x="2.83" y="0"> </tspan></text><text class="726009bb-02a9-42a2-8e8e-467e07bad487" transform="translate(583 381)"><tspan class="e872055f-52a5-45e6-ae7d-4a9dcc11fa7e">E</tspan><tspan class="3d5a75ad-5d2f-4110-b83b-c8bfa7ed306b" x="7.97" y="0">ach ladde</tspan><tspan class="08578f98-1097-4e21-8b74-74eb6fd19b52" x="69.48" y="0">r</tspan><tspan x="75.51" y="0" xml:space="preserve"> has a corresponding bomb placed ab</tspan><tspan class="e7035c89-560c-4cf5-871b-e643e77e99dd" x="313.75" y="0">ov</tspan><tspan x="328.21" y="0">e.</tspan><tspan x="0" y="20.4">Press [S</tspan><tspan class="cb252650-133f-4706-bffa-832f4d5dc194" x="54.65" y="20.4">P</tspan><tspan class="75542c0e-97f8-47b1-a1e3-5abf7f57b6af" x="62.3" y="20.4">A</tspan><tspan x="69.53" y="20.4">CE </tspan><tspan class="89a49580-02ef-4856-bd97-75d77e502050" x="89.4" y="20.4">B</tspan><tspan x="97.43" y="20.4">AR]</tspan><tspan class="b1a1808b-646b-4b58-8c11-4a0240c17961" x="119.07" y="20.4"> </tspan><tspan x="122.23" y="20.4">to smash</tspan><tspan class="b1a1808b-646b-4b58-8c11-4a0240c17961" x="182.46" y="20.4"> </tspan><tspan class="83c429c2-dbbb-47f9-8bb4-10a93ad478a7" x="185.62" y="20.4">the bombs d</tspan><tspan class="e7035c89-560c-4cf5-871b-e643e77e99dd" x="264.7" y="20.4">o</tspan><tspan x="272.1" y="20.4">wn</tspan><tspan class="b1a1808b-646b-4b58-8c11-4a0240c17961" x="291.36" y="20.4"> </tspan><tspan x="294.52" y="20.4">the ladders.</tspan><tspan x="0" y="40.8">Bombs</tspan><tspan class="4377c171-8239-4ecc-8fc0-c9d2ec007c95" x="42.89" y="40.8"> </tspan><tspan x="46" y="40.8">will regenerate in</tspan><tspan class="ba907b76-9170-4e7e-bffd-d6dd8dd075c6" x="159.07" y="40.8"> </tspan><tspan x="162.26" y="40.8">f</tspan><tspan class="08578f98-1097-4e21-8b74-74eb6fd19b52" x="168.71" y="40.8">e</tspan><tspan class="d78720e9-4faf-4fb2-8726-6b333080b865" x="176.03" y="40.8">w</tspan><tspan x="187.34" y="40.8" xml:space="preserve"> seconds afte</tspan><tspan class="08578f98-1097-4e21-8b74-74eb6fd19b52" x="276.3" y="40.8">r</tspan><tspan x="282.33" y="40.8" xml:space="preserve"> being </tspan><tspan x="0" y="61.2">smashed.</tspan></text></g></svg>