<svg xmlns="http://www.w3.org/2000/svg" width="1000" height="500" viewBox="0 0 1000 500"><defs><style>.\33 a0c374b-4b51-4a55-815b-8c06bf1db550{fill:#ef4b53;}.\37 b9632d2-9278-4f7c-badf-4a43d246da82{fill:#f47682;}.f318d71a-16d2-40d2-bebb-fef9144f9978{font-size:15px;fill:#666;font-family:LondrinaSolid-Regular, Londrina Solid;}.\35 d2524b4-e187-4289-a01e-c5048a27c27f{letter-spacing:-0.06em;}.b8bfd2d2-b288-4057-9343-cc4611e9f39d{letter-spacing:0em;}.\35 995240f-544b-4499-813a-6e96a377a27c{letter-spacing:-0.01em;}.e4ed98a2-22f1-4793-914e-33ca95e1baa6{letter-spacing:-0.01em;}.e14f5966-aa9a-480e-b443-48b6af421e7b{letter-spacing:-0.01em;}.ca03b02e-00aa-4cbc-b2cc-7c2ee2528780{letter-spacing:-0.02em;}.de9a5db9-1991-47bc-99d8-639f946b0433{letter-spacing:-0.04em;}.\36 2a43cd2-a53f-43c0-9068-04bb38dd9516{letter-spacing:-0.02em;}.\37 541df4b-045b-4c3f-8548-cab14d230796{letter-spacing:-0.01em;}.a761f3c2-e39f-48d5-9b26-5993f442b445{letter-spacing:0em;}.\36 65de51e-768e-4d6b-b8a4-d59b7a1ce073{letter-spacing:-0.01em;}.\31 3cb2939-ec98-4bbd-9877-ebe30b681110{letter-spacing:-0.02em;}.\30 dd40fb8-f00b-48e7-b75c-2b9608bbf39d{letter-spacing:-0.01em;}.de5cf80e-b3a8-494a-b0f2-b3d8222094e5{letter-spacing:-0.02em;}.f7ec8a67-0281-4b9a-be38-5b3fa80833dc{letter-spacing:-0.02em;}.\34 5d6aabe-3abb-40c6-8b9b-37144e193998{letter-spacing:0em;}.\39 7f1c11d-5f1b-4444-a814-c8008e7e3dfd{letter-spacing:-0.02em;}.cd72dd5f-b0d4-485a-b5d7-0134863732e7{letter-spacing:-0.01em;}.a3526eb4-d255-4f5e-a796-15b2d70997fa{letter-spacing:0em;}</style></defs><title>inst-02</title><g id="a30bcdfe-6a2c-4225-b95e-16f86b9b8daf" data-name="LIVES and TIMER"><g id="c36dce3d-c7e7-486b-b409-09621ec65c6f" data-name="Icons"><g id="2cca4ac9-8cb3-4856-adae-a7d8ca5e7e7f" data-name="Icons"><path class="3a0c374b-4b51-4a55-815b-8c06bf1db550" d="M247.48,315.71l.76-.75a7.6,7.6,0,0,0-10.74-10.75l-.76.77-.76-.77A7.6,7.6,0,0,0,225.24,315l.76.75,10.35,10.36a.56.56,0,0,0,.78,0l10.35-10.36"/></g><path class="7b9632d2-9278-4f7c-badf-4a43d246da82" d="M231.06,303.35s-6.34-.5-7,6.69a6.93,6.93,0,0,1,7.19-5s1.46.14,1.46-.77S231.06,303.35,231.06,303.35Z"/></g><g id="d65a8c36-fcc5-473b-89d1-9aee529e62d6" data-name="Icons"><g id="30a5587a-dbb3-4db5-896e-bd4171a61e7c" data-name="Icons"><path class="3a0c374b-4b51-4a55-815b-8c06bf1db550" d="M278.48,315.71l.76-.75a7.6,7.6,0,0,0-10.74-10.75l-.76.77-.76-.77A7.6,7.6,0,0,0,256.24,315l.76.75,10.35,10.36a.56.56,0,0,0,.78,0l10.35-10.36"/></g><path class="7b9632d2-9278-4f7c-badf-4a43d246da82" d="M262.06,303.35s-6.34-.5-7,6.69a6.93,6.93,0,0,1,7.19-5s1.46.14,1.46-.77S262.06,303.35,262.06,303.35Z"/></g><g id="ccc822cd-e98c-4752-ab39-3d7454ba8d86" data-name="Icons"><g id="fcd903c9-cfac-487a-bb8e-29d799a57e11" data-name="Icons"><path class="3a0c374b-4b51-4a55-815b-8c06bf1db550" d="M309.48,315.71l.76-.75a7.6,7.6,0,0,0-10.74-10.75l-.76.77-.76-.77A7.6,7.6,0,0,0,287.24,315l.76.75,10.35,10.36a.56.56,0,0,0,.78,0l10.35-10.36"/></g><path class="7b9632d2-9278-4f7c-badf-4a43d246da82" d="M293.06,303.35s-6.34-.5-7,6.69a6.93,6.93,0,0,1,7.19-5s1.46.14,1.46-.77S293.06,303.35,293.06,303.35Z"/></g></g><g id="0001bd58-57a6-43c4-8f96-23b285d48702" data-name="Layer 17"><text class="f318d71a-16d2-40d2-bebb-fef9144f9978" transform="translate(72 351) scale(1.04 1)"><tspan class="5d2524b4-e187-4289-a01e-c5048a27c27f">Y</tspan><tspan class="b8bfd2d2-b288-4057-9343-cc4611e9f39d" x="5.56" y="0">ou</tspan><tspan class="5995240f-544b-4499-813a-6e96a377a27c" x="19.03" y="0">’</tspan><tspan class="b8bfd2d2-b288-4057-9343-cc4611e9f39d" x="21.97" y="0">re gi</tspan><tspan class="e4ed98a2-22f1-4793-914e-33ca95e1baa6" x="47.26" y="0">v</tspan><tspan x="53.5" y="0">en</tspan><tspan class="e14f5966-aa9a-480e-b443-48b6af421e7b" x="66.91" y="0"> </tspan><tspan x="69.7" y="0">three li</tspan><tspan class="e4ed98a2-22f1-4793-914e-33ca95e1baa6" x="110.26" y="0">v</tspan><tspan x="116.5" y="0">es.</tspan><tspan class="ca03b02e-00aa-4cbc-b2cc-7c2ee2528780" x="132.75" y="0"> </tspan><tspan class="de9a5db9-1991-47bc-99d8-639f946b0433" x="135.46" y="0">T</tspan><tspan x="141.45" y="0">r</tspan><tspan class="62a43cd2-a53f-43c0-9068-04bb38dd9516" x="146.97" y="0">y</tspan><tspan class="7541df4b-045b-4c3f-8548-cab14d230796" x="153.45" y="0"> </tspan><tspan class="a761f3c2-e39f-48d5-9b26-5993f442b445" x="156.24" y="0">to survi</tspan><tspan class="e4ed98a2-22f1-4793-914e-33ca95e1baa6" x="200.32" y="0">v</tspan><tspan x="206.56" y="0">e and kill as ma</tspan><tspan class="665de51e-768e-4d6b-b8a4-d59b7a1ce073" x="293.16" y="0">n</tspan><tspan class="62a43cd2-a53f-43c0-9068-04bb38dd9516" x="299.8" y="0">y</tspan><tspan x="306.28" y="0" xml:space="preserve"> monsters </tspan><tspan x="0" y="18">as</tspan><tspan class="13cb2939-ec98-4bbd-9877-ebe30b681110" x="13.89" y="18"> </tspan><tspan class="0dd40fb8-f00b-48e7-b75c-2b9608bbf39d" x="16.62" y="18">y</tspan><tspan class="b8bfd2d2-b288-4057-9343-cc4611e9f39d" x="23.17" y="18">ou can ‘til sunrise.</tspan><tspan class="de5cf80e-b3a8-494a-b0f2-b3d8222094e5" x="126.39" y="18"> </tspan><tspan class="a761f3c2-e39f-48d5-9b26-5993f442b445" x="129.1" y="18">The difficult</tspan><tspan class="f7ec8a67-0281-4b9a-be38-5b3fa80833dc" x="198.93" y="18">y</tspan><tspan x="205.41" y="18" xml:space="preserve"> increases as</tspan><tspan class="13cb2939-ec98-4bbd-9877-ebe30b681110" x="281.26" y="18"> </tspan><tspan class="0dd40fb8-f00b-48e7-b75c-2b9608bbf39d" x="283.99" y="18">y</tspan><tspan class="b8bfd2d2-b288-4057-9343-cc4611e9f39d" x="290.54" y="18">ou reach a </tspan><tspan x="0" y="36">cer</tspan><tspan class="45d6aabe-3abb-40c6-8b9b-37144e193998" x="18.81" y="36">t</tspan><tspan class="b8bfd2d2-b288-4057-9343-cc4611e9f39d" x="24.55" y="36">ain point in</tspan><tspan class="7541df4b-045b-4c3f-8548-cab14d230796" x="86.74" y="36"> </tspan><tspan class="a761f3c2-e39f-48d5-9b26-5993f442b445" x="89.53" y="36">the game. So b</tspan><tspan class="e4ed98a2-22f1-4793-914e-33ca95e1baa6" x="172.57" y="36">e</tspan><tspan class="97f1c11d-5f1b-4444-a814-c8008e7e3dfd" x="179.04" y="36">w</tspan><tspan class="b8bfd2d2-b288-4057-9343-cc4611e9f39d" x="189.04" y="36">are o</tspan><tspan class="cd72dd5f-b0d4-485a-b5d7-0134863732e7" x="218.08" y="36">f</tspan><tspan class="e14f5966-aa9a-480e-b443-48b6af421e7b" x="223.57" y="36"> </tspan><tspan x="226.36" y="36">the rising monsters and </tspan><tspan x="0" y="54">pr</tspan><tspan class="a3526eb4-d255-4f5e-a796-15b2d70997fa" x="12.48" y="54">o</tspan><tspan x="19.12" y="54">tect</tspan><tspan class="e14f5966-aa9a-480e-b443-48b6af421e7b" x="44.02" y="54"> </tspan><tspan x="46.81" y="54">these li</tspan><tspan class="e4ed98a2-22f1-4793-914e-33ca95e1baa6" x="88.6" y="54">v</tspan><tspan class="b8bfd2d2-b288-4057-9343-cc4611e9f39d" x="94.84" y="54">es!</tspan></text></g></svg>