<svg xmlns="http://www.w3.org/2000/svg" xmlns:xlink="http://www.w3.org/1999/xlink" width="1000" height="500" viewBox="0 0 1000 500"><defs><style>.\34 76802c7-bcfe-4103-b52f-a7a9aeb93a0e,.\39 3f9c9b1-002f-454d-b13c-f2e5d5f15062{fill:none;}.\33 b3a44aa-4845-46cf-8918-03f4d3aff0b2,.\34 b8edde5-5f40-452c-850b-e259cea21f16{fill:#4c2605;}.\31 e9b0b51-f30e-4986-926e-1152682f104d,.\34 b8edde5-5f40-452c-850b-e259cea21f16,.\39 3f9c9b1-002f-454d-b13c-f2e5d5f15062{stroke:#000;}.\31 e9b0b51-f30e-4986-926e-1152682f104d,.\34 b8edde5-5f40-452c-850b-e259cea21f16,.\37 a703bc2-f18b-4ce9-a001-7fd53a285bc3,.\39 3f9c9b1-002f-454d-b13c-f2e5d5f15062{stroke-miterlimit:10;}.fc8533a6-c54c-4d11-97c4-d749ea91dfed{fill:#9b9b9b;}.\31 97a88c7-8dc8-446a-b423-48ec4b3e7d58{fill:#727272;}.\34 8fe7b3d-63a5-47e1-94e7-8fed755a35f6{fill:#b5b5b5;}.\38 45ee0e1-accf-4d57-8bae-2bb0856dc690{clip-path:url(#889924d2-39fa-4066-9627-e7e56a2db8dc);}.\31 e9b0b51-f30e-4986-926e-1152682f104d,.b9b472a6-ec2a-4908-8f28-cbdab273d30d{fill:#fff;}.\31 96a5af6-023a-4ee1-9bcd-7665fe9df3ee{fill:#606060;}.\39 3f9c9b1-002f-454d-b13c-f2e5d5f15062{stroke-linecap:round;stroke-width:2px;}.\33 01c18b0-b54a-45ab-b255-2f4c2bac4883{fill:#513f30;}.\37 a703bc2-f18b-4ce9-a001-7fd53a285bc3{stroke:#b70000;stroke-width:3px;fill:url(#7af9e036-71c4-46ae-8f02-9e0f5116268e);}.\37 d638a15-09b9-43a9-826f-83161a5329c1{font-size:15px;fill:#666;font-family:LondrinaSolid-Regular, Londrina Solid;}.\35 8ac5635-3652-47bb-86a4-b22bfcf09e5c{letter-spacing:-0.01em;}.\33 cd7dd4c-dfd2-4a0d-9b56-43617a8995e1{letter-spacing:0em;}.b389c966-023b-4232-aba0-1ec5d177ab21{letter-spacing:-0.01em;}.\37 e209e33-6bea-4647-88cc-a211f1ebae07{letter-spacing:-0.01em;}.fd5f20e9-72d5-422e-a78c-34673c0bffe0{letter-spacing:-0.01em;}.\34 557c75a-0388-45bd-ac2b-422ef19fc80e{letter-spacing:0em;}.\35 e63526b-90ca-4f5f-ae70-82e6ea3a8a61{letter-spacing:-0.05em;}.ce680897-a635-4bcb-a9e2-a8bc11728067{letter-spacing:-0.01em;}.\34 0d0af40-1f53-4d34-8b3c-d27b6ed5a4ee{letter-spacing:0em;}.\38 552c993-2bad-4431-a3ce-616a43bd1b6c{letter-spacing:-0.02em;}.\35 c73c423-3986-4012-ac5e-0ee1269689ee{letter-spacing:-0.01em;}.\35 9e1a362-1106-43c7-b666-93ae4c808ef1{letter-spacing:-0.01em;}.\30 8ac35ba-0846-4cd8-83f2-38d6eb043dc0{letter-spacing:0em;}.\36 c9c2cb1-af40-4b00-b248-297c5511e8ae{letter-spacing:-0.05em;}.\38 940da1a-dd20-4806-b7ea-aecd973886d8{letter-spacing:-0.03em;}.bdb36865-e290-447e-bc3e-8ac4a37816bc{letter-spacing:-0.01em;}.\30 ccd32e0-9014-4998-b12a-e4d8ec73a932{letter-spacing:-0.02em;}</style><clipPath id="889924d2-39fa-4066-9627-e7e56a2db8dc"><ellipse class="476802c7-bcfe-4103-b52f-a7a9aeb93a0e" cx="526.67" cy="366.61" rx="7.08" ry="3.84"/></clipPath><radialGradient id="7af9e036-71c4-46ae-8f02-9e0f5116268e" cx="441.72" cy="-618.91" r="10.6" gradientTransform="matrix(0.04, 1.29, -1.31, 0.03, -299.65, -222.11)" gradientUnits="userSpaceOnUse"><stop offset="0" stop-color="#fff"/><stop offset="0.4" stop-color="#ff9300"/><stop offset="0.68" stop-color="red"/></radialGradient></defs><title>inst-04</title><g id="79a9e192-8f11-4dd2-a481-459121212b60" data-name="Layer 8"><rect class="4b8edde5-5f40-452c-850b-e259cea21f16" x="522.55" y="368.16" width="11.76" height="1.97"/><rect class="4b8edde5-5f40-452c-850b-e259cea21f16" x="522.55" y="372.77" width="11.76" height="1.97"/><rect class="4b8edde5-5f40-452c-850b-e259cea21f16" x="522.55" y="377.37" width="11.76" height="1.97"/><rect class="4b8edde5-5f40-452c-850b-e259cea21f16" x="522.55" y="381.98" width="11.76" height="1.97"/><rect class="4b8edde5-5f40-452c-850b-e259cea21f16" x="522.55" y="386.59" width="11.76" height="1.97"/><rect class="4b8edde5-5f40-452c-850b-e259cea21f16" x="522.55" y="391.19" width="11.76" height="1.97"/><rect class="4b8edde5-5f40-452c-850b-e259cea21f16" x="522.55" y="395.8" width="11.76" height="1.97"/><rect class="4b8edde5-5f40-452c-850b-e259cea21f16" x="522.55" y="400.41" width="11.76" height="1.97"/><rect class="4b8edde5-5f40-452c-850b-e259cea21f16" x="522.55" y="363.55" width="11.76" height="1.97"/><rect class="4b8edde5-5f40-452c-850b-e259cea21f16" x="522.55" y="358.95" width="11.76" height="1.97"/><rect class="4b8edde5-5f40-452c-850b-e259cea21f16" x="522.55" y="354.34" width="11.76" height="1.97"/><rect class="4b8edde5-5f40-452c-850b-e259cea21f16" x="522.55" y="349.73" width="11.76" height="1.97"/><rect class="4b8edde5-5f40-452c-850b-e259cea21f16" x="522.55" y="345.12" width="11.76" height="1.97"/><rect class="4b8edde5-5f40-452c-850b-e259cea21f16" x="522.55" y="340.52" width="11.76" height="1.97"/><rect class="4b8edde5-5f40-452c-850b-e259cea21f16" x="522.55" y="335.91" width="11.76" height="1.97"/><rect class="4b8edde5-5f40-452c-850b-e259cea21f16" x="522.55" y="331.3" width="11.76" height="1.97"/><rect class="4b8edde5-5f40-452c-850b-e259cea21f16" x="522.55" y="326.7" width="11.76" height="1.97"/><rect class="4b8edde5-5f40-452c-850b-e259cea21f16" x="522.55" y="322.09" width="11.76" height="1.97"/><rect class="4b8edde5-5f40-452c-850b-e259cea21f16" x="522.55" y="322.09" width="11.76" height="1.97"/><path class="3b3a44aa-4845-46cf-8918-03f4d3aff0b2" d="M534.31,405.58a1.22,1.22,0,0,1-1.17-1.25v-84.5a1.18,1.18,0,1,1,2.35,0v84.5A1.22,1.22,0,0,1,534.31,405.58Z"/><path d="M534.31,318.7a1.1,1.1,0,0,1,1.06,1.13v84.5a1.06,1.06,0,1,1-2.12,0v-84.5a1.1,1.1,0,0,1,1.06-1.13m0-.23a1.33,1.33,0,0,0-1.29,1.36v84.5a1.29,1.29,0,1,0,2.58,0v-84.5a1.32,1.32,0,0,0-1.29-1.36Z"/><path class="3b3a44aa-4845-46cf-8918-03f4d3aff0b2" d="M522.55,405.58a1.21,1.21,0,0,1-1.17-1.25v-84.5a1.18,1.18,0,1,1,2.35,0v84.5A1.22,1.22,0,0,1,522.55,405.58Z"/><path d="M522.55,318.7a1.1,1.1,0,0,1,1.06,1.13v84.5a1.06,1.06,0,1,1-2.12,0v-84.5a1.1,1.1,0,0,1,1.06-1.13m0-.23a1.33,1.33,0,0,0-1.29,1.36v84.5a1.29,1.29,0,1,0,2.58,0v-84.5a1.33,1.33,0,0,0-1.29-1.36Z"/><rect class="3b3a44aa-4845-46cf-8918-03f4d3aff0b2" x="494.04" y="313.97" width="68.57" height="6.5"/><path d="M562.57,314.15v6.14H494.08v-6.14h68.49m.08-.36H494v6.85h68.65v-6.85Z"/><path id="d02f95d1-7cc2-4f14-9263-c055f9546047" data-name="Left Arm" class="fc8533a6-c54c-4d11-97c4-d749ea91dfed" d="M524.46,368.72l-1.07,1.15s-3.46-3.75-3.8-5.22c0-1.51,1.66-5.34,1.66-5.34s.12-1.06-.36-1.45a1.93,1.93,0,0,1-.48-2.64c.09,1.54,1.06,1.74,1.06,1.74a2,2,0,0,1,1.38-2.95,3.55,3.55,0,0,0-.34,2.92s.35-3.28,2.58-2.6a2.69,2.69,0,0,0-1,3.48s.82.27,2.11-1.12c-.07,1.09-1,1.92-2.42,2.28a4.53,4.53,0,0,0-1.15.51c-.55,1-.74,3.62-1.46,5.17A33.91,33.91,0,0,0,524.46,368.72Z"/><path id="bb8d8aa2-2097-4bb5-9acb-164692d285bb" data-name="Right Arm" class="fc8533a6-c54c-4d11-97c4-d749ea91dfed" d="M528.19,368.72l-.4,1.69s4.6,3,7.36,3.21a8.36,8.36,0,0,0,3.13-4.64,8.16,8.16,0,0,0,1.31-1.25,3.31,3.31,0,0,0,.1-3.11,3.61,3.61,0,0,1-1.14,2.16s.82-2.21-.63-3.3a4.27,4.27,0,0,1-.44,2.86,2.26,2.26,0,0,0-1.69-2.86c1.62,2.08.43,3.56.43,3.56s-.85-.05-1.59-1.92a2.46,2.46,0,0,0,1.25,2.95,4.17,4.17,0,0,1,1.16.65c.14.81-1.4,1.72-2,3C533.14,371.54,528.19,368.72,528.19,368.72Z"/><g id="bfd99894-ba83-484f-b1ed-48173940c40c" data-name="Left Leg"><path id="83fa01d9-6dd2-400f-9254-031e25e9f501" data-name="Left Leg" class="197a88c7-8dc8-446a-b423-48ec4b3e7d58" d="M522.8,386.77l-1.71-.13c.4-1.58-.16-2.7.1-4.4,1.18-3.2,2.43-4,2.43-4l.84.72a16.7,16.7,0,0,0-2,3.55A11.25,11.25,0,0,0,522.8,386.77Z"/><path class="197a88c7-8dc8-446a-b423-48ec4b3e7d58" d="M523.11,386.87c0,.27-.35.49-1.41.49s-1.94-.2-1.94-.49c0-.54.87-1,1.94-1S523.11,386.33,523.11,386.87Z"/></g><g id="04402708-bb75-4af3-86b9-d1d305969c42" data-name="Right Leg"><path id="e1b9d62f-66b2-4f69-9c6c-bce87ae717a0" data-name="Left Leg" class="fc8533a6-c54c-4d11-97c4-d749ea91dfed" d="M530,382.57l2,.14c-.85-1.56.44-4.92,0-6.36-.95-.31-4.62,2.78-4.62,2.78v1.13s2.4-2.08,3.35-2C531,378.8,530,382.57,530,382.57Z"/><path class="fc8533a6-c54c-4d11-97c4-d749ea91dfed" d="M529.71,382.76c0,.27.35.49,1.41.49s1.94-.21,1.94-.49c0-.55-.87-1-1.94-1S529.71,382.21,529.71,382.76Z"/><path id="4a3df354-ba93-4387-8647-048362f562d9" data-name="Left Leg" class="197a88c7-8dc8-446a-b423-48ec4b3e7d58" d="M530,382.57l2,.14c-.85-1.56.44-4.92,0-6.36-.95-.31-4.62,2.78-4.62,2.78v1.13s2.4-2.08,3.35-2C531,378.8,530,382.57,530,382.57Z"/><path class="197a88c7-8dc8-446a-b423-48ec4b3e7d58" d="M529.71,382.76c0,.27.35.49,1.41.49s1.94-.21,1.94-.49c0-.55-.87-1-1.94-1S529.71,382.21,529.71,382.76Z"/></g><ellipse id="ff9133c9-c9a5-424e-b77f-422c7125f663" data-name="Body" class="fc8533a6-c54c-4d11-97c4-d749ea91dfed" cx="526.67" cy="374.25" rx="4.16" ry="6.67"/><path id="54f8c74a-72e9-4d10-9c34-148c9abd64b9" data-name="Tail" class="fc8533a6-c54c-4d11-97c4-d749ea91dfed" d="M527.33,387.44l1.13-.07-.76,2.51-2.82-2.26,1.41-.12c-1.69-4-.11-5.12-.85-7.95l2.49-.62A10.05,10.05,0,0,0,527.33,387.44Z"/><g id="7fc19d54-23b0-4e14-8944-6149cf31d85a" data-name="Head"><ellipse id="8da2a816-f8ec-4da1-99a1-c52c3eec91a0" data-name="Head" class="48fe7b3d-63a5-47e1-94e7-8fed755a35f6" cx="526.67" cy="366.61" rx="7.08" ry="3.84"/><g class="845ee0e1-accf-4d57-8bae-2bb0856dc690"><path class="b9b472a6-ec2a-4908-8f28-cbdab273d30d" d="M522.27,362.68l3.25.14a8.58,8.58,0,0,0-2.73,2.22A2.77,2.77,0,0,1,522.27,362.68Z"/></g><g class="845ee0e1-accf-4d57-8bae-2bb0856dc690"><ellipse cx="523.58" cy="363.09" rx="0.69" ry="0.62"/></g><g class="845ee0e1-accf-4d57-8bae-2bb0856dc690"><path class="b9b472a6-ec2a-4908-8f28-cbdab273d30d" d="M531.07,362.68l-3.25.14a8.7,8.7,0,0,1,2.73,2.22A2.77,2.77,0,0,0,531.07,362.68Z"/></g><g class="845ee0e1-accf-4d57-8bae-2bb0856dc690"><ellipse cx="529.75" cy="363.09" rx="0.69" ry="0.62"/></g></g><path id="d0cfa46e-572c-4b59-9c39-2cff1f50fe80" data-name="Left Horn" class="196a5af6-023a-4ee1-9bcd-7665fe9df3ee" d="M522.2,365.56c-1.53,0-5.52,2.82-.63,6.31-.72-3.07,1.09-3.87,2.08-4.18A2.18,2.18,0,0,0,522.2,365.56Z"/><path class="196a5af6-023a-4ee1-9bcd-7665fe9df3ee" d="M531.14,365.56c1.53,0,5.52,2.82.63,6.31.72-3.07-1.09-3.87-2.08-4.18A2.17,2.17,0,0,1,531.14,365.56Z"/><line class="93f9c9b1-002f-454d-b13c-f2e5d5f15062" x1="528.11" y1="281.67" x2="528.11" y2="296.69"/><polyline class="93f9c9b1-002f-454d-b13c-f2e5d5f15062" points="540.14 301.85 530.55 296.69 525.67 296.69 516.02 301.35"/><polyline class="93f9c9b1-002f-454d-b13c-f2e5d5f15062" points="528.11 306.83 531.61 296.23 533.61 288.25 523.42 288.25 524.49 296.17 528.11 306.83"/><ellipse class="1e9b0b51-f30e-4986-926e-1152682f104d" cx="514.17" cy="299.9" rx="0.73" ry="2.83" transform="translate(-61.93 449.64) rotate(-44.82)"/><ellipse class="1e9b0b51-f30e-4986-926e-1152682f104d" cx="541.87" cy="300.33" rx="2.83" ry="0.73" transform="translate(-53.1 473.04) rotate(-45.18)"/><ellipse id="1ab6581d-7032-4311-9ff8-05b89a79c801" data-name="Head" class="1e9b0b51-f30e-4986-926e-1152682f104d" cx="528.11" cy="281.67" rx="5.63" ry="5.67"/><rect x="523.68" y="299.26" width="8.86" height="15.15"/><ellipse class="301c18b0-b54a-45ab-b255-2f4c2bac4883" cx="528.11" cy="306.83" rx="0.73" ry="0.73"/><path class="7a703bc2-f18b-4ce9-a001-7fd53a285bc3" d="M536.64,318.58c-2.42,9.81-6.42,12.68-9.07,12.68s-5.06-4.29-8.06-13.75l3.7,3.38.62-3.56,1.85,3.3.75-4.07,1.14,3.82,1.37-3.82.52,3.17,2.43-2.87v3.69l2.64-2.74-.75,3.12Z"/></g><g id="7c400b53-bce4-469c-b64d-3f8aa0746734" data-name="space bar"><text class="7d638a15-09b9-43a9-826f-83161a5329c1" transform="translate(551 350)"><tspan class="58ac5635-3652-47bb-86a4-b22bfcf09e5c">E</tspan><tspan class="3cd7dd4c-dfd2-4a0d-9b56-43617a8995e1" x="7.04" y="0">ach ladde</tspan><tspan class="b389c966-023b-4232-aba0-1ec5d177ab21" x="61.3" y="0">r</tspan><tspan x="66.63" y="0" xml:space="preserve"> has a corresponding bomb placed ab</tspan><tspan class="7e209e33-6bea-4647-88cc-a211f1ebae07" x="276.84" y="0">ov</tspan><tspan x="289.6" y="0">e. Press</tspan><tspan class="fd5f20e9-72d5-422e-a78c-34673c0bffe0" x="335.23" y="0"> </tspan><tspan class="4557c75a-0388-45bd-ac2b-422ef19fc80e" x="338.02" y="0">the </tspan><tspan x="0" y="18">[S</tspan><tspan class="5e63526b-90ca-4f5f-ae70-82e6ea3a8a61" x="12.09" y="18">P</tspan><tspan class="ce680897-a635-4bcb-a9e2-a8bc11728067" x="18.84" y="18">A</tspan><tspan x="25.21" y="18">CE </tspan><tspan class="40d0af40-1f53-4d34-8b3c-d27b6ed5a4ee" x="42.75" y="18">B</tspan><tspan x="49.83" y="18">AR]</tspan><tspan class="fd5f20e9-72d5-422e-a78c-34673c0bffe0" x="68.92" y="18"> </tspan><tspan x="71.71" y="18">to smash</tspan><tspan class="fd5f20e9-72d5-422e-a78c-34673c0bffe0" x="124.86" y="18"> </tspan><tspan x="127.65" y="18">the bombs d</tspan><tspan class="b389c966-023b-4232-aba0-1ec5d177ab21" x="197.43" y="18">o</tspan><tspan class="3cd7dd4c-dfd2-4a0d-9b56-43617a8995e1" x="203.95" y="18">wn</tspan><tspan class="fd5f20e9-72d5-422e-a78c-34673c0bffe0" x="220.95" y="18"> </tspan><tspan class="4557c75a-0388-45bd-ac2b-422ef19fc80e" x="223.74" y="18">the ladders in orde</tspan><tspan class="b389c966-023b-4232-aba0-1ec5d177ab21" x="330.67" y="18">r</tspan><tspan class="fd5f20e9-72d5-422e-a78c-34673c0bffe0" x="336" y="18"> </tspan><tspan x="338.79" y="18">to kill </tspan><tspan x="0" y="36">the monsters. Don’t</tspan><tspan class="8552c993-2bad-4431-a3ce-616a43bd1b6c" x="112.84" y="36"> </tspan><tspan class="5c73c423-3986-4012-ac5e-0ee1269689ee" x="115.59" y="36">w</tspan><tspan x="125.67" y="36">orr</tspan><tspan class="8552c993-2bad-4431-a3ce-616a43bd1b6c" x="143.43" y="36">y</tspan><tspan x="149.91" y="36" xml:space="preserve"> i</tspan><tspan class="59e1a362-1106-43c7-b666-93ae4c808ef1" x="156.01" y="36">f</tspan><tspan x="161.5" y="36" xml:space="preserve"> more</tspan><tspan class="fd5f20e9-72d5-422e-a78c-34673c0bffe0" x="193.66" y="36"> </tspan><tspan class="4557c75a-0388-45bd-ac2b-422ef19fc80e" x="196.45" y="36">than one monsters climb</tspan><tspan class="fd5f20e9-72d5-422e-a78c-34673c0bffe0" x="337.26" y="36"> </tspan><tspan class="4557c75a-0388-45bd-ac2b-422ef19fc80e" x="340.05" y="36">the ladde</tspan><tspan class="b389c966-023b-4232-aba0-1ec5d177ab21" x="393.01" y="36">r</tspan><tspan x="0" y="54">tog</tspan><tspan class="08ac35ba-0846-4cd8-83f2-38d6eb043dc0" x="19.53" y="54">e</tspan><tspan class="4557c75a-0388-45bd-ac2b-422ef19fc80e" x="26.13" y="54">the</tspan><tspan class="6c9c2cb1-af40-4b00-b248-297c5511e8ae" x="45.31" y="54">r</tspan><tspan x="50.08" y="54">, one bomb is enough</tspan><tspan class="fd5f20e9-72d5-422e-a78c-34673c0bffe0" x="166.39" y="54"> </tspan><tspan x="169.18" y="54">to kill </tspan><tspan class="8940da1a-dd20-4806-b7ea-aecd973886d8" x="203.52" y="54">‘</tspan><tspan x="206.19" y="54">em all! Bombs</tspan><tspan class="8552c993-2bad-4431-a3ce-616a43bd1b6c" x="283.53" y="54"> </tspan><tspan x="286.27" y="54">will regenerate </tspan><tspan x="0" y="72">within</tspan><tspan class="bdb36865-e290-447e-bc3e-8ac4a37816bc" x="35.73" y="72"> </tspan><tspan x="38.55" y="72">f</tspan><tspan class="b389c966-023b-4232-aba0-1ec5d177ab21" x="44.23" y="72">e</tspan><tspan class="0ccd32e0-9014-4998-b12a-e4d8ec73a932" x="50.7" y="72">w</tspan><tspan x="60.67" y="72" xml:space="preserve"> seconds afte</tspan><tspan class="b389c966-023b-4232-aba0-1ec5d177ab21" x="139.17" y="72">r</tspan><tspan x="144.49" y="72" xml:space="preserve"> being smashed.</tspan></text></g></svg>