<svg xmlns="http://www.w3.org/2000/svg" width="1000" height="500" viewBox="0 0 1000 500"><defs><style>.\33 44d9bab-d8e5-4d18-8eed-d2e2819aae32{fill:#ef4b53;}.\30 e5f1ff8-3d6b-4a78-9031-c0b7646d3051{fill:#f47682;}.bce816f7-068c-48ef-a8b2-514b1b136371{font-size:16px;fill:#666;font-family:LondrinaSolid-Regular, Londrina Solid;}.a8ee9225-38c6-4da3-bbbb-dd2091d90b99{letter-spacing:-0.06em;}.\39 947bf4a-d77f-4c82-b545-46df72a18af8{letter-spacing:-0.01em;}.\35 1886a59-d625-4b2a-b4b0-ad39b079862e{letter-spacing:0em;}.b57f0522-0a9b-41fa-853d-e5a9eb5d7326{letter-spacing:-0.01em;}.\37 c46e873-66fd-4df6-bb08-01f9ab94778f{letter-spacing:0em;}.\37 68d0bfa-3c58-433b-b283-4674f78d3aaa{letter-spacing:-0.01em;}.b2a152ec-90e0-4315-ae76-0b3f0214e2b0{letter-spacing:-0.01em;}.\36 d129fd5-3d6f-44c0-b03c-9acd170b75af{letter-spacing:-0.02em;}.\35 9711b80-9d97-45a3-8e4b-7c53fe37fa02{letter-spacing:-0.04em;}.\31 e1f73d5-0e3a-4184-b70f-efe20e004598{letter-spacing:-0.02em;}.c48b8279-47ee-4372-9c8d-785d018b1a70{letter-spacing:-0.01em;}.\30 c9b5806-9706-4fcc-a197-bc472e668abe{letter-spacing:-0.02em;}.\30 df513ad-ea8f-4e85-a879-1d2f28002c51{letter-spacing:-0.01em;}</style></defs><title>inst-bg-02</title><g id="2d4ffb57-b16b-46d3-8b3c-8d627ac9b67f" data-name="LIVES and TIMER"><g id="91f43559-b3b7-49dd-898e-39c88317e6ef" data-name="Icons"><g id="ec692b2d-eb96-42c2-8749-131e30934eac" data-name="Icons"><path class="344d9bab-d8e5-4d18-8eed-d2e2819aae32" d="M274.48,377.71l.76-.75a7.6,7.6,0,0,0-10.74-10.75l-.76.77-.76-.77A7.6,7.6,0,0,0,252.24,377l.76.75,10.35,10.36a.56.56,0,0,0,.78,0l10.35-10.36"/></g><path class="0e5f1ff8-3d6b-4a78-9031-c0b7646d3051" d="M258.06,365.35s-6.34-.5-7,6.69a6.93,6.93,0,0,1,7.19-5s1.46.14,1.46-.77S258.06,365.35,258.06,365.35Z"/></g><g id="73ae68a4-77c5-4058-929c-8c67b8850f8c" data-name="Icons"><g id="b9338933-a693-4e87-80ee-e076cb691095" data-name="Icons"><path class="344d9bab-d8e5-4d18-8eed-d2e2819aae32" d="M305.48,377.71l.76-.75a7.6,7.6,0,0,0-10.74-10.75l-.76.77-.76-.77A7.6,7.6,0,0,0,283.24,377l.76.75,10.35,10.36a.56.56,0,0,0,.78,0l10.35-10.36"/></g><path class="0e5f1ff8-3d6b-4a78-9031-c0b7646d3051" d="M289.06,365.35s-6.34-.5-7,6.69a6.93,6.93,0,0,1,7.19-5s1.46.14,1.46-.77S289.06,365.35,289.06,365.35Z"/></g><g id="24522dae-f791-4cf8-a265-62780150fa06" data-name="Icons"><g id="373eb754-fb47-43f5-9389-ec5cdb79a66b" data-name="Icons"><path class="344d9bab-d8e5-4d18-8eed-d2e2819aae32" d="M336.48,377.71l.76-.75a7.6,7.6,0,0,0-10.74-10.75l-.76.77-.76-.77A7.6,7.6,0,0,0,314.24,377l.76.75,10.35,10.36a.56.56,0,0,0,.78,0l10.35-10.36"/></g><path class="0e5f1ff8-3d6b-4a78-9031-c0b7646d3051" d="M320.06,365.35s-6.34-.5-7,6.69a6.93,6.93,0,0,1,7.19-5s1.46.14,1.46-.77S320.06,365.35,320.06,365.35Z"/></g></g><g id="9828515a-8f96-44d8-9a0c-c67473d1137c" data-name="Layer 17"><text class="bce816f7-068c-48ef-a8b2-514b1b136371" transform="translate(154 414)"><tspan class="a8ee9225-38c6-4da3-bbbb-dd2091d90b99">Y</tspan><tspan x="5.94" y="0">ou</tspan><tspan class="9947bf4a-d77f-4c82-b545-46df72a18af8" x="20.3" y="0">’</tspan><tspan class="51886a59-d625-4b2a-b4b0-ad39b079862e" x="23.44" y="0">re gi</tspan><tspan class="b57f0522-0a9b-41fa-853d-e5a9eb5d7326" x="50.42" y="0">v</tspan><tspan class="7c46e873-66fd-4df6-bb08-01f9ab94778f" x="57.07" y="0">en</tspan><tspan class="768d0bfa-3c58-433b-b283-4674f78d3aaa" x="71.38" y="0"> </tspan><tspan x="74.35" y="0">three li</tspan><tspan class="b2a152ec-90e0-4315-ae76-0b3f0214e2b0" x="117.61" y="0">v</tspan><tspan x="124.27" y="0">es!</tspan><tspan class="6d129fd5-3d6f-44c0-b03c-9acd170b75af" x="142.05" y="0"> </tspan><tspan class="59711b80-9d97-45a3-8e4b-7c53fe37fa02" x="144.94" y="0">T</tspan><tspan class="51886a59-d625-4b2a-b4b0-ad39b079862e" x="151.33" y="0">r</tspan><tspan class="1e1f73d5-0e3a-4184-b70f-efe20e004598" x="157.21" y="0">y</tspan><tspan class="768d0bfa-3c58-433b-b283-4674f78d3aaa" x="164.13" y="0"> </tspan><tspan x="167.1" y="0">to survi</tspan><tspan class="b2a152ec-90e0-4315-ae76-0b3f0214e2b0" x="214.13" y="0">v</tspan><tspan x="220.78" y="0">e and kill </tspan><tspan x="0" y="19.2">as ma</tspan><tspan class="c48b8279-47ee-4372-9c8d-785d018b1a70" x="36.58" y="19.2">n</tspan><tspan class="1e1f73d5-0e3a-4184-b70f-efe20e004598" x="43.66" y="19.2">y</tspan><tspan class="7c46e873-66fd-4df6-bb08-01f9ab94778f" x="50.58" y="19.2" xml:space="preserve"> monsters as</tspan><tspan class="0c9b5806-9706-4fcc-a197-bc472e668abe" x="130.69" y="19.2"> </tspan><tspan class="0df513ad-ea8f-4e85-a879-1d2f28002c51" x="133.6" y="19.2">y</tspan><tspan x="140.59" y="19.2">ou can ‘til sunrise.</tspan></text></g></svg>