<svg xmlns="http://www.w3.org/2000/svg" xmlns:xlink="http://www.w3.org/1999/xlink" width="1000" height="500" viewBox="0 0 1000 500"><defs><style>.\30 5964a09-4300-4c42-9a04-628db209af71,.\31 03ae6e5-e5b9-4665-89a1-e10ad8e2fed9{fill:none;}.\36 e691b98-34b5-4587-b25c-a71463661ab6{font-size:15px;fill:#666;font-family:LondrinaSolid-Regular, Londrina Solid;}.\37 f614d27-79fa-45e9-b4b3-103b54534f85{letter-spacing:-0.06em;}.\34 da8a270-6e70-4fd0-8dfe-e677988cedb9{letter-spacing:-0.01em;}.\37 8f76bbe-a977-4b11-a511-15d8b7e36216{letter-spacing:-0.01em;}.\34 30e4f5f-4e45-4eb1-9f6e-ea6b05c82d5b{letter-spacing:-0.02em;}.\36 f85c87d-5cdd-4d15-b9f6-ad1d845799c5{letter-spacing:-0.01em;}.\36 a2e5ac3-82c6-4a4c-ad32-654c5456ce1f{letter-spacing:0em;}.\34 d1932f2-8d72-4037-9264-32433fd58860{letter-spacing:-0.03em;}.\32 5c014c7-79e1-45ae-b941-feeab3e7d6fa{letter-spacing:-0.01em;}.\35 e57c330-9966-4827-9996-9576c6d32693{letter-spacing:0em;}.\39 82de283-3e97-4d44-9249-b70079b66829{letter-spacing:-0.01em;}.\39 995cea6-5fde-4f09-aa6f-5a7dcf0908fb{letter-spacing:-0.02em;}.\38 df4e9ea-f316-473b-883e-c4bcf720f8bf{letter-spacing:-0.01em;}.aa92442d-8d1a-4344-a9f2-1308c5c4bf66{letter-spacing:0em;}.bbc6646d-85a0-483a-9a8e-733dd9c07207{letter-spacing:-0.03em;}.b9e2af3f-2833-47aa-86f9-8fd3f1ce8633{letter-spacing:-0.02em;}.\30 5acf576-c673-46ca-979c-e8a8e637de7f{letter-spacing:-0.01em;}.a108227e-09a6-4e2b-a2fa-23c878a70030{letter-spacing:-0.03em;}.d066c0ab-2dea-4dda-aee7-db565ea3a89f{letter-spacing:-0.03em;}.\35 7c09683-6b63-4a6a-888d-9ab87e8c6c69{letter-spacing:0em;}.\34 0045959-041e-458a-b1f2-210e838490e5{letter-spacing:-0.02em;}.\35 e3a3799-ba5a-465d-9a2b-f64e90913b9e,.\36 847d763-b489-4128-9238-e4b6dfa2c9a9{fill:#4c2605;}.\30 4e9127e-6ab8-4244-87cc-749070ad147a,.\31 03ae6e5-e5b9-4665-89a1-e10ad8e2fed9,.\35 e3a3799-ba5a-465d-9a2b-f64e90913b9e{stroke:#000;stroke-miterlimit:10;}.\37 f54226c-a594-4438-8e2f-e1cdc43efde6{fill:#513f30;}.fe9143d6-6ad9-49f5-9cf6-9eaa273d9870{fill:#383838;}.\31 03ae6e5-e5b9-4665-89a1-e10ad8e2fed9{stroke-linecap:round;stroke-width:2px;}.\30 4e9127e-6ab8-4244-87cc-749070ad147a,.de3a7258-ce0f-4187-876f-482ce30bd87c{fill:#fff;}.\31 419c74e-3b34-4bbf-9a6a-ffb560b909be{fill:#996a2c;}.f6f880e1-a5a5-44c1-9544-050ae8eb2b00{fill:#1c1c1c;}.\32 7c45000-9b3a-4343-93cf-a3fdeb564514{fill:#9b9b9b;}.fe700739-1a9d-45d8-be37-5d90c889db4c{fill:#727272;}.adf44fb4-9ccc-48f8-8b56-cd5cacff017b{fill:#b5b5b5;}.fd715501-140e-4cf7-85ae-e6f3ead31602{clip-path:url(#efa4f6ac-36b2-436d-8df7-39eab2d1afa4);}.\36 2e028ad-bd67-4dac-b6b4-afa4a0b1ca07{fill:#606060;}</style><clipPath id="efa4f6ac-36b2-436d-8df7-39eab2d1afa4"><ellipse class="05964a09-4300-4c42-9a04-628db209af71" cx="121.04" cy="189.62" rx="7.65" ry="4.15"/></clipPath></defs><title>inst-01</title><g id="5814fc68-5e22-47c2-8e89-221ba939255d" data-name="Layer 5"><text class="6e691b98-34b5-4587-b25c-a71463661ab6" transform="translate(146 170) scale(1.02 1)"><tspan class="7f614d27-79fa-45e9-b4b3-103b54534f85">Y</tspan><tspan x="5.57" y="0">ou</tspan><tspan class="4da8a270-6e70-4fd0-8dfe-e677988cedb9" x="19.03" y="0">’</tspan><tspan x="21.97" y="0">re stuck on a scaffold afte</tspan><tspan class="78f76bbe-a977-4b11-a511-15d8b7e36216" x="176.16" y="0">r</tspan><tspan x="181.48" y="0" xml:space="preserve"> a hard da</tspan><tspan class="430e4f5f-4e45-4eb1-9f6e-ea6b05c82d5b" x="238.03" y="0">y</tspan><tspan x="244.51" y="0" xml:space="preserve"> o</tspan><tspan class="6f85c87d-5cdd-4d15-b9f6-ad1d845799c5" x="254.23" y="0">f</tspan><tspan class="6a2e5ac3-82c6-4a4c-ad32-654c5456ce1f" x="259.72" y="0" xml:space="preserve">  construction </tspan><tspan class="4da8a270-6e70-4fd0-8dfe-e677988cedb9" x="0" y="18">w</tspan><tspan x="10.08" y="18">ork. N</tspan><tspan class="78f76bbe-a977-4b11-a511-15d8b7e36216" x="42.15" y="18">o</tspan><tspan class="4d1932f2-8d72-4037-9264-32433fd58860" x="48.68" y="18">w</tspan><tspan x="58.5" y="18">,</tspan><tspan class="25c014c7-79e1-45ae-b941-feeab3e7d6fa" x="61.32" y="18"> </tspan><tspan class="5e57c330-9966-4827-9996-9576c6d32693" x="64.11" y="18">there are monsters climbing up</tspan><tspan class="25c014c7-79e1-45ae-b941-feeab3e7d6fa" x="242.62" y="18"> </tspan><tspan x="245.41" y="18">the</tspan><tspan class="982de283-3e97-4d44-9249-b70079b66829" x="264.6" y="18"> </tspan><tspan x="267.42" y="18">fi</tspan><tspan class="78f76bbe-a977-4b11-a511-15d8b7e36216" x="276.21" y="18">v</tspan><tspan x="282.45" y="18">e ladders </tspan><tspan x="0" y="36">surrounding</tspan><tspan class="9995cea6-5fde-4f09-aa6f-5a7dcf0908fb" x="68.56" y="36"> </tspan><tspan class="8df4e9ea-f316-473b-883e-c4bcf720f8bf" x="71.29" y="36">y</tspan><tspan class="6a2e5ac3-82c6-4a4c-ad32-654c5456ce1f" x="77.85" y="36">ou. </tspan><tspan class="aa92442d-8d1a-4344-a9f2-1308c5c4bf66" x="97.15" y="36">M</tspan><tspan class="5e57c330-9966-4827-9996-9576c6d32693" x="104.59" y="36">a</tspan><tspan class="bbc6646d-85a0-483a-9a8e-733dd9c07207" x="111.73" y="36">k</tspan><tspan x="117.87" y="36">e use o</tspan><tspan class="78f76bbe-a977-4b11-a511-15d8b7e36216" x="157.41" y="36">f</tspan><tspan class="b9e2af3f-2833-47aa-86f9-8fd3f1ce8633" x="162.9" y="36"> </tspan><tspan class="05acf576-c673-46ca-979c-e8a8e637de7f" x="165.63" y="36">y</tspan><tspan x="172.18" y="36">ou</tspan><tspan class="78f76bbe-a977-4b11-a511-15d8b7e36216" x="185.65" y="36">r</tspan><tspan x="190.98" y="36" xml:space="preserve"> hamme</tspan><tspan class="6f85c87d-5cdd-4d15-b9f6-ad1d845799c5" x="235.02" y="36">r</tspan><tspan class="6a2e5ac3-82c6-4a4c-ad32-654c5456ce1f" x="240.34" y="36" xml:space="preserve"> and bomb</tspan><tspan class="25c014c7-79e1-45ae-b941-feeab3e7d6fa" x="298.08" y="36"> </tspan><tspan x="300.87" y="36">to </tspan><tspan class="a108227e-09a6-4e2b-a2fa-23c878a70030" x="316.39" y="36">k</tspan><tspan class="6a2e5ac3-82c6-4a4c-ad32-654c5456ce1f" x="322.53" y="36">eep </tspan><tspan class="d066c0ab-2dea-4dda-aee7-db565ea3a89f" x="0" y="54">‘</tspan><tspan x="2.67" y="54">em d</tspan><tspan class="78f76bbe-a977-4b11-a511-15d8b7e36216" x="29.53" y="54">o</tspan><tspan x="36.06" y="54">wn! </tspan><tspan class="7f614d27-79fa-45e9-b4b3-103b54534f85" x="59.31" y="54">Y</tspan><tspan x="64.87" y="54">ou g</tspan><tspan class="57c09683-6b63-4a6a-888d-9ab87e8c6c69" x="88.35" y="54">e</tspan><tspan class="5e57c330-9966-4827-9996-9576c6d32693" x="94.95" y="54">t 10 points</tspan><tspan class="05acf576-c673-46ca-979c-e8a8e637de7f" x="156.03" y="54"> </tspan><tspan x="158.85" y="54">fo</tspan><tspan class="6f85c87d-5cdd-4d15-b9f6-ad1d845799c5" x="171.25" y="54">r</tspan><tspan class="6a2e5ac3-82c6-4a4c-ad32-654c5456ce1f" x="176.58" y="54" xml:space="preserve"> each monste</tspan><tspan class="78f76bbe-a977-4b11-a511-15d8b7e36216" x="252.67" y="54">r</tspan><tspan x="258" y="54" xml:space="preserve"> killed, so look </tspan><tspan x="0" y="72">out</tspan><tspan class="05acf576-c673-46ca-979c-e8a8e637de7f" x="19.27" y="72"> </tspan><tspan x="22.1" y="72">fo</tspan><tspan class="78f76bbe-a977-4b11-a511-15d8b7e36216" x="34.5" y="72">r</tspan><tspan class="25c014c7-79e1-45ae-b941-feeab3e7d6fa" x="39.83" y="72"> </tspan><tspan x="42.62" y="72">the ladders</tspan><tspan class="40045959-041e-458a-b1f2-210e838490e5" x="107.85" y="72"> </tspan><tspan x="110.59" y="72">with multiple monsters and score on!</tspan></text></g><g id="19e24197-0a28-491e-88e5-342a566d4541" data-name="Layer 7"><rect class="5e3a3799-ba5a-465d-9a2b-f64e90913b9e" x="118.84" y="199.15" width="12.7" height="2.13"/><rect class="5e3a3799-ba5a-465d-9a2b-f64e90913b9e" x="118.84" y="204.13" width="12.7" height="2.13"/><rect class="5e3a3799-ba5a-465d-9a2b-f64e90913b9e" x="118.84" y="209.1" width="12.7" height="2.13"/><rect class="5e3a3799-ba5a-465d-9a2b-f64e90913b9e" x="118.84" y="214.08" width="12.7" height="2.13"/><rect class="5e3a3799-ba5a-465d-9a2b-f64e90913b9e" x="118.84" y="219.06" width="12.7" height="2.13"/><rect class="5e3a3799-ba5a-465d-9a2b-f64e90913b9e" x="118.84" y="224.03" width="12.7" height="2.13"/><rect class="5e3a3799-ba5a-465d-9a2b-f64e90913b9e" x="118.84" y="229.01" width="12.7" height="2.13"/><rect class="5e3a3799-ba5a-465d-9a2b-f64e90913b9e" x="118.84" y="233.98" width="12.7" height="2.13"/><rect class="5e3a3799-ba5a-465d-9a2b-f64e90913b9e" x="118.84" y="194.18" width="12.7" height="2.13"/><rect class="5e3a3799-ba5a-465d-9a2b-f64e90913b9e" x="118.84" y="189.2" width="12.7" height="2.13"/><rect class="5e3a3799-ba5a-465d-9a2b-f64e90913b9e" x="118.84" y="184.23" width="12.7" height="2.13"/><rect class="5e3a3799-ba5a-465d-9a2b-f64e90913b9e" x="118.84" y="179.25" width="12.7" height="2.13"/><rect class="5e3a3799-ba5a-465d-9a2b-f64e90913b9e" x="118.84" y="174.27" width="12.7" height="2.13"/><rect class="5e3a3799-ba5a-465d-9a2b-f64e90913b9e" x="118.84" y="169.3" width="12.7" height="2.13"/><rect class="5e3a3799-ba5a-465d-9a2b-f64e90913b9e" x="118.84" y="164.32" width="12.7" height="2.13"/><rect class="5e3a3799-ba5a-465d-9a2b-f64e90913b9e" x="118.84" y="159.35" width="12.7" height="2.13"/><rect class="5e3a3799-ba5a-465d-9a2b-f64e90913b9e" x="118.84" y="154.37" width="12.7" height="2.13"/><rect class="5e3a3799-ba5a-465d-9a2b-f64e90913b9e" x="118.84" y="149.4" width="12.7" height="2.13"/><rect class="5e3a3799-ba5a-465d-9a2b-f64e90913b9e" x="118.84" y="149.4" width="12.7" height="2.13"/><path class="6847d763-b489-4128-9238-e4b6dfa2c9a9" d="M131.54,239.57a1.31,1.31,0,0,1-1.27-1.35V147a1.27,1.27,0,1,1,2.54,0v91.26A1.31,1.31,0,0,1,131.54,239.57Z"/><path d="M131.54,145.73a1.19,1.19,0,0,1,1.15,1.23v91.26a1.15,1.15,0,1,1-2.29,0V147a1.19,1.19,0,0,1,1.14-1.23m0-.25a1.43,1.43,0,0,0-1.39,1.48v91.26a1.4,1.4,0,1,0,2.79,0V147a1.44,1.44,0,0,0-1.4-1.48Z"/><path class="6847d763-b489-4128-9238-e4b6dfa2c9a9" d="M118.84,239.57a1.31,1.31,0,0,1-1.27-1.35V147a1.27,1.27,0,1,1,2.54,0v91.26A1.31,1.31,0,0,1,118.84,239.57Z"/><path d="M118.84,145.73A1.19,1.19,0,0,1,120,147v91.26a1.15,1.15,0,1,1-2.29,0V147a1.19,1.19,0,0,1,1.15-1.23m0-.25a1.44,1.44,0,0,0-1.4,1.48v91.26a1.4,1.4,0,1,0,2.79,0V147a1.43,1.43,0,0,0-1.39-1.48Z"/><rect class="6847d763-b489-4128-9238-e4b6dfa2c9a9" x="88.04" y="140.62" width="74.06" height="7.02"/><path d="M162.06,140.82v6.63h-74v-6.63h74m.08-.39H88v7.4h74.14v-7.4Z"/><rect class="7f54226c-a594-4438-8e2f-e1cdc43efde6" x="154.57" y="98.01" width="1.3" height="24.26" transform="translate(-8.6 13.25) rotate(-4.76)"/><path d="M158.52,108.06l-7,.62a3.95,3.95,0,1,1-.66-7.87l7-.62Z"/><circle class="fe9143d6-6ad9-49f5-9cf6-9eaa273d9870" cx="158.2" cy="104.13" r="3.95"/><line class="103ae6e5-e5b9-4665-89a1-e10ad8e2fed9" x1="149.58" y1="110.83" x2="149.58" y2="127.96"/><polyline class="103ae6e5-e5b9-4665-89a1-e10ad8e2fed9" points="152.89 139.15 151.46 127.96 147.64 127.96 146.72 139.15"/><polyline class="103ae6e5-e5b9-4665-89a1-e10ad8e2fed9" points="157.37 111.64 158.77 118.88 152.53 116.67 146.5 116.67 148.29 122.72 154.5 120.02"/><ellipse id="40a308ae-58b4-4797-88a1-cc59f4251a1f" data-name="Right Hand" class="04e9127e-6ab8-4244-87cc-749070ad147a" cx="156.45" cy="120.02" rx="1.95" ry="1.13"/><ellipse id="ae480088-57c4-4049-a44a-2271209cfe59" data-name="Left Hand" class="04e9127e-6ab8-4244-87cc-749070ad147a" cx="155.58" cy="111.64" rx="1.78" ry="0.81"/><ellipse class="04e9127e-6ab8-4244-87cc-749070ad147a" cx="144.66" cy="139.33" rx="2.51" ry="0.65"/><ellipse class="04e9127e-6ab8-4244-87cc-749070ad147a" cx="154.98" cy="139.33" rx="2.51" ry="0.65"/><circle id="7eedd4bf-2e3e-4303-948a-6aa52f85102a" data-name="Head" class="04e9127e-6ab8-4244-87cc-749070ad147a" cx="149.58" cy="110.83" r="5.03"/><path class="1419c74e-3b34-4bbf-9a6a-ffb560b909be" d="M133.54,124c1.16.45,1.64-.11,1.64-.11-3.08-11.55-11.85-2.22-10.37,2.24l1.26.34C125.07,122.93,131.33,116,133.54,124Z"/><circle class="f6f880e1-a5a5-44c1-9544-050ae8eb2b00" cx="124.77" cy="133.35" r="6.92"/><polygon class="f6f880e1-a5a5-44c1-9544-050ae8eb2b00" points="126.11 128.82 124.17 128.69 123.71 124.59 127.03 124.82 126.11 128.82"/><path id="b79e3625-f3b0-42d1-b0cf-647b72ba66f9" data-name="Left Arm" class="27c45000-9b3a-4343-93cf-a3fdeb564514" d="M118.65,191.89l-1.15,1.25s-3.74-4-4.11-5.64c0-1.63,1.8-5.77,1.8-5.77s.12-1.15-.39-1.57a2.08,2.08,0,0,1-.52-2.85c.1,1.67,1.14,1.88,1.14,1.88a2.21,2.21,0,0,1,1.49-3.19,3.87,3.87,0,0,0-.37,3.16s.39-3.54,2.8-2.81a2.91,2.91,0,0,0-1.12,3.76s.89.29,2.28-1.21c-.08,1.18-1.07,2.07-2.61,2.47a4.9,4.9,0,0,0-1.25.55c-.59,1.11-.8,3.91-1.58,5.58A37.48,37.48,0,0,0,118.65,191.89Z"/><path id="6b03a293-0305-49cb-93e8-bc230cbea50b" data-name="Right Arm" class="27c45000-9b3a-4343-93cf-a3fdeb564514" d="M122.68,191.89l-.43,1.83s5,3.23,7.94,3.47a9,9,0,0,0,3.39-5,8.89,8.89,0,0,0,1.42-1.35,3.58,3.58,0,0,0,.1-3.35,3.89,3.89,0,0,1-1.23,2.33s.88-2.38-.68-3.56a4.58,4.58,0,0,1-.47,3.08,2.44,2.44,0,0,0-1.83-3.08c1.74,2.24.47,3.84.47,3.84s-.93-.05-1.72-2.07a2.65,2.65,0,0,0,1.35,3.18,4.57,4.57,0,0,1,1.25.7c.15.88-1.51,1.86-2.2,3.2C128,195,122.68,191.89,122.68,191.89Z"/><g id="45d7e4ed-efff-49c5-a54a-8d251bcca587" data-name="Left Leg"><path id="e4589e87-215c-4cc6-9508-fd2c72d90c01" data-name="Left Leg" class="fe700739-1a9d-45d8-be37-5d90c889db4c" d="M116.86,211.4l-1.85-.15c.44-1.71-.17-2.92.11-4.75,1.27-3.46,2.63-4.33,2.63-4.33l.9.78a18.86,18.86,0,0,0-2.11,3.84A12.42,12.42,0,0,0,116.86,211.4Z"/><path class="fe700739-1a9d-45d8-be37-5d90c889db4c" d="M117.19,211.5c0,.29-.37.53-1.52.53s-2.09-.22-2.09-.53c0-.59.93-1.07,2.09-1.07S117.19,210.91,117.19,211.5Z"/></g><g id="bfe8798d-b4af-4ed0-911d-248319a1f79d" data-name="Right Leg"><path id="b8156782-bd4e-41c7-8461-aa41b2aabb65" data-name="Left Leg" class="27c45000-9b3a-4343-93cf-a3fdeb564514" d="M124.59,206.86l2.14.15c-.92-1.69.48-5.32,0-6.87-1-.34-5,3-5,3v1.22s2.59-2.24,3.61-2.19C125.73,202.78,124.59,206.86,124.59,206.86Z"/><path class="27c45000-9b3a-4343-93cf-a3fdeb564514" d="M124.32,207.06c0,.29.38.53,1.53.53s2.09-.22,2.09-.53c0-.59-.93-1.07-2.09-1.07S124.32,206.47,124.32,207.06Z"/><path id="645f417e-a79e-4d6c-8f4e-eb7202378371" data-name="Left Leg" class="fe700739-1a9d-45d8-be37-5d90c889db4c" d="M124.59,206.86l2.14.15c-.92-1.69.48-5.32,0-6.87-1-.34-5,3-5,3v1.22s2.59-2.24,3.61-2.19C125.73,202.78,124.59,206.86,124.59,206.86Z"/><path class="fe700739-1a9d-45d8-be37-5d90c889db4c" d="M124.32,207.06c0,.29.38.53,1.53.53s2.09-.22,2.09-.53c0-.59-.93-1.07-2.09-1.07S124.32,206.47,124.32,207.06Z"/></g><ellipse id="b4aeed7d-941a-4095-92e3-92fc25ac39df" data-name="Body" class="27c45000-9b3a-4343-93cf-a3fdeb564514" cx="121.04" cy="197.87" rx="4.5" ry="7.21"/><path id="8fb55423-bef3-4c6d-b2cb-bea32d0ac5d8" data-name="Tail" class="27c45000-9b3a-4343-93cf-a3fdeb564514" d="M121.75,212.11,123,212l-.82,2.71-3-2.44,1.52-.13c-1.82-4.29-.12-5.53-.92-8.59l2.69-.67C121.29,205.21,120.23,208.58,121.75,212.11Z"/><g id="66c253dd-9cc1-4480-a8fc-f42063037eff" data-name="Head"><ellipse id="d387bd70-f3ad-4276-8f29-bf9d67c543fc" data-name="Head" class="adf44fb4-9ccc-48f8-8b56-cd5cacff017b" cx="121.04" cy="189.62" rx="7.65" ry="4.15"/><g class="fd715501-140e-4cf7-85ae-e6f3ead31602"><path class="de3a7258-ce0f-4187-876f-482ce30bd87c" d="M116.28,185.37l3.52.16a9.28,9.28,0,0,0-3,2.39A3,3,0,0,1,116.28,185.37Z"/></g><g class="fd715501-140e-4cf7-85ae-e6f3ead31602"><ellipse cx="117.71" cy="185.82" rx="0.74" ry="0.67"/></g><g class="fd715501-140e-4cf7-85ae-e6f3ead31602"><path class="de3a7258-ce0f-4187-876f-482ce30bd87c" d="M125.79,185.37l-3.51.16a9.29,9.29,0,0,1,3,2.39A3,3,0,0,0,125.79,185.37Z"/></g><g class="fd715501-140e-4cf7-85ae-e6f3ead31602"><ellipse cx="124.37" cy="185.82" rx="0.74" ry="0.67"/></g></g><path id="aa4ad871-d0b3-438a-afa6-92ba0f40472f" data-name="Left Horn" class="62e028ad-bd67-4dac-b6b4-afa4a0b1ca07" d="M116.21,188.48c-1.66,0-6,3.05-.68,6.82-.78-3.32,1.18-4.19,2.25-4.52A2.38,2.38,0,0,0,116.21,188.48Z"/><path class="62e028ad-bd67-4dac-b6b4-afa4a0b1ca07" d="M125.87,188.48c1.65,0,6,3.05.68,6.82.77-3.32-1.18-4.19-2.25-4.52A2.36,2.36,0,0,1,125.87,188.48Z"/></g></svg>