<svg xmlns="http://www.w3.org/2000/svg" xmlns:xlink="http://www.w3.org/1999/xlink" width="1000" height="500" viewBox="0 0 1000 500"><defs><style>.\37 63250f5-387a-47d1-834e-954bf614e4d1,.ec745c5d-7314-4fc3-9cc5-cbe3a0225d97{fill:none;}.\37 1b94bb0-bd97-4544-852c-70538573e32c{font-size:36px;fill:#4d4d4d;}.\37 1b94bb0-bd97-4544-852c-70538573e32c,.f60ec995-1f37-46d2-8b79-7769e062e2d8{font-family:LondrinaSolid-Regular, Londrina Solid;}.\31 fde1d39-69ce-46b3-aa4a-5d4135646230{letter-spacing:-0.01em;}.\36 bcfae8d-732c-4c54-8f1e-383dceaabfb2{letter-spacing:-0.02em;}.\32 0e592f7-20ce-4ab3-b665-9ffdedee6c67{letter-spacing:-0.01em;}.\35 e1f4939-91a1-4eb7-927e-d2494e7eb72a{letter-spacing:0em;}.e64175d8-2707-4a4b-8ed3-e30df2688740{letter-spacing:-0.02em;}.c028862e-6a05-4c53-97c8-13eb4979e61b,.c5b88d8f-9a69-4ef1-a1a5-77ee125b435c{fill:#4c2605;}.\37 63250f5-387a-47d1-834e-954bf614e4d1,.af6231b2-f89b-4faa-90d7-fee06ceccaec,.c5b88d8f-9a69-4ef1-a1a5-77ee125b435c{stroke:#000;}.\34 faad4e0-73e1-4d87-84e0-e1ba77dc3160,.\37 63250f5-387a-47d1-834e-954bf614e4d1,.af6231b2-f89b-4faa-90d7-fee06ceccaec,.c5b88d8f-9a69-4ef1-a1a5-77ee125b435c{stroke-miterlimit:10;}.\39 c527c70-2093-4e8f-87e8-32dfa285274c{fill:#9b9b9b;}.\33 69ac54a-633f-4914-acb4-6dcaaffc34ba{fill:#727272;}.\35 0a60a45-c5ec-451a-ba63-1e6b0d7699c2{fill:#b5b5b5;}.b5c8724f-b9c2-4d65-b857-4d03e49d329e{clip-path:url(#cfda9c0d-6cff-4fe2-8657-4ec3e1c56d7d);}.af6231b2-f89b-4faa-90d7-fee06ceccaec,.cbcbaf16-123e-4b31-9f01-cb45f702526b{fill:#fff;}.\36 811adb8-c6cb-481e-b024-9712e1b84804{fill:#606060;}.\37 63250f5-387a-47d1-834e-954bf614e4d1{stroke-linecap:round;stroke-width:2px;}.d1983891-cd7a-472c-a1ab-37402b3d187c{fill:#513f30;}.\34 faad4e0-73e1-4d87-84e0-e1ba77dc3160{stroke:#b70000;stroke-width:3px;fill:url(#add4bfb4-7302-44e7-9c4a-96c1e60e6c45);}.f60ec995-1f37-46d2-8b79-7769e062e2d8{font-size:16px;fill:#666;}.fd564fe1-aa42-4974-a305-5cfb6bcf4bfe{letter-spacing:-0.01em;}.\30 712f970-9cca-424f-b280-bf07271b645b{letter-spacing:0em;}.\30 e8e123e-f5d6-4e94-9dfb-a3330d5828b4{letter-spacing:-0.01em;}.b70035a6-65ab-486f-90e4-e4eb312bd367{letter-spacing:-0.01em;}.bd6923fa-86fc-408b-866f-486afb153fc2{letter-spacing:0em;}.\33 c6acb31-2437-43a9-9e3f-40a5749c21ac{letter-spacing:-0.05em;}.f1b97747-7a35-47dc-bf54-8c85d3bc0e22{letter-spacing:-0.01em;}.f1ae2066-e230-4752-87a6-1ce624bdeb61{letter-spacing:0em;}.bc8306db-e08f-4544-a273-4598eb63883c{letter-spacing:-0.01em;}.\33 93d93ed-982f-45dc-b549-8c1b97d4d16a{letter-spacing:-0.01em;}.\37 7fe4a39-690f-48d8-85f1-e186436ded53{letter-spacing:-0.01em;}.\39 662004d-ab6d-4f16-841f-2e5030a84295{letter-spacing:-0.02em;}.e05b230c-1584-4f81-9e13-f2356ab12240{letter-spacing:-0.01em;}.\37 c6273f4-7cc4-4276-9b85-58105905d269{letter-spacing:-0.01em;}.\35 fd85fcf-dfbb-4a80-9972-5862422b9947{letter-spacing:0em;}.\31 0719962-28f3-4397-976f-d36c5b25be2f{letter-spacing:-0.05em;}.\30 09dc9e8-71b4-4476-b085-131698f756e4{letter-spacing:-0.01em;}.d3e0b4ea-d7cb-48e8-9bc6-4326a61a1637{letter-spacing:-0.02em;}.a9eaf349-cc4a-4b29-b92e-f8c492d71173{letter-spacing:-0.02em;}</style><clipPath id="cfda9c0d-6cff-4fe2-8657-4ec3e1c56d7d"><ellipse class="ec745c5d-7314-4fc3-9cc5-cbe3a0225d97" cx="724.67" cy="306.61" rx="7.08" ry="3.84"/></clipPath><radialGradient id="add4bfb4-7302-44e7-9c4a-96c1e60e6c45" cx="399.15" cy="-770.94" r="10.6" gradientTransform="matrix(0.04, 1.29, -1.31, 0.03, -299.65, -222.11)" gradientUnits="userSpaceOnUse"><stop offset="0" stop-color="#fff"/><stop offset="0.4" stop-color="#ff9300"/><stop offset="0.68" stop-color="red"/></radialGradient></defs><title>inst-04</title><g id="4be4f2f8-61f3-4d69-8597-1f240622ae6e" data-name="How to Play"><text class="71b94bb0-bd97-4544-852c-70538573e32c" transform="translate(435.62 83)">H<tspan class="1fde1d39-69ce-46b3-aa4a-5d4135646230" x="17.96" y="0">o</tspan><tspan class="6bcfae8d-732c-4c54-8f1e-383dceaabfb2" x="33.62" y="0">w</tspan><tspan class="20e592f7-20ce-4ab3-b665-9ffdedee6c67" x="57.56" y="0"> </tspan><tspan class="5e1f4939-91a1-4eb7-927e-d2494e7eb72a" x="64.26" y="0">to Pla</tspan><tspan class="e64175d8-2707-4a4b-8ed3-e30df2688740" x="143.96" y="0">y</tspan></text></g><g id="0db7d91a-555c-46a5-b51d-dc313d06ce06" data-name="Layer 8"><rect class="c5b88d8f-9a69-4ef1-a1a5-77ee125b435c" x="720.55" y="308.16" width="11.76" height="1.97"/><rect class="c5b88d8f-9a69-4ef1-a1a5-77ee125b435c" x="720.55" y="312.77" width="11.76" height="1.97"/><rect class="c5b88d8f-9a69-4ef1-a1a5-77ee125b435c" x="720.55" y="317.37" width="11.76" height="1.97"/><rect class="c5b88d8f-9a69-4ef1-a1a5-77ee125b435c" x="720.55" y="321.98" width="11.76" height="1.97"/><rect class="c5b88d8f-9a69-4ef1-a1a5-77ee125b435c" x="720.55" y="326.59" width="11.76" height="1.97"/><rect class="c5b88d8f-9a69-4ef1-a1a5-77ee125b435c" x="720.55" y="331.19" width="11.76" height="1.97"/><rect class="c5b88d8f-9a69-4ef1-a1a5-77ee125b435c" x="720.55" y="335.8" width="11.76" height="1.97"/><rect class="c5b88d8f-9a69-4ef1-a1a5-77ee125b435c" x="720.55" y="340.41" width="11.76" height="1.97"/><rect class="c5b88d8f-9a69-4ef1-a1a5-77ee125b435c" x="720.55" y="303.55" width="11.76" height="1.97"/><rect class="c5b88d8f-9a69-4ef1-a1a5-77ee125b435c" x="720.55" y="298.95" width="11.76" height="1.97"/><rect class="c5b88d8f-9a69-4ef1-a1a5-77ee125b435c" x="720.55" y="294.34" width="11.76" height="1.97"/><rect class="c5b88d8f-9a69-4ef1-a1a5-77ee125b435c" x="720.55" y="289.73" width="11.76" height="1.97"/><rect class="c5b88d8f-9a69-4ef1-a1a5-77ee125b435c" x="720.55" y="285.12" width="11.76" height="1.97"/><rect class="c5b88d8f-9a69-4ef1-a1a5-77ee125b435c" x="720.55" y="280.52" width="11.76" height="1.97"/><rect class="c5b88d8f-9a69-4ef1-a1a5-77ee125b435c" x="720.55" y="275.91" width="11.76" height="1.97"/><rect class="c5b88d8f-9a69-4ef1-a1a5-77ee125b435c" x="720.55" y="271.3" width="11.76" height="1.97"/><rect class="c5b88d8f-9a69-4ef1-a1a5-77ee125b435c" x="720.55" y="266.7" width="11.76" height="1.97"/><rect class="c5b88d8f-9a69-4ef1-a1a5-77ee125b435c" x="720.55" y="262.09" width="11.76" height="1.97"/><rect class="c5b88d8f-9a69-4ef1-a1a5-77ee125b435c" x="720.55" y="262.09" width="11.76" height="1.97"/><path class="c028862e-6a05-4c53-97c8-13eb4979e61b" d="M732.31,345.58a1.22,1.22,0,0,1-1.17-1.25v-84.5a1.18,1.18,0,1,1,2.35,0v84.5A1.22,1.22,0,0,1,732.31,345.58Z"/><path d="M732.31,258.7a1.1,1.1,0,0,1,1.06,1.13v84.5a1.06,1.06,0,1,1-2.12,0v-84.5a1.1,1.1,0,0,1,1.06-1.13m0-.23a1.33,1.33,0,0,0-1.29,1.36v84.5a1.29,1.29,0,1,0,2.58,0v-84.5a1.32,1.32,0,0,0-1.29-1.36Z"/><path class="c028862e-6a05-4c53-97c8-13eb4979e61b" d="M720.55,345.58a1.21,1.21,0,0,1-1.17-1.25v-84.5a1.18,1.18,0,1,1,2.35,0v84.5A1.22,1.22,0,0,1,720.55,345.58Z"/><path d="M720.55,258.7a1.1,1.1,0,0,1,1.06,1.13v84.5a1.06,1.06,0,1,1-2.12,0v-84.5a1.1,1.1,0,0,1,1.06-1.13m0-.23a1.33,1.33,0,0,0-1.29,1.36v84.5a1.29,1.29,0,1,0,2.58,0v-84.5a1.33,1.33,0,0,0-1.29-1.36Z"/><rect class="c028862e-6a05-4c53-97c8-13eb4979e61b" x="692.04" y="253.97" width="68.57" height="6.5"/><path d="M760.57,254.15v6.14H692.08v-6.14h68.49m.08-.36H692v6.85h68.65v-6.85Z"/><path id="1108bfce-514b-487c-88af-d717419355fe" data-name="Left Arm" class="9c527c70-2093-4e8f-87e8-32dfa285274c" d="M722.46,308.72l-1.07,1.15s-3.46-3.75-3.8-5.22c0-1.51,1.66-5.34,1.66-5.34s.12-1.06-.36-1.45a1.93,1.93,0,0,1-.48-2.64c.09,1.54,1.06,1.74,1.06,1.74a2,2,0,0,1,1.38-2.95,3.55,3.55,0,0,0-.34,2.92s.35-3.28,2.58-2.6a2.69,2.69,0,0,0-1,3.48s.82.27,2.11-1.12c-.07,1.09-1,1.92-2.42,2.28a4.53,4.53,0,0,0-1.15.51c-.55,1-.74,3.62-1.46,5.17A33.91,33.91,0,0,0,722.46,308.72Z"/><path id="181970ca-f30b-482c-b8f0-6ca722092f4b" data-name="Right Arm" class="9c527c70-2093-4e8f-87e8-32dfa285274c" d="M726.19,308.72l-.4,1.69s4.6,3,7.36,3.21a8.36,8.36,0,0,0,3.13-4.64,8.16,8.16,0,0,0,1.31-1.25,3.31,3.31,0,0,0,.1-3.11,3.61,3.61,0,0,1-1.14,2.16s.82-2.21-.63-3.3a4.27,4.27,0,0,1-.44,2.86,2.26,2.26,0,0,0-1.69-2.86c1.62,2.08.43,3.56.43,3.56s-.85-.05-1.59-1.92a2.46,2.46,0,0,0,1.25,2.95,4.17,4.17,0,0,1,1.16.65c.14.81-1.4,1.72-2,3C731.14,311.54,726.19,308.72,726.19,308.72Z"/><g id="e9776f23-32a9-405d-9638-9885b76b6593" data-name="Left Leg"><path id="cf96bda8-b1b2-493a-8663-d046dc131e03" data-name="Left Leg" class="369ac54a-633f-4914-acb4-6dcaaffc34ba" d="M720.8,326.77l-1.71-.13c.4-1.58-.16-2.7.1-4.4,1.18-3.2,2.43-4,2.43-4l.84.72a16.7,16.7,0,0,0-2,3.55A11.25,11.25,0,0,0,720.8,326.77Z"/><path class="369ac54a-633f-4914-acb4-6dcaaffc34ba" d="M721.11,326.87c0,.27-.35.49-1.41.49s-1.94-.2-1.94-.49c0-.54.87-1,1.94-1S721.11,326.33,721.11,326.87Z"/></g><g id="ec3e05e1-c2c0-4b09-b376-3f937237a024" data-name="Right Leg"><path id="bc21f9d9-c45c-4662-a10b-f6f52daf39be" data-name="Left Leg" class="9c527c70-2093-4e8f-87e8-32dfa285274c" d="M728,322.57l2,.14c-.85-1.56.44-4.92,0-6.36-.95-.31-4.62,2.78-4.62,2.78v1.13s2.4-2.08,3.35-2C729,318.8,728,322.57,728,322.57Z"/><path class="9c527c70-2093-4e8f-87e8-32dfa285274c" d="M727.71,322.76c0,.27.35.49,1.41.49s1.94-.21,1.94-.49c0-.55-.87-1-1.94-1S727.71,322.21,727.71,322.76Z"/><path id="be149266-725a-4f09-835c-81a9662e8585" data-name="Left Leg" class="369ac54a-633f-4914-acb4-6dcaaffc34ba" d="M728,322.57l2,.14c-.85-1.56.44-4.92,0-6.36-.95-.31-4.62,2.78-4.62,2.78v1.13s2.4-2.08,3.35-2C729,318.8,728,322.57,728,322.57Z"/><path class="369ac54a-633f-4914-acb4-6dcaaffc34ba" d="M727.71,322.76c0,.27.35.49,1.41.49s1.94-.21,1.94-.49c0-.55-.87-1-1.94-1S727.71,322.21,727.71,322.76Z"/></g><ellipse id="105ae6a5-0e56-4f36-8922-c725490a3c1d" data-name="Body" class="9c527c70-2093-4e8f-87e8-32dfa285274c" cx="724.67" cy="314.25" rx="4.16" ry="6.67"/><path id="7ffb61ec-33d0-42a7-8acf-a90add665af6" data-name="Tail" class="9c527c70-2093-4e8f-87e8-32dfa285274c" d="M725.33,327.44l1.13-.07-.76,2.51-2.82-2.26,1.41-.12c-1.69-4-.11-5.12-.85-7.95l2.49-.62A10.05,10.05,0,0,0,725.33,327.44Z"/><g id="7c6b4e9b-290c-4d34-8eac-f708cfb29715" data-name="Head"><ellipse id="c21b5c3c-d723-4989-80b0-cb2ec1ccd6dd" data-name="Head" class="50a60a45-c5ec-451a-ba63-1e6b0d7699c2" cx="724.67" cy="306.61" rx="7.08" ry="3.84"/><g class="b5c8724f-b9c2-4d65-b857-4d03e49d329e"><path class="cbcbaf16-123e-4b31-9f01-cb45f702526b" d="M720.27,302.68l3.25.14a8.58,8.58,0,0,0-2.73,2.22A2.77,2.77,0,0,1,720.27,302.68Z"/></g><g class="b5c8724f-b9c2-4d65-b857-4d03e49d329e"><ellipse cx="721.58" cy="303.09" rx="0.69" ry="0.62"/></g><g class="b5c8724f-b9c2-4d65-b857-4d03e49d329e"><path class="cbcbaf16-123e-4b31-9f01-cb45f702526b" d="M729.07,302.68l-3.25.14a8.7,8.7,0,0,1,2.73,2.22A2.77,2.77,0,0,0,729.07,302.68Z"/></g><g class="b5c8724f-b9c2-4d65-b857-4d03e49d329e"><ellipse cx="727.75" cy="303.09" rx="0.69" ry="0.62"/></g></g><path id="e9c6d0df-f7e6-4d5a-865f-65c69ad29a99" data-name="Left Horn" class="6811adb8-c6cb-481e-b024-9712e1b84804" d="M720.2,305.56c-1.53,0-5.52,2.82-.63,6.31-.72-3.07,1.09-3.87,2.08-4.18A2.18,2.18,0,0,0,720.2,305.56Z"/><path class="6811adb8-c6cb-481e-b024-9712e1b84804" d="M729.14,305.56c1.53,0,5.52,2.82.63,6.31.72-3.07-1.09-3.87-2.08-4.18A2.17,2.17,0,0,1,729.14,305.56Z"/><line class="763250f5-387a-47d1-834e-954bf614e4d1" x1="726.11" y1="221.67" x2="726.11" y2="236.69"/><polyline class="763250f5-387a-47d1-834e-954bf614e4d1" points="738.14 241.85 728.55 236.69 723.67 236.69 714.02 241.35"/><polyline class="763250f5-387a-47d1-834e-954bf614e4d1" points="726.11 246.83 729.61 236.23 731.61 228.25 721.42 228.25 722.49 236.17 726.11 246.83"/><ellipse class="af6231b2-f89b-4faa-90d7-fee06ceccaec" cx="712.17" cy="239.9" rx="0.73" ry="2.83" transform="translate(37.93 571.78) rotate(-44.82)"/><ellipse class="af6231b2-f89b-4faa-90d7-fee06ceccaec" cx="739.87" cy="240.33" rx="2.83" ry="0.73" transform="translate(47.9 595.78) rotate(-45.18)"/><ellipse id="ed05a67f-5fed-4a02-aa3b-57f6f6694d95" data-name="Head" class="af6231b2-f89b-4faa-90d7-fee06ceccaec" cx="726.11" cy="221.67" rx="5.63" ry="5.67"/><rect x="721.68" y="239.26" width="8.86" height="15.15"/><ellipse class="d1983891-cd7a-472c-a1ab-37402b3d187c" cx="726.11" cy="246.83" rx="0.73" ry="0.73"/><path class="4faad4e0-73e1-4d87-84e0-e1ba77dc3160" d="M734.64,258.58c-2.42,9.81-6.42,12.68-9.07,12.68s-5.06-4.29-8.06-13.75l3.7,3.38.62-3.56,1.85,3.3.75-4.07,1.14,3.82,1.37-3.82.52,3.17,2.43-2.87v3.69l2.64-2.74-.75,3.12Z"/></g><g id="95380348-a9dd-44b2-b5fa-b4e6f3345051" data-name="space bar"><text class="f60ec995-1f37-46d2-8b79-7769e062e2d8" transform="translate(572 369)"><tspan class="fd564fe1-aa42-4974-a305-5cfb6bcf4bfe">E</tspan><tspan class="0712f970-9cca-424f-b280-bf07271b645b" x="7.5" y="0">ach ladde</tspan><tspan class="0e8e123e-f5d6-4e94-9dfb-a3330d5828b4" x="65.39" y="0">r</tspan><tspan x="71.07" y="0" xml:space="preserve"> has a corresponding bomb placed ab</tspan><tspan class="b70035a6-65ab-486f-90e4-e4eb312bd367" x="295.29" y="0">ov</tspan><tspan class="bd6923fa-86fc-408b-866f-486afb153fc2" x="308.91" y="0">e.</tspan><tspan x="0" y="19.2">Press [S</tspan><tspan class="3c6acb31-2437-43a9-9e3f-40a5749c21ac" x="51.44" y="19.2">P</tspan><tspan class="f1b97747-7a35-47dc-bf54-8c85d3bc0e22" x="58.64" y="19.2">A</tspan><tspan class="bd6923fa-86fc-408b-866f-486afb153fc2" x="65.44" y="19.2">CE </tspan><tspan class="f1ae2066-e230-4752-87a6-1ce624bdeb61" x="84.14" y="19.2">B</tspan><tspan x="91.69" y="19.2">AR]</tspan><tspan class="bc8306db-e08f-4544-a273-4598eb63883c" x="112.06" y="19.2"> </tspan><tspan x="115.04" y="19.2">to smash</tspan><tspan class="bc8306db-e08f-4544-a273-4598eb63883c" x="171.73" y="19.2"> </tspan><tspan x="174.7" y="19.2">the bombs d</tspan><tspan class="0e8e123e-f5d6-4e94-9dfb-a3330d5828b4" x="249.13" y="19.2">o</tspan><tspan class="0712f970-9cca-424f-b280-bf07271b645b" x="256.09" y="19.2">wn</tspan><tspan class="bc8306db-e08f-4544-a273-4598eb63883c" x="274.22" y="19.2"> </tspan><tspan x="277.2" y="19.2">the ladders in</tspan><tspan x="0" y="38.4">orde</tspan><tspan class="393d93ed-982f-45dc-b549-8c1b97d4d16a" x="27.57" y="38.4">r</tspan><tspan class="77fe4a39-690f-48d8-85f1-e186436ded53" x="33.25" y="38.4"> </tspan><tspan class="0712f970-9cca-424f-b280-bf07271b645b" x="36.22" y="38.4">to kill</tspan><tspan class="77fe4a39-690f-48d8-85f1-e186436ded53" x="69.65" y="38.4"> </tspan><tspan class="0712f970-9cca-424f-b280-bf07271b645b" x="72.62" y="38.4">the monsters. Don’t</tspan><tspan class="9662004d-ab6d-4f16-841f-2e5030a84295" x="192.99" y="38.4"> </tspan><tspan class="e05b230c-1584-4f81-9e13-f2356ab12240" x="195.92" y="38.4">w</tspan><tspan x="206.67" y="38.4">orr</tspan><tspan class="9662004d-ab6d-4f16-841f-2e5030a84295" x="225.61" y="38.4">y</tspan><tspan x="232.53" y="38.4" xml:space="preserve"> i</tspan><tspan class="0e8e123e-f5d6-4e94-9dfb-a3330d5828b4" x="239.04" y="38.4">f</tspan><tspan class="bc8306db-e08f-4544-a273-4598eb63883c" x="244.89" y="38.4"> </tspan><tspan class="0712f970-9cca-424f-b280-bf07271b645b" x="247.87" y="38.4">t</tspan><tspan class="7c6273f4-7cc4-4276-9b85-58105905d269" x="254.06" y="38.4">w</tspan><tspan x="264.81" y="38.4">o monsters climb</tspan><tspan x="0" y="57.6">the ladde</tspan><tspan class="0e8e123e-f5d6-4e94-9dfb-a3330d5828b4" x="56.5" y="57.6">r</tspan><tspan class="bc8306db-e08f-4544-a273-4598eb63883c" x="62.18" y="57.6"> </tspan><tspan x="65.15" y="57.6">tog</tspan><tspan class="5fd85fcf-dfbb-4a80-9972-5862422b9947" x="85.98" y="57.6">e</tspan><tspan x="93.02" y="57.6">the</tspan><tspan class="10719962-28f3-4397-976f-d36c5b25be2f" x="113.49" y="57.6">r</tspan><tspan x="118.57" y="57.6">, one bomb is enough</tspan><tspan class="bc8306db-e08f-4544-a273-4598eb63883c" x="242.64" y="57.6"> </tspan><tspan x="245.61" y="57.6">to kill b</tspan><tspan class="009dc9e8-71b4-4476-b085-131698f756e4" x="289.66" y="57.6">o</tspan><tspan x="296.75" y="57.6">th! Bombs </tspan><tspan x="0" y="76.8">will regenerate</tspan><tspan class="d3e0b4ea-d7cb-48e8-9bc6-4326a61a1637" x="92.7" y="76.8"> </tspan><tspan class="0712f970-9cca-424f-b280-bf07271b645b" x="95.63" y="76.8">within</tspan><tspan class="fd564fe1-aa42-4974-a305-5cfb6bcf4bfe" x="133.74" y="76.8"> </tspan><tspan x="136.75" y="76.8">f</tspan><tspan class="b70035a6-65ab-486f-90e4-e4eb312bd367" x="142.81" y="76.8">e</tspan><tspan class="a9eaf349-cc4a-4b29-b92e-f8c492d71173" x="149.71" y="76.8">w</tspan><tspan x="160.35" y="76.8" xml:space="preserve"> seconds afte</tspan><tspan class="393d93ed-982f-45dc-b549-8c1b97d4d16a" x="244.08" y="76.8">r</tspan><tspan class="bd6923fa-86fc-408b-866f-486afb153fc2" x="249.76" y="76.8" xml:space="preserve"> being smashed.</tspan></text></g></svg>