<svg xmlns="http://www.w3.org/2000/svg" width="1000" height="500" viewBox="0 0 1000 500"><defs><style>.\38 bffbdc4-3941-4355-ab29-a36bc037b350{opacity:0.5;}.\36 4f57eae-cab3-4d03-8c9f-bfb49c9c14f1{fill:none;}.efc229c6-943c-47bf-b060-e5c1afee8ca6{font-size:17px;fill:#666;font-family:LondrinaSolid-Regular, Londrina Solid;}.\30 55cfead-31cb-47be-aaaa-5adf898631f5{letter-spacing:-0.01em;}.\31 c92b462-3dc3-4b24-ac46-ac907f81dc0f{letter-spacing:-0.02em;}.\35 15b6092-9ed6-42f1-885d-55d1e6704691{letter-spacing:-0.03em;}.\33 9fc4df3-e196-45ef-98f5-82108e0453a0{letter-spacing:-0.01em;}.\38 07341f2-07aa-4dbb-a83e-dd42359d1c8a{letter-spacing:-0.01em;}.aebed141-9ad1-4a01-b56f-4a8f340597da{letter-spacing:-0.01em;}</style></defs><title>inst3</title><g id="18ba4d48-7d35-497b-b621-95bf09850fd8" data-name="keyboard"><path d="M705.42,134.25H685.19a4.2,4.2,0,0,0-4.19,4.19v21.12a4.2,4.2,0,0,0,4.19,4.19h20.23a4.2,4.2,0,0,0,4.19-4.19V138.44A4.2,4.2,0,0,0,705.42,134.25Zm-4.17,1.85a3,3,0,0,1,3,2.94V154.8a3,3,0,0,1-3,2.94H689.06a2.94,2.94,0,0,1-2.94-2.94V139a2.94,2.94,0,0,1,2.94-2.94Zm-19.59,2.34a3.53,3.53,0,0,1,3.53-3.53h17.89l-1.87.53H689.06a3.6,3.6,0,0,0-3.6,3.6v15.63l-3.81,4.06Z"/><path class="8bffbdc4-3941-4355-ab29-a36bc037b350" d="M736.11,134.25H715.89a4.2,4.2,0,0,0-4.19,4.19v21.12a4.2,4.2,0,0,0,4.19,4.19h20.22a4.2,4.2,0,0,0,4.19-4.19V138.44A4.19,4.19,0,0,0,736.11,134.25ZM732,136.1a2.94,2.94,0,0,1,2.94,2.94V154.8a2.94,2.94,0,0,1-2.94,2.94H719.76a3,3,0,0,1-3-2.94V139a3,3,0,0,1,3-2.94Zm-19.6,2.34a3.54,3.54,0,0,1,3.54-3.53h17.88l-1.87.53H719.76a3.6,3.6,0,0,0-3.6,3.6v15.63l-3.81,4.06V138.44Z"/><path class="8bffbdc4-3941-4355-ab29-a36bc037b350" d="M736.11,102.25H715.89a4.2,4.2,0,0,0-4.19,4.19v21.12a4.2,4.2,0,0,0,4.19,4.19h20.22a4.2,4.2,0,0,0,4.19-4.19V106.44A4.19,4.19,0,0,0,736.11,102.25ZM732,104.1a2.94,2.94,0,0,1,2.94,2.94V122.8a2.94,2.94,0,0,1-2.94,2.94H719.76a3,3,0,0,1-3-2.94V107a3,3,0,0,1,3-2.94Zm-19.6,2.34a3.54,3.54,0,0,1,3.54-3.53h17.88l-1.87.53H719.76a3.6,3.6,0,0,0-3.6,3.6v15.63l-3.81,4.06V106.44Z"/><path d="M766.81,134.25H746.58a4.2,4.2,0,0,0-4.19,4.19v21.12a4.2,4.2,0,0,0,4.19,4.19h20.23a4.2,4.2,0,0,0,4.19-4.19V138.44A4.2,4.2,0,0,0,766.81,134.25Zm-4.17,1.85a3,3,0,0,1,3,2.94V154.8a3,3,0,0,1-3,2.94H750.45a2.94,2.94,0,0,1-2.94-2.94V139a2.94,2.94,0,0,1,2.94-2.94ZM743,138.44a3.54,3.54,0,0,1,3.54-3.53h17.89l-1.87.53H750.45a3.6,3.6,0,0,0-3.6,3.6v15.63L743,158.73V138.44Z"/><polygon class="64f57eae-cab3-4d03-8c9f-bfb49c9c14f1" points="720.6 114.47 722.42 114.47 722.42 120.41 723.15 120.41 723.15 114.47 724.97 114.47 722.78 110.69 720.6 114.47"/><polygon class="64f57eae-cab3-4d03-8c9f-bfb49c9c14f1" points="692.51 145.44 688.73 147.63 692.51 149.81 692.51 147.99 698.46 147.99 698.46 147.26 692.51 147.26 692.51 145.44"/><polygon class="64f57eae-cab3-4d03-8c9f-bfb49c9c14f1" points="723.15 142.77 722.42 142.77 722.42 148.72 720.6 148.72 722.78 152.5 724.97 148.72 723.15 148.72 723.15 142.77"/><polygon class="64f57eae-cab3-4d03-8c9f-bfb49c9c14f1" points="755.49 147.26 749.54 147.26 749.54 147.99 755.49 147.99 755.49 149.81 759.27 147.63 755.49 145.44 755.49 147.26"/><path d="M755.49,149.81V148h-6v-.73h6v-1.81l3.78,2.18Z"/><path class="8bffbdc4-3941-4355-ab29-a36bc037b350" d="M722.78,152.5l-2.18-3.78h1.82v-5.95h.73v5.95H725Z"/><path d="M698.46,148h-6v1.82l-3.78-2.18,3.78-2.19v1.82h6Z"/><path class="8bffbdc4-3941-4355-ab29-a36bc037b350" d="M723.15,114.47v5.94h-.73v-5.94H720.6l2.19-3.78,2.18,3.78Z"/></g><g id="5705f689-3702-4317-b787-01b30e7f3bdd" data-name="Layer 10"><text class="efc229c6-943c-47bf-b060-e5c1afee8ca6" transform="translate(579 192)">Press left and right arr<tspan class="055cfead-31cb-47be-aaaa-5adf898631f5" x="151.35" y="0">o</tspan><tspan class="1c92b462-3dc3-4b24-ac46-ac907f81dc0f" x="158.74" y="0">w</tspan><tspan x="170.05" y="0"> </tspan><tspan class="515b6092-9ed6-42f1-885d-55d1e6704691" x="173.45" y="0">k</tspan><tspan class="39fc4df3-e196-45ef-98f5-82108e0453a0" x="180.4" y="0">e</tspan><tspan class="807341f2-07aa-4dbb-a83e-dd42359d1c8a" x="187.75" y="0">y</tspan><tspan x="195.19" y="0">s</tspan><tspan class="aebed141-9ad1-4a01-b56f-4a8f340597da" x="202.84" y="0"> </tspan><tspan x="206" y="0">to m</tspan><tspan class="055cfead-31cb-47be-aaaa-5adf898631f5" x="235.23" y="0">ov</tspan><tspan x="249.69" y="0">e along</tspan><tspan class="aebed141-9ad1-4a01-b56f-4a8f340597da" x="295.44" y="0"> </tspan><tspan x="298.6" y="0">the</tspan><tspan x="0" y="20.4">scaffold </tspan></text></g></svg>