<svg xmlns="http://www.w3.org/2000/svg" xmlns:xlink="http://www.w3.org/1999/xlink" width="1000" height="500" viewBox="0 0 1000 500"><defs><style>.\35 39506b6-ad3d-4b10-9cb5-264fb8101b0b,.\35 dd6c9ad-b39b-4474-bc23-d4e85e845126{fill:none;}.\31 fc9a565-1e45-455b-b7fc-ca671b473ba4{font-size:17px;fill:#666;font-family:LondrinaSolid-Regular, Londrina Solid;}.\34 1b7425d-b0a2-4586-9e56-f477838ed9dd{letter-spacing:-0.06em;}.\38 f5fa5ee-a71f-44d8-94c1-998f20fbfd0c{letter-spacing:-0.01em;}.\34 1ca622f-eaf9-4294-9978-280956399953{letter-spacing:-0.01em;}.d4ee4fba-1de1-4173-8c43-0f5518be6ff8{letter-spacing:0em;}.a39e5a82-66d2-4e6f-98a9-1442ef6ee215{letter-spacing:-0.02em;}.\30 5ad2bea-7bcd-445d-8c78-b1d2538ed692{letter-spacing:-0.02em;}.\34 cb000a7-ba88-432e-9cc0-d8bfd811f779{letter-spacing:-0.03em;}.\31 c8e95ec-c2cb-47f5-8ea7-d9ad497c09fb{letter-spacing:-0.01em;}.fe5d7a43-1f4b-47ee-a1fa-14624a7e748a{letter-spacing:-0.01em;}.\31 3cc564f-28ba-49e1-9a19-6d831fe8e52e{letter-spacing:0em;}.\33 8e9d869-a0a6-44f2-9a07-9b5fc3c07902{letter-spacing:-0.02em;}.\35 148e310-3116-4b14-9005-00326c5ad44f{letter-spacing:-0.01em;}.\37 da1469d-299f-4db7-b9c0-4c433cfe39d6{letter-spacing:0em;}.c7c97da1-0ada-4036-9428-b51fbe90667b{letter-spacing:-0.03em;}.\32 6990bf8-2ea1-4033-9560-5282a1349ff6{letter-spacing:-0.01em;}.\35 e6fda5b-9b5e-42c0-829d-597dc5daf8bc{letter-spacing:-0.01em;}.c0e5e2e8-543f-4e79-8f66-8287b3bbd1ef{letter-spacing:-0.03em;}.\30 8c9691c-5283-49b4-a9eb-ceb6539f5d87{letter-spacing:-0.03em;}.\38 766a6e0-6077-4285-b176-e8c415b6ac17,.dec9661f-de6f-4fb7-8b7e-afc78680004b{fill:#4c2605;}.\34 10efa74-afe4-4224-8536-bf1c2b61c19e,.\35 39506b6-ad3d-4b10-9cb5-264fb8101b0b,.\38 766a6e0-6077-4285-b176-e8c415b6ac17{stroke:#000;stroke-miterlimit:10;}.e47811f8-72e5-4d3a-be59-1726180607fd{fill:#513f30;}.\31 ecdd604-f250-42b3-b172-1622b5cd7a15{fill:#383838;}.\35 39506b6-ad3d-4b10-9cb5-264fb8101b0b{stroke-linecap:round;stroke-width:2px;}.\34 10efa74-afe4-4224-8536-bf1c2b61c19e,.\39 674493b-19cc-4072-8f59-0d521405131f{fill:#fff;}.\37 7947bd9-bf56-4849-be55-fbb35dd163bb{fill:#996a2c;}.\32 a8dc53c-eea1-4618-9f0f-34626047dd3e{fill:#1c1c1c;}.\37 1c88419-7d58-465f-982c-74645b439066{fill:#9b9b9b;}.b01baae8-0ffa-4df0-86ff-3351bf744c7a{fill:#727272;}.efba47f5-d9b5-4a60-900f-77d6e6e50416{fill:#b5b5b5;}.e54d1290-b1e6-4c48-93c3-d1784d95e353{clip-path:url(#5f605a0d-e9cf-4dfd-89f8-ab60001b708b);}.\34 87aa9eb-f43c-40c8-942d-5da9728034a0{fill:#606060;}</style><clipPath id="5f605a0d-e9cf-4dfd-89f8-ab60001b708b"><ellipse class="5dd6c9ad-b39b-4474-bc23-d4e85e845126" cx="277.04" cy="169.62" rx="7.65" ry="4.15"/></clipPath></defs><title>inst1</title><g id="482527b8-72f8-4db5-845b-dfa40c6a55e5" data-name="Layer 5"><text class="1fc9a565-1e45-455b-b7fc-ca671b473ba4" transform="translate(155 243) scale(1.02 1)"><tspan class="41b7425d-b0a2-4586-9e56-f477838ed9dd">Y</tspan><tspan x="6.31" y="0">ou</tspan><tspan class="8f5fa5ee-a71f-44d8-94c1-998f20fbfd0c" x="21.57" y="0">’</tspan><tspan x="24.91" y="0">re stuck on a scaffold afte</tspan><tspan class="41ca622f-eaf9-4294-9978-280956399953" x="199.65" y="0">r</tspan><tspan class="d4ee4fba-1de1-4173-8c43-0f5518be6ff8" x="205.68" y="0" xml:space="preserve"> a hard da</tspan><tspan class="a39e5a82-66d2-4e6f-98a9-1442ef6ee215" x="269.77" y="0">y</tspan><tspan x="277.11" y="0" xml:space="preserve"> o</tspan><tspan class="41ca622f-eaf9-4294-9978-280956399953" x="288.13" y="0">f</tspan><tspan x="294.35" y="0"> </tspan><tspan x="0" y="20.4">construction</tspan><tspan class="05ad2bea-7bcd-445d-8c78-b1d2538ed692" x="83.79" y="20.4"> </tspan><tspan class="8f5fa5ee-a71f-44d8-94c1-998f20fbfd0c" x="86.9" y="20.4">w</tspan><tspan x="98.33" y="20.4">ork. N</tspan><tspan class="41ca622f-eaf9-4294-9978-280956399953" x="134.67" y="20.4">o</tspan><tspan class="4cb000a7-ba88-432e-9cc0-d8bfd811f779" x="142.07" y="20.4">w</tspan><tspan x="153.2" y="20.4">,</tspan><tspan class="1c8e95ec-c2cb-47f5-8ea7-d9ad497c09fb" x="156.4" y="20.4"> </tspan><tspan x="159.56" y="20.4">there are monsters </tspan><tspan x="0" y="40.8">climbing up</tspan><tspan class="1c8e95ec-c2cb-47f5-8ea7-d9ad497c09fb" x="72.1" y="40.8"> </tspan><tspan x="75.26" y="40.8">the</tspan><tspan class="fe5d7a43-1f4b-47ee-a1fa-14624a7e748a" x="97" y="40.8"> </tspan><tspan class="13cc564f-28ba-49e1-9a19-6d831fe8e52e" x="100.2" y="40.8">fi</tspan><tspan class="41ca622f-eaf9-4294-9978-280956399953" x="110.16" y="40.8">v</tspan><tspan x="117.23" y="40.8">e ladders surrounding</tspan><tspan class="38e9d869-a0a6-44f2-9a07-9b5fc3c07902" x="258.07" y="40.8"> </tspan><tspan class="5148e310-3116-4b14-9005-00326c5ad44f" x="261.17" y="40.8">y</tspan><tspan x="268.6" y="40.8">ou. </tspan><tspan class="7da1469d-299f-4db7-b9c0-4c433cfe39d6" x="0" y="61.2">M</tspan><tspan x="8.43" y="61.2">a</tspan><tspan class="c7c97da1-0ada-4036-9428-b51fbe90667b" x="16.52" y="61.2">k</tspan><tspan x="23.48" y="61.2">e use o</tspan><tspan class="41ca622f-eaf9-4294-9978-280956399953" x="68.29" y="61.2">f</tspan><tspan class="38e9d869-a0a6-44f2-9a07-9b5fc3c07902" x="74.51" y="61.2"> </tspan><tspan class="5148e310-3116-4b14-9005-00326c5ad44f" x="77.6" y="61.2">y</tspan><tspan x="85.03" y="61.2">ou</tspan><tspan class="26990bf8-2ea1-4033-9560-5282a1349ff6" x="100.3" y="61.2">r</tspan><tspan x="106.33" y="61.2" xml:space="preserve"> hamme</tspan><tspan class="41ca622f-eaf9-4294-9978-280956399953" x="156.25" y="61.2">r</tspan><tspan class="d4ee4fba-1de1-4173-8c43-0f5518be6ff8" x="162.28" y="61.2" xml:space="preserve"> and bomb</tspan><tspan class="5e6fda5b-9b5e-42c0-829d-597dc5daf8bc" x="227.71" y="61.2"> </tspan><tspan class="13cc564f-28ba-49e1-9a19-6d831fe8e52e" x="230.88" y="61.2">to </tspan><tspan class="c0e5e2e8-543f-4e79-8f66-8287b3bbd1ef" x="248.47" y="61.2">k</tspan><tspan x="255.42" y="61.2">eep </tspan><tspan class="08c9691c-5283-49b4-a9eb-ceb6539f5d87" x="0" y="81.6">‘</tspan><tspan x="3.03" y="81.6">em d</tspan><tspan class="41ca622f-eaf9-4294-9978-280956399953" x="33.47" y="81.6">o</tspan><tspan x="40.87" y="81.6">wn!</tspan></text></g><g id="36457957-c2d5-4c04-82c6-62b93ff940f7" data-name="Layer 7"><rect class="8766a6e0-6077-4285-b176-e8c415b6ac17" x="274.84" y="179.15" width="12.7" height="2.13"/><rect class="8766a6e0-6077-4285-b176-e8c415b6ac17" x="274.84" y="184.13" width="12.7" height="2.13"/><rect class="8766a6e0-6077-4285-b176-e8c415b6ac17" x="274.84" y="189.1" width="12.7" height="2.13"/><rect class="8766a6e0-6077-4285-b176-e8c415b6ac17" x="274.84" y="194.08" width="12.7" height="2.13"/><rect class="8766a6e0-6077-4285-b176-e8c415b6ac17" x="274.84" y="199.06" width="12.7" height="2.13"/><rect class="8766a6e0-6077-4285-b176-e8c415b6ac17" x="274.84" y="204.03" width="12.7" height="2.13"/><rect class="8766a6e0-6077-4285-b176-e8c415b6ac17" x="274.84" y="209.01" width="12.7" height="2.13"/><rect class="8766a6e0-6077-4285-b176-e8c415b6ac17" x="274.84" y="213.98" width="12.7" height="2.13"/><rect class="8766a6e0-6077-4285-b176-e8c415b6ac17" x="274.84" y="174.18" width="12.7" height="2.13"/><rect class="8766a6e0-6077-4285-b176-e8c415b6ac17" x="274.84" y="169.2" width="12.7" height="2.13"/><rect class="8766a6e0-6077-4285-b176-e8c415b6ac17" x="274.84" y="164.23" width="12.7" height="2.13"/><rect class="8766a6e0-6077-4285-b176-e8c415b6ac17" x="274.84" y="159.25" width="12.7" height="2.13"/><rect class="8766a6e0-6077-4285-b176-e8c415b6ac17" x="274.84" y="154.27" width="12.7" height="2.13"/><rect class="8766a6e0-6077-4285-b176-e8c415b6ac17" x="274.84" y="149.3" width="12.7" height="2.13"/><rect class="8766a6e0-6077-4285-b176-e8c415b6ac17" x="274.84" y="144.32" width="12.7" height="2.13"/><rect class="8766a6e0-6077-4285-b176-e8c415b6ac17" x="274.84" y="139.35" width="12.7" height="2.13"/><rect class="8766a6e0-6077-4285-b176-e8c415b6ac17" x="274.84" y="134.37" width="12.7" height="2.13"/><rect class="8766a6e0-6077-4285-b176-e8c415b6ac17" x="274.84" y="129.4" width="12.7" height="2.13"/><rect class="8766a6e0-6077-4285-b176-e8c415b6ac17" x="274.84" y="129.4" width="12.7" height="2.13"/><path class="dec9661f-de6f-4fb7-8b7e-afc78680004b" d="M287.54,219.57a1.31,1.31,0,0,1-1.27-1.35V127a1.27,1.27,0,1,1,2.54,0v91.26A1.31,1.31,0,0,1,287.54,219.57Z"/><path d="M287.54,125.73a1.19,1.19,0,0,1,1.15,1.23v91.26a1.15,1.15,0,1,1-2.29,0V127a1.19,1.19,0,0,1,1.14-1.23m0-.25a1.43,1.43,0,0,0-1.39,1.48v91.26a1.4,1.4,0,1,0,2.79,0V127a1.44,1.44,0,0,0-1.4-1.48Z"/><path class="dec9661f-de6f-4fb7-8b7e-afc78680004b" d="M274.84,219.57a1.31,1.31,0,0,1-1.27-1.35V127a1.27,1.27,0,1,1,2.54,0v91.26A1.31,1.31,0,0,1,274.84,219.57Z"/><path d="M274.84,125.73A1.19,1.19,0,0,1,276,127v91.26a1.15,1.15,0,1,1-2.29,0V127a1.19,1.19,0,0,1,1.15-1.23m0-.25a1.44,1.44,0,0,0-1.4,1.48v91.26a1.4,1.4,0,1,0,2.79,0V127a1.43,1.43,0,0,0-1.39-1.48Z"/><rect class="dec9661f-de6f-4fb7-8b7e-afc78680004b" x="244.04" y="120.62" width="74.06" height="7.02"/><path d="M318.06,120.82v6.63h-74v-6.63h74m.08-.39H244v7.4h74.14v-7.4Z"/><rect class="e47811f8-72e5-4d3a-be59-1726180607fd" x="310.57" y="78.01" width="1.3" height="24.26" transform="translate(-6.4 26.11) rotate(-4.76)"/><path d="M314.52,88.06l-7,.62a3.95,3.95,0,1,1-.66-7.87l7-.62Z"/><circle class="1ecdd604-f250-42b3-b172-1622b5cd7a15" cx="314.2" cy="84.13" r="3.95"/><line class="539506b6-ad3d-4b10-9cb5-264fb8101b0b" x1="305.58" y1="90.83" x2="305.58" y2="107.96"/><polyline class="539506b6-ad3d-4b10-9cb5-264fb8101b0b" points="308.89 119.15 307.46 107.96 303.64 107.96 302.72 119.15"/><polyline class="539506b6-ad3d-4b10-9cb5-264fb8101b0b" points="313.37 91.64 314.77 98.88 308.53 96.67 302.5 96.67 304.29 102.72 310.5 100.02"/><ellipse id="34e8fa73-c9c5-4fd4-8f80-5685efccbb96" data-name="Right Hand" class="410efa74-afe4-4224-8536-bf1c2b61c19e" cx="312.45" cy="100.02" rx="1.95" ry="1.13"/><ellipse id="7ae00615-dc02-4f39-87eb-8094dff62eb1" data-name="Left Hand" class="410efa74-afe4-4224-8536-bf1c2b61c19e" cx="311.58" cy="91.64" rx="1.78" ry="0.81"/><ellipse class="410efa74-afe4-4224-8536-bf1c2b61c19e" cx="300.66" cy="119.33" rx="2.51" ry="0.65"/><ellipse class="410efa74-afe4-4224-8536-bf1c2b61c19e" cx="310.98" cy="119.33" rx="2.51" ry="0.65"/><circle id="b37b6198-7b30-490d-9adf-4f4de6ba6e33" data-name="Head" class="410efa74-afe4-4224-8536-bf1c2b61c19e" cx="305.58" cy="90.83" r="5.03"/><path class="77947bd9-bf56-4849-be55-fbb35dd163bb" d="M289.54,104c1.16.45,1.64-.11,1.64-.11-3.08-11.55-11.85-2.22-10.37,2.24l1.26.34C281.07,102.93,287.33,96,289.54,104Z"/><circle class="2a8dc53c-eea1-4618-9f0f-34626047dd3e" cx="280.77" cy="113.35" r="6.92"/><polygon class="2a8dc53c-eea1-4618-9f0f-34626047dd3e" points="282.11 108.82 280.17 108.69 279.71 104.59 283.03 104.82 282.11 108.82"/><path id="95a89e9a-71d9-4e66-8f02-b646e9eacee5" data-name="Left Arm" class="71c88419-7d58-465f-982c-74645b439066" d="M274.65,171.89l-1.15,1.25s-3.74-4-4.11-5.64c0-1.63,1.8-5.77,1.8-5.77s.12-1.15-.39-1.57a2.08,2.08,0,0,1-.52-2.85c.1,1.67,1.14,1.88,1.14,1.88a2.21,2.21,0,0,1,1.49-3.19,3.87,3.87,0,0,0-.37,3.16s.39-3.54,2.8-2.81a2.91,2.91,0,0,0-1.12,3.76s.89.29,2.28-1.21c-.08,1.18-1.07,2.07-2.61,2.47a4.9,4.9,0,0,0-1.25.55c-.59,1.11-.8,3.91-1.58,5.58A37.48,37.48,0,0,0,274.65,171.89Z"/><path id="b216ea9d-7763-4411-bc62-32505d1ce8ed" data-name="Right Arm" class="71c88419-7d58-465f-982c-74645b439066" d="M278.68,171.89l-.43,1.83s5,3.23,7.94,3.47a9,9,0,0,0,3.39-5,8.89,8.89,0,0,0,1.42-1.35,3.58,3.58,0,0,0,.1-3.35,3.89,3.89,0,0,1-1.23,2.33s.88-2.38-.68-3.56a4.58,4.58,0,0,1-.47,3.08,2.44,2.44,0,0,0-1.83-3.08c1.74,2.24.47,3.84.47,3.84s-.93-.05-1.72-2.07a2.65,2.65,0,0,0,1.35,3.18,4.57,4.57,0,0,1,1.25.7c.15.88-1.51,1.86-2.2,3.2C284,175,278.68,171.89,278.68,171.89Z"/><g id="f9014794-b5fb-4150-85ca-576f53a7b68c" data-name="Left Leg"><path id="83666088-7291-48e2-a431-3feae3fdf6d3" data-name="Left Leg" class="b01baae8-0ffa-4df0-86ff-3351bf744c7a" d="M272.86,191.4l-1.85-.15c.44-1.71-.17-2.92.11-4.75,1.27-3.46,2.63-4.33,2.63-4.33l.9.78a18.86,18.86,0,0,0-2.11,3.84A12.42,12.42,0,0,0,272.86,191.4Z"/><path class="b01baae8-0ffa-4df0-86ff-3351bf744c7a" d="M273.19,191.5c0,.29-.37.53-1.52.53s-2.09-.22-2.09-.53c0-.59.93-1.07,2.09-1.07S273.19,190.91,273.19,191.5Z"/></g><g id="9dca965d-b32d-42e5-830f-99c6dcb6cf57" data-name="Right Leg"><path id="1f4a6041-d797-44d0-84d5-cf77c112cb0e" data-name="Left Leg" class="71c88419-7d58-465f-982c-74645b439066" d="M280.59,186.86l2.14.15c-.92-1.69.48-5.32,0-6.87-1-.34-5,3-5,3v1.22s2.59-2.24,3.61-2.19C281.73,182.78,280.59,186.86,280.59,186.86Z"/><path class="71c88419-7d58-465f-982c-74645b439066" d="M280.32,187.06c0,.29.38.53,1.53.53s2.09-.22,2.09-.53c0-.59-.93-1.07-2.09-1.07S280.32,186.47,280.32,187.06Z"/><path id="14144414-ad4f-4c03-8173-9d1868472ac7" data-name="Left Leg" class="b01baae8-0ffa-4df0-86ff-3351bf744c7a" d="M280.59,186.86l2.14.15c-.92-1.69.48-5.32,0-6.87-1-.34-5,3-5,3v1.22s2.59-2.24,3.61-2.19C281.73,182.78,280.59,186.86,280.59,186.86Z"/><path class="b01baae8-0ffa-4df0-86ff-3351bf744c7a" d="M280.32,187.06c0,.29.38.53,1.53.53s2.09-.22,2.09-.53c0-.59-.93-1.07-2.09-1.07S280.32,186.47,280.32,187.06Z"/></g><ellipse id="0114d7df-5677-47b4-bc29-b81c5c43bb48" data-name="Body" class="71c88419-7d58-465f-982c-74645b439066" cx="277.04" cy="177.87" rx="4.5" ry="7.21"/><path id="216ce153-2cf9-4d8b-82cf-edaf0759a8a8" data-name="Tail" class="71c88419-7d58-465f-982c-74645b439066" d="M277.75,192.11,279,192l-.82,2.71-3-2.44,1.52-.13c-1.82-4.29-.12-5.53-.92-8.59l2.69-.67C277.29,185.21,276.23,188.58,277.75,192.11Z"/><g id="3d95c225-7298-4bcf-8956-889aa29af3fb" data-name="Head"><ellipse id="66ca2f06-4120-446b-a7dd-b82fda592693" data-name="Head" class="efba47f5-d9b5-4a60-900f-77d6e6e50416" cx="277.04" cy="169.62" rx="7.65" ry="4.15"/><g class="e54d1290-b1e6-4c48-93c3-d1784d95e353"><path class="9674493b-19cc-4072-8f59-0d521405131f" d="M272.28,165.37l3.52.16a9.28,9.28,0,0,0-3,2.39A3,3,0,0,1,272.28,165.37Z"/></g><g class="e54d1290-b1e6-4c48-93c3-d1784d95e353"><ellipse cx="273.71" cy="165.82" rx="0.74" ry="0.67"/></g><g class="e54d1290-b1e6-4c48-93c3-d1784d95e353"><path class="9674493b-19cc-4072-8f59-0d521405131f" d="M281.79,165.37l-3.51.16a9.29,9.29,0,0,1,3,2.39A3,3,0,0,0,281.79,165.37Z"/></g><g class="e54d1290-b1e6-4c48-93c3-d1784d95e353"><ellipse cx="280.37" cy="165.82" rx="0.74" ry="0.67"/></g></g><path id="638530bb-f7a0-413c-8924-72cb70dcb9b0" data-name="Left Horn" class="487aa9eb-f43c-40c8-942d-5da9728034a0" d="M272.21,168.48c-1.66,0-6,3.05-.68,6.82-.78-3.32,1.18-4.19,2.25-4.52A2.38,2.38,0,0,0,272.21,168.48Z"/><path class="487aa9eb-f43c-40c8-942d-5da9728034a0" d="M281.87,168.48c1.65,0,6,3.05.68,6.82.77-3.32-1.18-4.19-2.25-4.52A2.36,2.36,0,0,1,281.87,168.48Z"/></g></svg>