<svg id="db72496a-74d5-4e52-977c-4986b7d8477e" data-name="inst-bg" xmlns="http://www.w3.org/2000/svg" width="1000" height="500" viewBox="0 0 1000 500"><defs><style>.b19a8d3c-b29f-4633-bc94-7e5e4c653d31{opacity:0.2;}.f29fe1ee-ac65-466f-85d7-6ca0288e8221{opacity:0.15;}</style></defs><title>inst-bg</title><g class="b19a8d3c-b29f-4633-bc94-7e5e4c653d31"><path class="f29fe1ee-ac65-466f-85d7-6ca0288e8221" d="M701.33,181.26l81.49,56,5.08-10.19Z"/><path class="f29fe1ee-ac65-466f-85d7-6ca0288e8221" d="M594.42,64.13,584.19,74.31l66.19,66.19Z"/><path class="f29fe1ee-ac65-466f-85d7-6ca0288e8221" d="M752.26,64.13l-56,76.37,66.23-66.19Z"/><path class="f29fe1ee-ac65-466f-85d7-6ca0288e8221" d="M635.13,288.2l25.45-91.68L619.85,283.1Z"/><path class="f29fe1ee-ac65-466f-85d7-6ca0288e8221" d="M670.76,135.39l10.18-71.26H665.69Z"/><path class="f29fe1ee-ac65-466f-85d7-6ca0288e8221" d="M701.33,262.74h10.18l-25.46-66.22Z"/><path class="f29fe1ee-ac65-466f-85d7-6ca0288e8221" d="M665.68,166h-5.09c-10.18,5.1-15.26,10.18-25.44,10.18-15.28,0-40.72-15.27-71.3-40.75l-15.27-10.15C518,99.78,497.65,84.49,472.18,84.49c-15.27,0-25.48,5.1-35.64,20.39-10.18,10.18-15.27,20.37-15.27,40.74v5c-15.29,0-25.44,5.12-30.58,5.12v35.65c-56,25.44-86.56,61.11-86.56,117.09,0,35.68,15.28,66.23,35.65,91.7,25.46,20.36,56.05,35.63,91.66,35.63A122.86,122.86,0,0,0,518,400.23c25.45-25.47,40.74-56,40.74-91.7,0-56-30.59-96.74-86.58-117.09V155.79c-10.2,0-20.37-5.12-30.56-5.12,0-30.51,10.19-40.71,30.56-40.71q22.92,0,61.09,30.53l15.29,10.18c35.64,30.58,61.08,45.85,86.57,45.85,10.18,0,20.35,0,30.55-5.07,5.08-5.11,10.2-10.19,10.2-15.3,0-10.18,0-10.18-10.19-10.18Zm-266,248.43C316.1,366,330.49,284,349.77,247.33l26,11.09s-.35,1.06-.37,1.09l-.51,1c-1.73,3.33-41.64,82.63,39,129.34Z"/><path class="f29fe1ee-ac65-466f-85d7-6ca0288e8221" d="M772.64,155.79V145.6l-66.22,15.27Z"/></g></svg>