<svg xmlns="http://www.w3.org/2000/svg" xmlns:xlink="http://www.w3.org/1999/xlink" width="1000" height="500" viewBox="0 0 1000 500"><defs><style>.\38 61a4e2c-4b1c-4294-b8f9-29f656a41c9f,.e941944b-01b7-41c2-a0f9-aac6d81ef920{fill:none;}.\36 437814e-b44a-4367-a434-ac92ca610404{font-size:16px;fill:#666;font-family:LondrinaSolid-Regular, Londrina Solid;}.\35 d3d1fa7-e9ec-4b35-a20b-6ad8fe005303{letter-spacing:-0.06em;}.\36 e7393fd-16c1-47e9-baa8-41958e47d072{letter-spacing:-0.01em;}.a620dd64-18f7-4803-a453-d884c3dff16c{letter-spacing:-0.01em;}.a6ea6cbf-ea7c-4db8-851d-36fc354c2010{letter-spacing:-0.02em;}.c76cfcd5-d38a-40bc-b6fd-0f7398fd5ffc{letter-spacing:-0.01em;}.e8bde69d-19ac-4ae1-83e8-5f3151a400b0{letter-spacing:-0.03em;}.\34 590a236-d5e2-4c72-a403-4df90a7d8088{letter-spacing:-0.01em;}.d0040d66-59d7-4be7-89ad-39bc03c89a57{letter-spacing:-0.01em;}.b85d2471-9dad-4371-825c-f1245b7c5716{letter-spacing:0em;}.\39 b2fea3b-5ca8-4c56-9135-981eaa6beada{letter-spacing:-0.01em;}.\31 65574c7-8523-4347-8081-61519960dd7c{letter-spacing:0em;}.\30 006cd85-ac87-44e9-9a7b-6fa6b1128b26{letter-spacing:-0.01em;}.\30 1d98bc3-9c74-4984-aba5-9b3b45fcd58d{letter-spacing:-0.02em;}.\37 b668f60-7e24-4872-8ab1-b04b082dea90{letter-spacing:0em;}.b97584c3-fe76-48b7-ba06-2ea0a3b8df76{letter-spacing:-0.03em;}.e1695a2b-ed48-4969-8961-e02c1993682c{letter-spacing:-0.02em;}.b33cb4a0-4c30-4292-bc42-12cf39894573{letter-spacing:-0.03em;}.a9811a76-f5ee-4eae-b562-0ff6a3019187,.c8059f18-e116-4cbf-87c2-cf147334f825{fill:#4c2605;}.\37 c80d403-9c5f-43f2-8b99-06a9425cbe91,.c8059f18-e116-4cbf-87c2-cf147334f825,.e941944b-01b7-41c2-a0f9-aac6d81ef920{stroke:#000;stroke-miterlimit:10;}.\38 51b50f4-225e-4de0-a950-6f4557c34b4e{fill:#513f30;}.cdc2689a-bc3d-4a90-9ce0-fcc47351db75{fill:#383838;}.e941944b-01b7-41c2-a0f9-aac6d81ef920{stroke-linecap:round;stroke-width:2px;}.\37 c80d403-9c5f-43f2-8b99-06a9425cbe91,.fecc9e4a-c997-4b1b-ba61-b2c29e12a370{fill:#fff;}.\34 d4e767d-f99c-40ec-bb9b-056a396c4f3e{fill:#996a2c;}.\36 e5dc164-e88c-49ff-956a-8969719ca6ff{fill:#1c1c1c;}.\30 54729c1-d291-484b-963f-a9b2ec9058e1{fill:#9b9b9b;}.\34 cf7a631-b728-4107-955c-840ce34ae76a{fill:#727272;}.b1b5fce8-7bbf-42f7-8800-c054b6df6fe9{fill:#b5b5b5;}.\30 a7f289a-93b5-4fd6-af61-93385ac29c99{clip-path:url(#004a59a9-102a-49fe-80c0-7700edfcf79d);}.\35 4e52bcf-fcba-46e5-a3c3-54951d3e57bd{fill:#606060;}</style><clipPath id="004a59a9-102a-49fe-80c0-7700edfcf79d"><ellipse class="861a4e2c-4b1c-4294-b8f9-29f656a41c9f" cx="277.04" cy="169.62" rx="7.65" ry="4.15"/></clipPath></defs><title>inst-01</title><g id="f89bf6a8-b71a-40a7-8f56-05bca483f690" data-name="Layer 5"><text class="6437814e-b44a-4367-a434-ac92ca610404" transform="translate(155 243) scale(1.02 1)"><tspan class="5d3d1fa7-e9ec-4b35-a20b-6ad8fe005303">Y</tspan><tspan x="5.94" y="0">ou</tspan><tspan class="6e7393fd-16c1-47e9-baa8-41958e47d072" x="20.3" y="0">’</tspan><tspan x="23.44" y="0">re stuck on a scaffold afte</tspan><tspan class="a620dd64-18f7-4803-a453-d884c3dff16c" x="187.9" y="0">r</tspan><tspan x="193.58" y="0" xml:space="preserve"> a hard da</tspan><tspan class="a6ea6cbf-ea7c-4db8-851d-36fc354c2010" x="253.9" y="0">y</tspan><tspan x="260.81" y="0" xml:space="preserve"> o</tspan><tspan class="a620dd64-18f7-4803-a453-d884c3dff16c" x="271.18" y="0">f</tspan><tspan x="277.04" y="0"> </tspan><tspan x="0" y="19.2">construction</tspan><tspan class="a6ea6cbf-ea7c-4db8-851d-36fc354c2010" x="78.86" y="19.2"> </tspan><tspan class="c76cfcd5-d38a-40bc-b6fd-0f7398fd5ffc" x="81.79" y="19.2">w</tspan><tspan x="92.54" y="19.2">ork. N</tspan><tspan class="a620dd64-18f7-4803-a453-d884c3dff16c" x="126.75" y="19.2">o</tspan><tspan class="e8bde69d-19ac-4ae1-83e8-5f3151a400b0" x="133.71" y="19.2">w</tspan><tspan x="144.19" y="19.2">,</tspan><tspan class="4590a236-d5e2-4c72-a403-4df90a7d8088" x="147.2" y="19.2"> </tspan><tspan x="150.17" y="19.2">there are monsters </tspan><tspan x="0" y="38.4">climbing up</tspan><tspan class="d0040d66-59d7-4be7-89ad-39bc03c89a57" x="67.85" y="38.4"> </tspan><tspan class="b85d2471-9dad-4371-825c-f1245b7c5716" x="70.83" y="38.4">the</tspan><tspan class="9b2fea3b-5ca8-4c56-9135-981eaa6beada" x="91.29" y="38.4"> </tspan><tspan class="165574c7-8523-4347-8081-61519960dd7c" x="94.3" y="38.4">fi</tspan><tspan class="0006cd85-ac87-44e9-9a7b-6fa6b1128b26" x="103.68" y="38.4">v</tspan><tspan class="b85d2471-9dad-4371-825c-f1245b7c5716" x="110.33" y="38.4">e ladders surrounding</tspan><tspan class="01d98bc3-9c74-4984-aba5-9b3b45fcd58d" x="242.89" y="38.4"> </tspan><tspan class="9b2fea3b-5ca8-4c56-9135-981eaa6beada" x="245.8" y="38.4">y</tspan><tspan x="252.8" y="38.4">ou. </tspan><tspan class="7b668f60-7e24-4872-8ab1-b04b082dea90" x="0" y="57.6">M</tspan><tspan x="7.94" y="57.6">a</tspan><tspan class="b97584c3-fe76-48b7-ba06-2ea0a3b8df76" x="15.55" y="57.6">k</tspan><tspan x="22.1" y="57.6">e use o</tspan><tspan class="a620dd64-18f7-4803-a453-d884c3dff16c" x="64.27" y="57.6">f</tspan><tspan class="e1695a2b-ed48-4969-8961-e02c1993682c" x="70.13" y="57.6"> </tspan><tspan class="9b2fea3b-5ca8-4c56-9135-981eaa6beada" x="73.04" y="57.6">y</tspan><tspan class="165574c7-8523-4347-8081-61519960dd7c" x="80.03" y="57.6">ou</tspan><tspan class="a620dd64-18f7-4803-a453-d884c3dff16c" x="94.4" y="57.6">r</tspan><tspan x="100.08" y="57.6" xml:space="preserve"> hamme</tspan><tspan class="a620dd64-18f7-4803-a453-d884c3dff16c" x="147.05" y="57.6">r</tspan><tspan x="152.74" y="57.6" xml:space="preserve"> and bomb</tspan><tspan class="d0040d66-59d7-4be7-89ad-39bc03c89a57" x="214.32" y="57.6"> </tspan><tspan class="b85d2471-9dad-4371-825c-f1245b7c5716" x="217.29" y="57.6">to </tspan><tspan class="b97584c3-fe76-48b7-ba06-2ea0a3b8df76" x="233.85" y="57.6">k</tspan><tspan x="240.4" y="57.6">eep </tspan><tspan class="b33cb4a0-4c30-4292-bc42-12cf39894573" x="0" y="76.8">‘</tspan><tspan x="2.85" y="76.8">em d</tspan><tspan class="0006cd85-ac87-44e9-9a7b-6fa6b1128b26" x="31.5" y="76.8">o</tspan><tspan x="38.46" y="76.8">wn!</tspan></text></g><g id="68c63cd1-251b-4aeb-a78d-9ee4ecc9b718" data-name="Layer 7"><rect class="c8059f18-e116-4cbf-87c2-cf147334f825" x="274.84" y="179.15" width="12.7" height="2.13"/><rect class="c8059f18-e116-4cbf-87c2-cf147334f825" x="274.84" y="184.13" width="12.7" height="2.13"/><rect class="c8059f18-e116-4cbf-87c2-cf147334f825" x="274.84" y="189.1" width="12.7" height="2.13"/><rect class="c8059f18-e116-4cbf-87c2-cf147334f825" x="274.84" y="194.08" width="12.7" height="2.13"/><rect class="c8059f18-e116-4cbf-87c2-cf147334f825" x="274.84" y="199.06" width="12.7" height="2.13"/><rect class="c8059f18-e116-4cbf-87c2-cf147334f825" x="274.84" y="204.03" width="12.7" height="2.13"/><rect class="c8059f18-e116-4cbf-87c2-cf147334f825" x="274.84" y="209.01" width="12.7" height="2.13"/><rect class="c8059f18-e116-4cbf-87c2-cf147334f825" x="274.84" y="213.98" width="12.7" height="2.13"/><rect class="c8059f18-e116-4cbf-87c2-cf147334f825" x="274.84" y="174.18" width="12.7" height="2.13"/><rect class="c8059f18-e116-4cbf-87c2-cf147334f825" x="274.84" y="169.2" width="12.7" height="2.13"/><rect class="c8059f18-e116-4cbf-87c2-cf147334f825" x="274.84" y="164.23" width="12.7" height="2.13"/><rect class="c8059f18-e116-4cbf-87c2-cf147334f825" x="274.84" y="159.25" width="12.7" height="2.13"/><rect class="c8059f18-e116-4cbf-87c2-cf147334f825" x="274.84" y="154.27" width="12.7" height="2.13"/><rect class="c8059f18-e116-4cbf-87c2-cf147334f825" x="274.84" y="149.3" width="12.7" height="2.13"/><rect class="c8059f18-e116-4cbf-87c2-cf147334f825" x="274.84" y="144.32" width="12.7" height="2.13"/><rect class="c8059f18-e116-4cbf-87c2-cf147334f825" x="274.84" y="139.35" width="12.7" height="2.13"/><rect class="c8059f18-e116-4cbf-87c2-cf147334f825" x="274.84" y="134.37" width="12.7" height="2.13"/><rect class="c8059f18-e116-4cbf-87c2-cf147334f825" x="274.84" y="129.4" width="12.7" height="2.13"/><rect class="c8059f18-e116-4cbf-87c2-cf147334f825" x="274.84" y="129.4" width="12.7" height="2.13"/><path class="a9811a76-f5ee-4eae-b562-0ff6a3019187" d="M287.54,219.57a1.31,1.31,0,0,1-1.27-1.35V127a1.27,1.27,0,1,1,2.54,0v91.26A1.31,1.31,0,0,1,287.54,219.57Z"/><path d="M287.54,125.73a1.19,1.19,0,0,1,1.15,1.23v91.26a1.15,1.15,0,1,1-2.29,0V127a1.19,1.19,0,0,1,1.14-1.23m0-.25a1.43,1.43,0,0,0-1.39,1.48v91.26a1.4,1.4,0,1,0,2.79,0V127a1.44,1.44,0,0,0-1.4-1.48Z"/><path class="a9811a76-f5ee-4eae-b562-0ff6a3019187" d="M274.84,219.57a1.31,1.31,0,0,1-1.27-1.35V127a1.27,1.27,0,1,1,2.54,0v91.26A1.31,1.31,0,0,1,274.84,219.57Z"/><path d="M274.84,125.73A1.19,1.19,0,0,1,276,127v91.26a1.15,1.15,0,1,1-2.29,0V127a1.19,1.19,0,0,1,1.15-1.23m0-.25a1.44,1.44,0,0,0-1.4,1.48v91.26a1.4,1.4,0,1,0,2.79,0V127a1.43,1.43,0,0,0-1.39-1.48Z"/><rect class="a9811a76-f5ee-4eae-b562-0ff6a3019187" x="244.04" y="120.62" width="74.06" height="7.02"/><path d="M318.06,120.82v6.63h-74v-6.63h74m.08-.39H244v7.4h74.14v-7.4Z"/><rect class="851b50f4-225e-4de0-a950-6f4557c34b4e" x="310.57" y="78.01" width="1.3" height="24.26" transform="translate(-6.4 26.11) rotate(-4.76)"/><path d="M314.52,88.06l-7,.62a3.95,3.95,0,1,1-.66-7.87l7-.62Z"/><circle class="cdc2689a-bc3d-4a90-9ce0-fcc47351db75" cx="314.2" cy="84.13" r="3.95"/><line class="e941944b-01b7-41c2-a0f9-aac6d81ef920" x1="305.58" y1="90.83" x2="305.58" y2="107.96"/><polyline class="e941944b-01b7-41c2-a0f9-aac6d81ef920" points="308.89 119.15 307.46 107.96 303.64 107.96 302.72 119.15"/><polyline class="e941944b-01b7-41c2-a0f9-aac6d81ef920" points="313.37 91.64 314.77 98.88 308.53 96.67 302.5 96.67 304.29 102.72 310.5 100.02"/><ellipse id="13234807-f341-4c86-bb22-f48064d9a438" data-name="Right Hand" class="7c80d403-9c5f-43f2-8b99-06a9425cbe91" cx="312.45" cy="100.02" rx="1.95" ry="1.13"/><ellipse id="afd33c49-a000-41e1-88a0-e2532afb79e9" data-name="Left Hand" class="7c80d403-9c5f-43f2-8b99-06a9425cbe91" cx="311.58" cy="91.64" rx="1.78" ry="0.81"/><ellipse class="7c80d403-9c5f-43f2-8b99-06a9425cbe91" cx="300.66" cy="119.33" rx="2.51" ry="0.65"/><ellipse class="7c80d403-9c5f-43f2-8b99-06a9425cbe91" cx="310.98" cy="119.33" rx="2.51" ry="0.65"/><circle id="9bfe960e-b79a-4a27-a428-12a900e431bb" data-name="Head" class="7c80d403-9c5f-43f2-8b99-06a9425cbe91" cx="305.58" cy="90.83" r="5.03"/><path class="4d4e767d-f99c-40ec-bb9b-056a396c4f3e" d="M289.54,104c1.16.45,1.64-.11,1.64-.11-3.08-11.55-11.85-2.22-10.37,2.24l1.26.34C281.07,102.93,287.33,96,289.54,104Z"/><circle class="6e5dc164-e88c-49ff-956a-8969719ca6ff" cx="280.77" cy="113.35" r="6.92"/><polygon class="6e5dc164-e88c-49ff-956a-8969719ca6ff" points="282.11 108.82 280.17 108.69 279.71 104.59 283.03 104.82 282.11 108.82"/><path id="2fc6c216-bdac-4dfa-b950-3c91d60b289c" data-name="Left Arm" class="054729c1-d291-484b-963f-a9b2ec9058e1" d="M274.65,171.89l-1.15,1.25s-3.74-4-4.11-5.64c0-1.63,1.8-5.77,1.8-5.77s.12-1.15-.39-1.57a2.08,2.08,0,0,1-.52-2.85c.1,1.67,1.14,1.88,1.14,1.88a2.21,2.21,0,0,1,1.49-3.19,3.87,3.87,0,0,0-.37,3.16s.39-3.54,2.8-2.81a2.91,2.91,0,0,0-1.12,3.76s.89.29,2.28-1.21c-.08,1.18-1.07,2.07-2.61,2.47a4.9,4.9,0,0,0-1.25.55c-.59,1.11-.8,3.91-1.58,5.58A37.48,37.48,0,0,0,274.65,171.89Z"/><path id="18cbaa87-445d-4e5d-889f-3cbc27795d4f" data-name="Right Arm" class="054729c1-d291-484b-963f-a9b2ec9058e1" d="M278.68,171.89l-.43,1.83s5,3.23,7.94,3.47a9,9,0,0,0,3.39-5,8.89,8.89,0,0,0,1.42-1.35,3.58,3.58,0,0,0,.1-3.35,3.89,3.89,0,0,1-1.23,2.33s.88-2.38-.68-3.56a4.58,4.58,0,0,1-.47,3.08,2.44,2.44,0,0,0-1.83-3.08c1.74,2.24.47,3.84.47,3.84s-.93-.05-1.72-2.07a2.65,2.65,0,0,0,1.35,3.18,4.57,4.57,0,0,1,1.25.7c.15.88-1.51,1.86-2.2,3.2C284,175,278.68,171.89,278.68,171.89Z"/><g id="ec7a5341-ed81-408f-916e-fc168b194263" data-name="Left Leg"><path id="0392cbc1-1f19-4134-a7cc-6056ae66226f" data-name="Left Leg" class="4cf7a631-b728-4107-955c-840ce34ae76a" d="M272.86,191.4l-1.85-.15c.44-1.71-.17-2.92.11-4.75,1.27-3.46,2.63-4.33,2.63-4.33l.9.78a18.86,18.86,0,0,0-2.11,3.84A12.42,12.42,0,0,0,272.86,191.4Z"/><path class="4cf7a631-b728-4107-955c-840ce34ae76a" d="M273.19,191.5c0,.29-.37.53-1.52.53s-2.09-.22-2.09-.53c0-.59.93-1.07,2.09-1.07S273.19,190.91,273.19,191.5Z"/></g><g id="2a6e4602-2588-43c8-963b-ae9fc9111432" data-name="Right Leg"><path id="22df6701-93e7-429c-9ab5-2c926930c95f" data-name="Left Leg" class="054729c1-d291-484b-963f-a9b2ec9058e1" d="M280.59,186.86l2.14.15c-.92-1.69.48-5.32,0-6.87-1-.34-5,3-5,3v1.22s2.59-2.24,3.61-2.19C281.73,182.78,280.59,186.86,280.59,186.86Z"/><path class="054729c1-d291-484b-963f-a9b2ec9058e1" d="M280.32,187.06c0,.29.38.53,1.53.53s2.09-.22,2.09-.53c0-.59-.93-1.07-2.09-1.07S280.32,186.47,280.32,187.06Z"/><path id="9fb0b6c2-1719-4bb9-8489-8ab99fea91f3" data-name="Left Leg" class="4cf7a631-b728-4107-955c-840ce34ae76a" d="M280.59,186.86l2.14.15c-.92-1.69.48-5.32,0-6.87-1-.34-5,3-5,3v1.22s2.59-2.24,3.61-2.19C281.73,182.78,280.59,186.86,280.59,186.86Z"/><path class="4cf7a631-b728-4107-955c-840ce34ae76a" d="M280.32,187.06c0,.29.38.53,1.53.53s2.09-.22,2.09-.53c0-.59-.93-1.07-2.09-1.07S280.32,186.47,280.32,187.06Z"/></g><ellipse id="394d5470-cd36-4991-8bca-c3026dfdf54d" data-name="Body" class="054729c1-d291-484b-963f-a9b2ec9058e1" cx="277.04" cy="177.87" rx="4.5" ry="7.21"/><path id="c58018a2-a8bb-425c-aa09-67dfab01d488" data-name="Tail" class="054729c1-d291-484b-963f-a9b2ec9058e1" d="M277.75,192.11,279,192l-.82,2.71-3-2.44,1.52-.13c-1.82-4.29-.12-5.53-.92-8.59l2.69-.67C277.29,185.21,276.23,188.58,277.75,192.11Z"/><g id="162d19ee-5031-4743-9609-c8167a233d4e" data-name="Head"><ellipse id="74fd9778-b04d-43a0-bb9f-c404d5bcb7b9" data-name="Head" class="b1b5fce8-7bbf-42f7-8800-c054b6df6fe9" cx="277.04" cy="169.62" rx="7.65" ry="4.15"/><g class="0a7f289a-93b5-4fd6-af61-93385ac29c99"><path class="fecc9e4a-c997-4b1b-ba61-b2c29e12a370" d="M272.28,165.37l3.52.16a9.28,9.28,0,0,0-3,2.39A3,3,0,0,1,272.28,165.37Z"/></g><g class="0a7f289a-93b5-4fd6-af61-93385ac29c99"><ellipse cx="273.71" cy="165.82" rx="0.74" ry="0.67"/></g><g class="0a7f289a-93b5-4fd6-af61-93385ac29c99"><path class="fecc9e4a-c997-4b1b-ba61-b2c29e12a370" d="M281.79,165.37l-3.51.16a9.29,9.29,0,0,1,3,2.39A3,3,0,0,0,281.79,165.37Z"/></g><g class="0a7f289a-93b5-4fd6-af61-93385ac29c99"><ellipse cx="280.37" cy="165.82" rx="0.74" ry="0.67"/></g></g><path id="b6a6391e-da72-4021-83ce-8bf7161f261c" data-name="Left Horn" class="54e52bcf-fcba-46e5-a3c3-54951d3e57bd" d="M272.21,168.48c-1.66,0-6,3.05-.68,6.82-.78-3.32,1.18-4.19,2.25-4.52A2.38,2.38,0,0,0,272.21,168.48Z"/><path class="54e52bcf-fcba-46e5-a3c3-54951d3e57bd" d="M281.87,168.48c1.65,0,6,3.05.68,6.82.77-3.32-1.18-4.19-2.25-4.52A2.36,2.36,0,0,1,281.87,168.48Z"/></g></svg>