<svg xmlns="http://www.w3.org/2000/svg" width="1000" height="500" viewBox="0 0 1000 500"><defs><style>.ed64e6ec-2684-4f47-8c7e-292bb36e6516{opacity:0.5;}.\35 89873ea-f3dd-47a1-9b5c-1bed781bcbe9{fill:none;}.\37 51f902b-ce57-4415-8ba4-bb551fd9b835{font-size:15px;fill:#666;font-family:LondrinaSolid-Regular, Londrina Solid;}.c708934a-d4e8-49c5-b63c-33943fb920c2{letter-spacing:-0.01em;}.\36 18f3bd1-5d6f-4012-ba07-32d8abf61373{letter-spacing:-0.02em;}.\36 8d05981-c5ea-4d23-a846-ef19cf4af530{letter-spacing:-0.03em;}.\39 f494ab6-1ed7-4eec-918d-3ce3ea549a55{letter-spacing:-0.01em;}.c0ed7646-f5ed-4781-804c-e498b9e19473{letter-spacing:-0.01em;}.\37 717fcfa-b2bc-4b2a-b916-77accb152b5a{letter-spacing:-0.01em;}.\38 79c67f6-e7a7-4de5-8d7d-53eceaf5c486{letter-spacing:-0.01em;}.ca700e7c-f438-453d-b788-ac3400ec4318{letter-spacing:-0.06em;}.e988619a-1693-431d-a100-954335fa41c6{letter-spacing:0em;}</style></defs><title>inst-03</title><g id="d5282301-f49b-46cb-8f75-a4285661415d" data-name="keyboard"><path d="M733.42,133.25H713.19a4.2,4.2,0,0,0-4.19,4.19v21.12a4.2,4.2,0,0,0,4.19,4.19h20.23a4.2,4.2,0,0,0,4.19-4.19V137.44A4.2,4.2,0,0,0,733.42,133.25Zm-4.17,1.85a3,3,0,0,1,3,2.94V153.8a3,3,0,0,1-3,2.94H717.06a2.94,2.94,0,0,1-2.94-2.94V138a2.94,2.94,0,0,1,2.94-2.94Zm-19.59,2.34a3.53,3.53,0,0,1,3.53-3.53h17.89l-1.87.53H717.06a3.6,3.6,0,0,0-3.6,3.6v15.63l-3.81,4.06Z"/><path class="ed64e6ec-2684-4f47-8c7e-292bb36e6516" d="M764.11,133.25H743.89a4.2,4.2,0,0,0-4.19,4.19v21.12a4.2,4.2,0,0,0,4.19,4.19h20.22a4.2,4.2,0,0,0,4.19-4.19V137.44A4.19,4.19,0,0,0,764.11,133.25ZM760,135.1a2.94,2.94,0,0,1,2.94,2.94V153.8a2.94,2.94,0,0,1-2.94,2.94H747.76a3,3,0,0,1-3-2.94V138a3,3,0,0,1,3-2.94Zm-19.6,2.34a3.54,3.54,0,0,1,3.54-3.53h17.88l-1.87.53H747.76a3.6,3.6,0,0,0-3.6,3.6v15.63l-3.81,4.06V137.44Z"/><path class="ed64e6ec-2684-4f47-8c7e-292bb36e6516" d="M764.11,101.25H743.89a4.2,4.2,0,0,0-4.19,4.19v21.12a4.2,4.2,0,0,0,4.19,4.19h20.22a4.2,4.2,0,0,0,4.19-4.19V105.44A4.19,4.19,0,0,0,764.11,101.25ZM760,103.1a2.94,2.94,0,0,1,2.94,2.94V121.8a2.94,2.94,0,0,1-2.94,2.94H747.76a3,3,0,0,1-3-2.94V106a3,3,0,0,1,3-2.94Zm-19.6,2.34a3.54,3.54,0,0,1,3.54-3.53h17.88l-1.87.53H747.76a3.6,3.6,0,0,0-3.6,3.6v15.63l-3.81,4.06V105.44Z"/><path d="M794.81,133.25H774.58a4.2,4.2,0,0,0-4.19,4.19v21.12a4.2,4.2,0,0,0,4.19,4.19h20.23a4.2,4.2,0,0,0,4.19-4.19V137.44A4.2,4.2,0,0,0,794.81,133.25Zm-4.17,1.85a3,3,0,0,1,3,2.94V153.8a3,3,0,0,1-3,2.94H778.45a2.94,2.94,0,0,1-2.94-2.94V138a2.94,2.94,0,0,1,2.94-2.94ZM771,137.44a3.54,3.54,0,0,1,3.54-3.53h17.89l-1.87.53H778.45a3.6,3.6,0,0,0-3.6,3.6v15.63L771,157.73V137.44Z"/><polygon class="589873ea-f3dd-47a1-9b5c-1bed781bcbe9" points="748.6 113.47 750.42 113.47 750.42 119.41 751.15 119.41 751.15 113.47 752.97 113.47 750.78 109.69 748.6 113.47"/><polygon class="589873ea-f3dd-47a1-9b5c-1bed781bcbe9" points="720.51 144.44 716.73 146.63 720.51 148.81 720.51 146.99 726.46 146.99 726.46 146.26 720.51 146.26 720.51 144.44"/><polygon class="589873ea-f3dd-47a1-9b5c-1bed781bcbe9" points="751.15 141.77 750.42 141.77 750.42 147.72 748.6 147.72 750.78 151.5 752.97 147.72 751.15 147.72 751.15 141.77"/><polygon class="589873ea-f3dd-47a1-9b5c-1bed781bcbe9" points="783.49 146.26 777.54 146.26 777.54 146.99 783.49 146.99 783.49 148.81 787.27 146.63 783.49 144.44 783.49 146.26"/><path d="M783.49,148.81V147h-6v-.73h6v-1.81l3.78,2.18Z"/><path class="ed64e6ec-2684-4f47-8c7e-292bb36e6516" d="M750.78,151.5l-2.18-3.78h1.82v-5.95h.73v5.95H753Z"/><path d="M726.46,147h-6v1.82l-3.78-2.18,3.78-2.19v1.82h6Z"/><path class="ed64e6ec-2684-4f47-8c7e-292bb36e6516" d="M751.15,113.47v5.94h-.73v-5.94H748.6l2.19-3.78,2.18,3.78Z"/></g><g id="e139c8f5-ccbd-4f07-b883-b0cb0d068817" data-name="Layer 10"><text class="751f902b-ce57-4415-8ba4-bb551fd9b835" transform="translate(563 188)">Press left and right arr<tspan class="c708934a-d4e8-49c5-b63c-33943fb920c2" x="133.54" y="0">o</tspan><tspan class="618f3bd1-5d6f-4012-ba07-32d8abf61373" x="140.07" y="0">w</tspan><tspan x="150.04" y="0"> </tspan><tspan class="68d05981-c5ea-4d23-a846-ef19cf4af530" x="153.04" y="0">k</tspan><tspan class="9f494ab6-1ed7-4eec-918d-3ce3ea549a55" x="159.18" y="0">e</tspan><tspan class="c0ed7646-f5ed-4781-804c-e498b9e19473" x="165.66" y="0">y</tspan><tspan x="172.23" y="0">s</tspan><tspan class="7717fcfa-b2bc-4b2a-b916-77accb152b5a" x="178.98" y="0"> </tspan><tspan x="181.77" y="0">to m</tspan><tspan class="879c67f6-e7a7-4de5-8d7d-53eceaf5c486" x="207.55" y="0">ov</tspan><tspan x="220.32" y="0">e along</tspan><tspan class="7717fcfa-b2bc-4b2a-b916-77accb152b5a" x="260.68" y="0"> </tspan><tspan x="263.47" y="0">the scaffold. </tspan><tspan class="ca700e7c-f438-453d-b788-ac3400ec4318" x="0" y="18">Y</tspan><tspan x="5.56" y="18">ou ha</tspan><tspan class="c708934a-d4e8-49c5-b63c-33943fb920c2" x="35.9" y="18">v</tspan><tspan x="42.13" y="18">e 1 minute and 30 seconds on</tspan><tspan class="7717fcfa-b2bc-4b2a-b916-77accb152b5a" x="208.2" y="18"> </tspan><tspan class="e988619a-1693-431d-a100-954335fa41c6" x="210.99" y="18">the clock so </tspan><tspan class="68d05981-c5ea-4d23-a846-ef19cf4af530" x="282.24" y="18">k</tspan><tspan x="288.37" y="18">eep</tspan><tspan class="7717fcfa-b2bc-4b2a-b916-77accb152b5a" x="308.65" y="18"> </tspan><tspan x="311.44" y="18">those </tspan><tspan x="0" y="36">fingers m</tspan><tspan class="879c67f6-e7a7-4de5-8d7d-53eceaf5c486" x="54.73" y="36">o</tspan><tspan class="e988619a-1693-431d-a100-954335fa41c6" x="61.26" y="36">vin</tspan><tspan class="c0ed7646-f5ed-4781-804c-e498b9e19473" x="77.55" y="36">’</tspan><tspan x="80.49" y="36"> </tspan></text></g></svg>