<svg xmlns="http://www.w3.org/2000/svg" width="1000" height="500" viewBox="0 0 1000 500"><defs><style>.\31 9bcf111-b7c0-42a7-94a5-21a51f083acb{opacity:0.5;}.\37 7c6b815-58b7-4703-9657-9c18c6e1fe84{fill:none;}.ea022387-94f0-4676-81d8-4dbd24b17db5{font-size:16px;fill:#666;font-family:LondrinaSolid-Regular, Londrina Solid;}.bf5a0209-8148-467b-8750-d5da65fc155b{letter-spacing:-0.01em;}.c6017f53-be5e-4c6c-8b02-d6d6c015563d{letter-spacing:-0.02em;}.ac3357dd-4b14-4596-9d8e-6e8acb49aa1c{letter-spacing:0em;}.\30 9cd63b7-6d12-4811-bcdd-c381d145e547{letter-spacing:-0.03em;}.\39 ada86dc-0ab1-4676-a5ec-6b157339b5da{letter-spacing:-0.01em;}.\39 c422e69-f9a2-4dd6-8571-1f28178c0ad9{letter-spacing:-0.01em;}.efb16a49-74e4-4396-aa2f-82dc12dbd020{letter-spacing:-0.01em;}.\34 b412383-a24d-4650-a2c9-9eea51ee7914{letter-spacing:-0.01em;}.\30 4afc564-8555-4cfb-930c-e653b29f90a5{letter-spacing:0em;}</style></defs><title>inst-03</title><g id="c37e25aa-af21-42e5-9335-f9a33fd1fef8" data-name="keyboard"><path d="M705.42,134.25H685.19a4.2,4.2,0,0,0-4.19,4.19v21.12a4.2,4.2,0,0,0,4.19,4.19h20.23a4.2,4.2,0,0,0,4.19-4.19V138.44A4.2,4.2,0,0,0,705.42,134.25Zm-4.17,1.85a3,3,0,0,1,3,2.94V154.8a3,3,0,0,1-3,2.94H689.06a2.94,2.94,0,0,1-2.94-2.94V139a2.94,2.94,0,0,1,2.94-2.94Zm-19.59,2.34a3.53,3.53,0,0,1,3.53-3.53h17.89l-1.87.53H689.06a3.6,3.6,0,0,0-3.6,3.6v15.63l-3.81,4.06Z"/><path class="19bcf111-b7c0-42a7-94a5-21a51f083acb" d="M736.11,134.25H715.89a4.2,4.2,0,0,0-4.19,4.19v21.12a4.2,4.2,0,0,0,4.19,4.19h20.22a4.2,4.2,0,0,0,4.19-4.19V138.44A4.19,4.19,0,0,0,736.11,134.25ZM732,136.1a2.94,2.94,0,0,1,2.94,2.94V154.8a2.94,2.94,0,0,1-2.94,2.94H719.76a3,3,0,0,1-3-2.94V139a3,3,0,0,1,3-2.94Zm-19.6,2.34a3.54,3.54,0,0,1,3.54-3.53h17.88l-1.87.53H719.76a3.6,3.6,0,0,0-3.6,3.6v15.63l-3.81,4.06V138.44Z"/><path class="19bcf111-b7c0-42a7-94a5-21a51f083acb" d="M736.11,102.25H715.89a4.2,4.2,0,0,0-4.19,4.19v21.12a4.2,4.2,0,0,0,4.19,4.19h20.22a4.2,4.2,0,0,0,4.19-4.19V106.44A4.19,4.19,0,0,0,736.11,102.25ZM732,104.1a2.94,2.94,0,0,1,2.94,2.94V122.8a2.94,2.94,0,0,1-2.94,2.94H719.76a3,3,0,0,1-3-2.94V107a3,3,0,0,1,3-2.94Zm-19.6,2.34a3.54,3.54,0,0,1,3.54-3.53h17.88l-1.87.53H719.76a3.6,3.6,0,0,0-3.6,3.6v15.63l-3.81,4.06V106.44Z"/><path d="M766.81,134.25H746.58a4.2,4.2,0,0,0-4.19,4.19v21.12a4.2,4.2,0,0,0,4.19,4.19h20.23a4.2,4.2,0,0,0,4.19-4.19V138.44A4.2,4.2,0,0,0,766.81,134.25Zm-4.17,1.85a3,3,0,0,1,3,2.94V154.8a3,3,0,0,1-3,2.94H750.45a2.94,2.94,0,0,1-2.94-2.94V139a2.94,2.94,0,0,1,2.94-2.94ZM743,138.44a3.54,3.54,0,0,1,3.54-3.53h17.89l-1.87.53H750.45a3.6,3.6,0,0,0-3.6,3.6v15.63L743,158.73V138.44Z"/><polygon class="77c6b815-58b7-4703-9657-9c18c6e1fe84" points="720.6 114.47 722.42 114.47 722.42 120.41 723.15 120.41 723.15 114.47 724.97 114.47 722.78 110.69 720.6 114.47"/><polygon class="77c6b815-58b7-4703-9657-9c18c6e1fe84" points="692.51 145.44 688.73 147.63 692.51 149.81 692.51 147.99 698.46 147.99 698.46 147.26 692.51 147.26 692.51 145.44"/><polygon class="77c6b815-58b7-4703-9657-9c18c6e1fe84" points="723.15 142.77 722.42 142.77 722.42 148.72 720.6 148.72 722.78 152.5 724.97 148.72 723.15 148.72 723.15 142.77"/><polygon class="77c6b815-58b7-4703-9657-9c18c6e1fe84" points="755.49 147.26 749.54 147.26 749.54 147.99 755.49 147.99 755.49 149.81 759.27 147.63 755.49 145.44 755.49 147.26"/><path d="M755.49,149.81V148h-6v-.73h6v-1.81l3.78,2.18Z"/><path class="19bcf111-b7c0-42a7-94a5-21a51f083acb" d="M722.78,152.5l-2.18-3.78h1.82v-5.95h.73v5.95H725Z"/><path d="M698.46,148h-6v1.82l-3.78-2.18,3.78-2.19v1.82h6Z"/><path class="19bcf111-b7c0-42a7-94a5-21a51f083acb" d="M723.15,114.47v5.94h-.73v-5.94H720.6l2.19-3.78,2.18,3.78Z"/></g><g id="e99a043d-e80b-4157-b259-0dd10cdaa551" data-name="Layer 10"><text class="ea022387-94f0-4676-81d8-4dbd24b17db5" transform="translate(572 192)">Press left and right arr<tspan class="bf5a0209-8148-467b-8750-d5da65fc155b" x="142.45" y="0">o</tspan><tspan class="c6017f53-be5e-4c6c-8b02-d6d6c015563d" x="149.41" y="0">w</tspan><tspan class="ac3357dd-4b14-4596-9d8e-6e8acb49aa1c" x="160.05" y="0"> </tspan><tspan class="09cd63b7-6d12-4811-bcdd-c381d145e547" x="163.25" y="0">k</tspan><tspan class="9ada86dc-0ab1-4676-a5ec-6b157339b5da" x="169.79" y="0">e</tspan><tspan class="9c422e69-f9a2-4dd6-8571-1f28178c0ad9" x="176.7" y="0">y</tspan><tspan class="ac3357dd-4b14-4596-9d8e-6e8acb49aa1c" x="183.71" y="0">s</tspan><tspan class="efb16a49-74e4-4396-aa2f-82dc12dbd020" x="190.91" y="0"> </tspan><tspan class="ac3357dd-4b14-4596-9d8e-6e8acb49aa1c" x="193.89" y="0">to m</tspan><tspan class="4b412383-a24d-4650-a2c9-9eea51ee7914" x="221.39" y="0">ov</tspan><tspan class="04afc564-8555-4cfb-930c-e653b29f90a5" x="235.01" y="0">e along</tspan><tspan class="efb16a49-74e4-4396-aa2f-82dc12dbd020" x="278.06" y="0"> </tspan><tspan class="ac3357dd-4b14-4596-9d8e-6e8acb49aa1c" x="281.04" y="0">the</tspan><tspan x="0" y="19.2">scaffold </tspan></text></g></svg>