<svg xmlns="http://www.w3.org/2000/svg" width="1000" height="500" viewBox="0 0 1000 500"><defs><style>.\39 a136cd5-cac0-48a9-b7d4-b0789ea83ab2{fill:#ef4b53;}.\37 615db10-cc16-4159-b8ce-32ac81b97e5e{fill:#f47682;}.\39 bcabb10-cf82-4f94-8b92-51c47c675e9f{font-size:17px;fill:#666;font-family:LondrinaSolid-Regular, Londrina Solid;}.ab285a25-21e0-4f2f-8d58-4811580941c1{letter-spacing:-0.06em;}.dfcc6492-6cee-41b4-963d-a3ffc86dab85{letter-spacing:-0.01em;}.ec776a0a-e9ca-47c3-bfb7-ff881ffc070e{letter-spacing:-0.01em;}.\34 e9dc378-e68d-45a0-bac2-4543f84bff07{letter-spacing:-0.01em;}.b0c437fa-16b7-46cd-afa0-b79703926626{letter-spacing:-0.01em;}.\35 b18ced9-d4ee-4250-9ec8-b92c31215ff6{letter-spacing:0em;}.b10b22ac-c95b-4b7a-b47d-a64d2876b6f2{letter-spacing:-0.02em;}.f29252b9-5f9e-4e3a-87c6-75836e379a67{letter-spacing:-0.04em;}.\38 49b6e86-02bd-4338-9d0d-b0f7e3459208{letter-spacing:-0.02em;}.\35 c925fc4-4386-4d88-a2e9-9bdb8172b512{letter-spacing:-0.01em;}.\35 0701200-15a2-443c-8a86-b2b3c272440a{letter-spacing:-0.02em;}.\30 1280705-2988-4006-ad9e-231da600435e{letter-spacing:-0.02em;}.\33 90bed9a-28d5-4b71-93d7-3327d6e2d4fa{letter-spacing:-0.01em;}</style></defs><title>inst2</title><g id="9053c8d1-6a77-4dd4-b4cd-5d4ce48eadbb" data-name="LIVES and TIMER"><g id="1d542d2d-cf4e-4b27-a7be-79d5d0c02996" data-name="Icons"><g id="550df15a-10b1-40f0-bdca-958d09b8103f" data-name="Icons"><path class="9a136cd5-cac0-48a9-b7d4-b0789ea83ab2" d="M274.48,374.71l.76-.75a7.6,7.6,0,0,0-10.74-10.75l-.76.77-.76-.77A7.6,7.6,0,0,0,252.24,374l.76.75,10.35,10.36a.56.56,0,0,0,.78,0l10.35-10.36"/></g><path class="7615db10-cc16-4159-b8ce-32ac81b97e5e" d="M258.06,362.35s-6.34-.5-7,6.69a6.93,6.93,0,0,1,7.19-5s1.46.14,1.46-.77S258.06,362.35,258.06,362.35Z"/></g><g id="029d0660-1bb1-4001-aeb5-a797bb1df4b8" data-name="Icons"><g id="bcc33bcf-8d1a-496f-a4a0-69e84f065f36" data-name="Icons"><path class="9a136cd5-cac0-48a9-b7d4-b0789ea83ab2" d="M305.48,374.71l.76-.75a7.6,7.6,0,0,0-10.74-10.75l-.76.77-.76-.77A7.6,7.6,0,0,0,283.24,374l.76.75,10.35,10.36a.56.56,0,0,0,.78,0l10.35-10.36"/></g><path class="7615db10-cc16-4159-b8ce-32ac81b97e5e" d="M289.06,362.35s-6.34-.5-7,6.69a6.93,6.93,0,0,1,7.19-5s1.46.14,1.46-.77S289.06,362.35,289.06,362.35Z"/></g><g id="b6a60bcd-f102-4d43-a13b-0d617dfc1db6" data-name="Icons"><g id="94264de5-2b82-492d-8c63-be91524cd159" data-name="Icons"><path class="9a136cd5-cac0-48a9-b7d4-b0789ea83ab2" d="M336.48,374.71l.76-.75a7.6,7.6,0,0,0-10.74-10.75l-.76.77-.76-.77A7.6,7.6,0,0,0,314.24,374l.76.75,10.35,10.36a.56.56,0,0,0,.78,0l10.35-10.36"/></g><path class="7615db10-cc16-4159-b8ce-32ac81b97e5e" d="M320.06,362.35s-6.34-.5-7,6.69a6.93,6.93,0,0,1,7.19-5s1.46.14,1.46-.77S320.06,362.35,320.06,362.35Z"/></g></g><g id="ea3323fb-accf-4e0d-b66a-56abb1fdc086" data-name="Layer 17"><text class="9bcabb10-cf82-4f94-8b92-51c47c675e9f" transform="translate(154 411)"><tspan class="ab285a25-21e0-4f2f-8d58-4811580941c1">Y</tspan><tspan x="6.31" y="0">ou</tspan><tspan class="dfcc6492-6cee-41b4-963d-a3ffc86dab85" x="21.57" y="0">’</tspan><tspan x="24.9" y="0">re gi</tspan><tspan class="ec776a0a-e9ca-47c3-bfb7-ff881ffc070e" x="53.57" y="0">v</tspan><tspan x="60.64" y="0">en</tspan><tspan class="4e9dc378-e68d-45a0-bac2-4543f84bff07" x="75.84" y="0"> </tspan><tspan x="79" y="0">three li</tspan><tspan class="b0c437fa-16b7-46cd-afa0-b79703926626" x="124.96" y="0">v</tspan><tspan class="5b18ced9-d4ee-4250-9ec8-b92c31215ff6" x="132.04" y="0">es!</tspan><tspan class="b10b22ac-c95b-4b7a-b47d-a64d2876b6f2" x="150.92" y="0"> </tspan><tspan class="f29252b9-5f9e-4e3a-87c6-75836e379a67" x="154" y="0">T</tspan><tspan x="160.78" y="0">r</tspan><tspan class="849b6e86-02bd-4338-9d0d-b0f7e3459208" x="167.04" y="0">y</tspan><tspan class="4e9dc378-e68d-45a0-bac2-4543f84bff07" x="174.38" y="0"> </tspan><tspan x="177.55" y="0">to survi</tspan><tspan class="b0c437fa-16b7-46cd-afa0-b79703926626" x="227.51" y="0">v</tspan><tspan x="234.58" y="0">e and kill </tspan><tspan x="0" y="20.4">as ma</tspan><tspan class="5c925fc4-4386-4d88-a2e9-9bdb8172b512" x="38.86" y="20.4">n</tspan><tspan class="50701200-15a2-443c-8a86-b2b3c272440a" x="46.39" y="20.4">y</tspan><tspan x="53.74" y="20.4" xml:space="preserve"> monsters as</tspan><tspan class="01280705-2988-4006-ad9e-231da600435e" x="138.85" y="20.4"> </tspan><tspan class="390bed9a-28d5-4b71-93d7-3327d6e2d4fa" x="141.95" y="20.4">y</tspan><tspan class="5b18ced9-d4ee-4250-9ec8-b92c31215ff6" x="149.38" y="20.4">ou can ‘til sunrise.</tspan></text></g></svg>