<svg id="3ee0bbc6-eebd-4065-b957-289b0eb78d7b" data-name="Title" xmlns="http://www.w3.org/2000/svg" viewBox="0 0 1000 500"><defs><style>.a3b457c1-7d04-4f5e-ad47-dabd8b060071{font-size:108px;fill:#fff;stroke:#000;stroke-miterlimit:10;font-family:LondrinaSolid-Regular, Londrina Solid;}</style></defs><title>title-01</title><text class="a3b457c1-7d04-4f5e-ad47-dabd8b060071" transform="translate(242.53 241.32)"><tspan xml:space="preserve">SmashB   mb</tspan></text><path d="M666.19,178.21l18.7,12,1.17-2.19Z"/><path d="M682.56,172.73v-2.2l-15.21,3.29Z"/><path d="M641.64,153l-2.35,2.19,15.2,14.25Z"/><path d="M677.88,153,665,169.44l15.2-14.25Z"/><path d="M651,201.22l5.84-19.73-9.35,18.63Z"/><path d="M659.17,168.34,661.51,153H658Z"/><path d="M666.19,195.74h2.33l-5.84-14.25Z"/><path d="M658.53,175.17H657.3c-2.47,1.27-3.7,2.53-6.16,2.53-3.7,0-9.86-3.79-17.26-10.09l-3.7-2.52c-7.4-6.3-12.33-10.09-18.5-10.09-3.69,0-6.16,1.26-8.63,5.05-2.46,2.52-3.69,5-3.69,10.09v1.25c-3.7,0-6.16,1.26-7.4,1.26v8.83c-13.56,6.3-21,15.13-21,29,0,8.84,3.7,16.4,8.63,22.71,6.16,5,13.57,8.82,22.19,8.82a29.43,29.43,0,0,0,21-8.82c6.16-6.31,9.87-13.87,9.87-22.71,0-13.86-7.41-23.95-21-29v-8.83c-2.46,0-4.93-1.26-7.4-1.26,0-7.56,2.47-10.08,7.4-10.08q5.55,0,14.8,7.56l3.7,2.52c8.62,7.57,14.78,11.35,21,11.35,2.46,0,4.92,0,7.39-1.26,1.23-1.26,2.47-2.52,2.47-3.78,0-2.53,0-2.53-2.47-2.53Zm-64.4,61.52c-20.23-12-16.75-32.3-12.08-41.37l6.3,2.75-.09.27-.12.24c-.42.83-10.09,20.47,9.44,32Z"/></svg>